<svg width="174" height="150" viewBox="0 0 174 150" fill="none" xmlns="http://www.w3.org/2000/svg">
<path d="M2.36456 141V123.48H5.77256V141H2.36456ZM10.6007 141V127.968H13.2407V131.184C13.8007 128.768 15.2887 127.56 17.7047 127.56H17.8487C19.4007 127.56 20.5767 128.064 21.3767 129.072C22.1767 130.08 22.5767 131.568 22.5767 133.536V141H19.2407V133.248C19.2407 132.448 19.0087 131.8 18.5447 131.304C18.0807 130.808 17.4567 130.56 16.6727 130.56C15.8567 130.56 15.1927 130.816 14.6807 131.328C14.1847 131.84 13.9367 132.512 13.9367 133.344V141H10.6007ZM27.1952 141V130.632H25.5632V128.184H27.1952V127.656C27.1952 126.168 27.6032 125.072 28.4192 124.368C29.2512 123.648 30.4752 123.288 32.0912 123.288H33.7232V125.856H31.8512C31.3552 125.856 30.9712 125.992 30.6992 126.264C30.4432 126.52 30.3152 126.888 30.3152 127.368V128.184H33.9392V130.632H30.3152V141H27.1952ZM42.9375 141.456C41.4015 141.456 40.1055 141.144 39.0495 140.52C37.9935 139.88 37.1855 139.048 36.6255 138.024C36.0815 137 35.8095 135.912 35.8095 134.76V134.256C35.8095 133.056 36.0895 131.944 36.6495 130.92C37.2255 129.896 38.0415 129.072 39.0975 128.448C40.1695 127.824 41.4495 127.512 42.9375 127.512C44.4095 127.512 45.6735 127.824 46.7295 128.448C47.8015 129.072 48.6175 129.896 49.1775 130.92C49.7535 131.944 50.0415 133.056 50.0415 134.256V134.76C50.0415 135.912 49.7615 137 49.2015 138.024C48.6575 139.048 47.8575 139.88 46.8015 140.52C45.7455 141.144 44.4575 141.456 42.9375 141.456ZM42.9375 138.6C44.1535 138.6 45.0815 138.216 45.7215 137.448C46.3775 136.664 46.7055 135.68 46.7055 134.496C46.7055 133.312 46.3695 132.328 45.6975 131.544C45.0255 130.76 44.1055 130.368 42.9375 130.368C41.7535 130.368 40.8255 130.76 40.1535 131.544C39.4815 132.328 39.1455 133.312 39.1455 134.496C39.1455 135.68 39.4655 136.664 40.1055 137.448C40.7615 138.216 41.7055 138.6 42.9375 138.6ZM58.1182 141L64.0942 123.48H69.6622L75.8063 141H72.3022L70.6943 136.344H63.0622L61.5262 141H58.1182ZM64.0222 133.464H69.7102L67.2862 126.336H66.3982L64.0222 133.464ZM78.8648 141V127.968H81.5048V131.16C82.0488 128.76 83.4648 127.56 85.7528 127.56H85.8968C87.9608 127.56 89.3208 128.544 89.9768 130.512C90.6168 128.544 91.9768 127.56 94.0568 127.56H94.2008C95.6888 127.56 96.8168 128.072 97.5848 129.096C98.3688 130.12 98.7608 131.608 98.7608 133.56V141H95.4248V133.248C95.4248 132.432 95.2168 131.784 94.8008 131.304C94.3848 130.808 93.7928 130.56 93.0248 130.56C92.2408 130.56 91.6168 130.816 91.1528 131.328C90.7048 131.824 90.4808 132.496 90.4808 133.344V141H87.1448V133.248C87.1448 132.432 86.9368 131.784 86.5208 131.304C86.1048 130.808 85.5128 130.56 84.7448 130.56C83.9608 130.56 83.3368 130.816 82.8728 131.328C82.4248 131.824 82.2008 132.496 82.2008 133.344V141H78.8648ZM110.702 141.432C109.518 141.432 108.486 141.152 107.606 140.592C106.742 140.032 106.102 139.232 105.686 138.192V141H103.046V123.48H106.382V130.08C106.862 129.248 107.486 128.624 108.254 128.208C109.038 127.776 109.926 127.56 110.918 127.56C112.118 127.56 113.166 127.856 114.062 128.448C114.958 129.024 115.654 129.816 116.15 130.824C116.646 131.816 116.894 132.936 116.894 134.184V134.688C116.894 135.952 116.638 137.096 116.126 138.12C115.614 139.128 114.894 139.936 113.966 140.544C113.054 141.136 111.966 141.432 110.702 141.432ZM109.958 138.624C111.03 138.624 111.894 138.24 112.55 137.472C113.222 136.688 113.558 135.68 113.558 134.448C113.558 133.216 113.222 132.232 112.55 131.496C111.894 130.744 111.03 130.368 109.958 130.368C109.302 130.368 108.694 130.52 108.134 130.824C107.574 131.112 107.126 131.536 106.79 132.096C106.454 132.64 106.286 133.304 106.286 134.088V135.048C106.286 135.8 106.462 136.448 106.814 136.992C107.166 137.52 107.622 137.928 108.182 138.216C108.742 138.488 109.334 138.624 109.958 138.624ZM124.987 141.408C123.483 141.408 122.315 140.92 121.483 139.944C120.667 138.952 120.259 137.472 120.259 135.504V127.944H123.595V135.792C123.595 136.608 123.819 137.248 124.267 137.712C124.715 138.176 125.323 138.408 126.091 138.408C126.859 138.408 127.483 138.16 127.963 137.664C128.459 137.168 128.707 136.496 128.707 135.648V127.944H132.043V141H129.403V137.976C128.843 140.264 127.419 141.408 125.131 141.408H124.987ZM136.763 141V125.976H135.131V123.48H140.099V141H136.763ZM148.324 141.336C146.884 141.336 145.732 140.968 144.868 140.232C144.02 139.496 143.596 138.464 143.596 137.136C143.596 135.712 144.108 134.664 145.132 133.992C146.172 133.304 147.564 132.96 149.308 132.96H151.972V132.84C151.972 131.352 151.22 130.608 149.716 130.608C149.316 130.608 148.836 130.616 148.276 130.632C147.716 130.648 147.148 130.672 146.572 130.704C146.012 130.72 145.508 130.744 145.06 130.776V127.944C145.604 127.896 146.252 127.856 147.004 127.824C147.772 127.792 148.476 127.776 149.116 127.776C151.116 127.776 152.62 128.184 153.628 129C154.652 129.8 155.164 131.104 155.164 132.912V141H152.524V138.504C151.932 140.392 150.532 141.336 148.324 141.336ZM149.26 138.96C149.708 138.96 150.132 138.88 150.532 138.72C150.932 138.544 151.26 138.256 151.516 137.856C151.788 137.44 151.94 136.88 151.972 136.176V134.952H149.26C148.492 134.952 147.9 135.144 147.484 135.528C147.084 135.896 146.884 136.376 146.884 136.968C146.884 137.576 147.084 138.064 147.484 138.432C147.9 138.784 148.492 138.96 149.26 138.96ZM159.457 141V127.968H162.097V131.184C162.657 128.768 164.145 127.56 166.561 127.56H166.705C168.257 127.56 169.433 128.064 170.233 129.072C171.033 130.08 171.433 131.568 171.433 133.536V141H168.097V133.248C168.097 132.448 167.865 131.8 167.401 131.304C166.937 130.808 166.313 130.56 165.529 130.56C164.713 130.56 164.049 130.816 163.537 131.328C163.041 131.84 162.793 132.512 162.793 133.344V141H159.457Z" fill="white"/>
<path d="M132.333 32C132.333 29.3333 129.667 21.3333 121.667 21.3333H64.0693C60.3973 21.3333 55.296 26.1093 52.5973 32L44.3333 45.3333C40.4587 46.9307 39 51.5493 39 56V72C39 74.829 40.1238 77.5421 42.1242 79.5425C44.1246 81.5429 46.8377 82.6667 49.6667 82.6667H124.333C127.162 82.6667 129.875 81.5429 131.876 79.5425C133.876 77.5421 135 74.829 135 72V50.6667C135 47.928 132.333 32 132.333 32Z" fill="#CCD6DD"/>
<path d="M62.9999 66.6667C58.8225 66.6684 54.8116 68.3046 51.825 71.2254C48.8384 74.1462 47.1133 78.1197 47.0186 82.296C47.8719 82.512 48.7466 82.6667 49.6666 82.6667H78.9999C78.9999 78.4232 77.3142 74.3535 74.3136 71.3529C71.313 68.3524 67.2434 66.6667 62.9999 66.6667ZM126.981 82.2933C126.886 78.1172 125.161 74.144 122.175 71.2237C119.188 68.3033 115.177 66.6677 111 66.6667C102.168 66.6667 94.9999 73.832 94.9999 82.6667H124.333C125.253 82.6667 126.131 82.512 126.981 82.2933Z" fill="#E1E8ED"/>
<path d="M63 93.3333C68.8911 93.3333 73.6667 88.5577 73.6667 82.6667C73.6667 76.7756 68.8911 72 63 72C57.109 72 52.3334 76.7756 52.3334 82.6667C52.3334 88.5577 57.109 93.3333 63 93.3333Z" fill="#292F33"/>
<path d="M63 88C65.9455 88 68.3333 85.6122 68.3333 82.6667C68.3333 79.7212 65.9455 77.3333 63 77.3333C60.0544 77.3333 57.6666 79.7212 57.6666 82.6667C57.6666 85.6122 60.0544 88 63 88Z" fill="#99AAB5"/>
<path d="M111 93.3333C116.891 93.3333 121.667 88.5577 121.667 82.6667C121.667 76.7756 116.891 72 111 72C105.109 72 100.333 76.7756 100.333 82.6667C100.333 88.5577 105.109 93.3333 111 93.3333Z" fill="#292F33"/>
<path d="M111 88C113.945 88 116.333 85.6122 116.333 82.6667C116.333 79.7212 113.945 77.3333 111 77.3333C108.054 77.3333 105.667 79.7212 105.667 82.6667C105.667 85.6122 108.054 88 111 88Z" fill="#99AAB5"/>
<path d="M39 56H135V64H39V56ZM121.667 34.6667H113.667V26.6667H108.333V34.6667H100.333V40H108.333V48H113.667V40H121.667V34.6667Z" fill="#DD2E44"/>
<path d="M60.3333 26.6667H73.6666V45.3333H49.6666L60.3333 26.6667Z" fill="#55ACEE"/>
<path d="M79 17.3333C79 18.3942 78.5785 19.4116 77.8284 20.1618C77.0782 20.9119 76.0608 21.3333 75 21.3333H69.6666C68.6058 21.3333 67.5883 20.9119 66.8382 20.1618C66.0881 19.4116 65.6666 18.3942 65.6666 17.3333C65.6666 16.2725 66.0881 15.2551 66.8382 14.5049C67.5883 13.7548 68.6058 13.3333 69.6666 13.3333H75C76.0608 13.3333 77.0782 13.7548 77.8284 14.5049C78.5785 15.2551 79 16.2725 79 17.3333Z" fill="#DD2E44"/>
<path d="M87 17.3333C87 18.3942 86.5785 19.4116 85.8284 20.1618C85.0782 20.9119 84.0608 21.3333 83 21.3333H77.6666C76.6058 21.3333 75.5883 20.9119 74.8382 20.1618C74.0881 19.4116 73.6666 18.3942 73.6666 17.3333C73.6666 16.2725 74.0881 15.2551 74.8382 14.5049C75.5883 13.7548 76.6058 13.3333 77.6666 13.3333H83C84.0608 13.3333 85.0782 13.7548 85.8284 14.5049C86.5785 15.2551 87 16.2725 87 17.3333Z" fill="#55ACEE"/>
</svg>
