<svg width="393" height="291" viewBox="0 0 393 291" fill="none" xmlns="http://www.w3.org/2000/svg">
<path d="M77.9988 277.229V244.412H6.96819L0 226.654L51.0252 110.442H90.5865L46.08 211.369H77.9988V183.046L85.4166 162.591H116.886V211.369H131.946V238.342L116.886 244.412V277.229H77.9988Z" fill="#5A8CDC"/>
<g filter="url(#filter0_d_187_1233)">
<path d="M275.522 165.601C294.614 209.247 274.708 260.106 231.062 279.198C187.415 298.289 136.556 278.383 117.465 234.737C98.3735 191.09 118.279 140.231 161.926 121.14C205.572 102.049 256.431 121.954 275.522 165.601Z" fill="url(#paint0_linear_187_1233)"/>
<path d="M162.158 174.95C165.096 181.664 162.034 189.489 155.32 192.427C148.605 195.364 140.78 192.303 137.843 185.588C134.905 178.874 137.967 171.049 144.681 168.111C151.396 165.173 159.221 168.235 162.158 174.95Z" fill="url(#paint1_linear_187_1233)"/>
<path d="M243.205 139.813C244.891 141.77 244.573 144.328 242.493 145.528C240.413 146.727 237.36 146.113 235.673 144.157C233.987 142.2 234.305 139.642 236.385 138.442C238.465 137.243 241.518 137.857 243.205 139.813Z" fill="url(#paint2_linear_187_1233)"/>
<path d="M273.681 201.809C276.307 202.723 277.41 206.409 276.145 210.041C274.881 213.674 271.727 215.877 269.101 214.963C266.476 214.049 265.373 210.363 266.637 206.731C267.902 203.099 271.056 200.895 273.681 201.809Z" fill="url(#paint3_linear_187_1233)"/>
<path d="M193.974 117.029C194.144 118.51 191.183 120.065 187.362 120.502C183.541 120.939 180.305 120.093 180.136 118.613C179.967 117.132 182.927 115.577 186.748 115.14C190.57 114.702 193.805 115.548 193.974 117.029Z" fill="url(#paint4_linear_187_1233)"/>
<path d="M226.351 249.727C228.204 259.377 220.425 268.983 208.974 271.182C197.524 273.382 186.74 267.341 184.886 257.69C183.033 248.039 190.812 238.433 202.262 236.234C213.713 234.035 224.497 240.076 226.351 249.727Z" fill="url(#paint5_linear_187_1233)"/>
<path d="M167.389 117.685C167.964 118.863 164.534 121.722 159.727 124.07C154.92 126.419 150.557 127.368 149.981 126.19C149.406 125.013 152.836 122.154 157.643 119.805C162.45 117.457 166.814 116.508 167.389 117.685Z" fill="white"/>
<path d="M168.145 119.233C169.138 121.266 166.046 124.817 161.239 127.166C156.432 129.514 151.73 129.771 150.737 127.738C149.744 125.706 152.836 122.155 157.643 119.806C162.45 117.458 167.152 117.201 168.145 119.233Z" fill="white"/>
<path d="M164.638 117.93C164.805 118.272 162.212 119.884 158.845 121.528C155.478 123.173 152.613 124.229 152.446 123.886C152.279 123.544 154.872 121.932 158.239 120.288C161.605 118.643 164.47 117.587 164.638 117.93Z" fill="#400003"/>
<path d="M107.249 212.885C109.289 212.264 112.999 218.512 115.536 226.841C118.072 235.17 118.474 242.426 116.433 243.047C114.392 243.669 110.682 237.42 108.146 229.091C105.61 220.762 105.208 213.507 107.249 212.885Z" fill="url(#paint6_linear_187_1233)"/>
<path d="M109.929 212.069C113.45 210.996 118.361 216.879 120.897 225.208C123.433 233.537 122.635 241.158 119.113 242.23C115.592 243.303 110.682 237.42 108.145 229.091C105.609 220.762 106.408 213.141 109.929 212.069Z" fill="url(#paint7_linear_187_1233)"/>
<path d="M106.932 217.368C107.526 217.188 109.447 221.77 111.223 227.603C112.999 233.437 113.958 238.312 113.364 238.493C112.77 238.674 110.849 234.091 109.073 228.258C107.297 222.425 106.338 217.549 106.932 217.368Z" fill="#400104"/>
<path d="M180.004 283.426C180.084 282.296 187.201 281.52 195.902 281.693C204.602 281.866 211.591 282.922 211.511 284.051C211.431 285.181 204.313 285.957 195.613 285.784C186.912 285.611 179.924 284.555 180.004 283.426Z" fill="url(#paint8_linear_187_1233)"/>
<path d="M180.109 281.942C180.247 279.992 187.412 278.552 196.112 278.725C204.813 278.898 211.754 280.618 211.616 282.568C211.478 284.517 204.313 285.957 195.613 285.785C186.913 285.612 179.971 283.891 180.109 281.942Z" fill="url(#paint9_linear_187_1233)"/>
<path d="M184.136 284.362C184.16 284.033 189.118 283.864 195.212 283.986C201.305 284.107 206.226 284.471 206.203 284.8C206.18 285.129 201.221 285.297 195.128 285.176C189.034 285.055 184.113 284.69 184.136 284.362Z" fill="white"/>
<path d="M269.63 248.567C267.934 247.795 269.114 241.558 272.267 234.636C275.419 227.715 279.349 222.729 281.045 223.502C282.74 224.274 281.56 230.511 278.408 237.433C275.256 244.355 271.325 249.34 269.63 248.567Z" fill="url(#paint10_linear_187_1233)"/>
<path d="M267.401 247.553C264.475 246.22 264.658 239.529 267.81 232.607C270.962 225.686 275.889 221.155 278.816 222.487C281.742 223.82 281.559 230.512 278.407 237.433C275.255 244.355 270.327 248.886 267.401 247.553Z" fill="url(#paint11_linear_187_1233)"/>
<path d="M272.427 245.814C271.934 245.589 273.324 241.477 275.531 236.629C277.739 231.782 279.929 228.034 280.422 228.259C280.916 228.483 279.526 232.595 277.318 237.443C275.11 242.291 272.921 246.039 272.427 245.814Z" fill="white"/>
<path d="M270.089 152.503C269.129 153.157 266.188 150.513 263.519 146.598C260.849 142.682 259.463 138.978 260.422 138.324C261.382 137.67 264.323 140.314 266.992 144.23C269.662 148.145 271.048 151.85 270.089 152.503Z" fill="url(#paint12_linear_187_1233)"/>
<path d="M268.828 153.362C267.173 154.491 263.667 152.231 260.998 148.316C258.329 144.4 257.507 140.312 259.162 139.183C260.818 138.055 264.323 140.314 266.993 144.229C269.662 148.145 270.484 152.234 268.828 153.362Z" fill="url(#paint13_linear_187_1233)"/>
<path d="M269.526 150.122C269.247 150.313 267.505 148.244 265.635 145.502C263.766 142.759 262.477 140.382 262.756 140.192C263.035 140.002 264.777 142.07 266.646 144.813C268.516 147.555 269.805 149.932 269.526 150.122Z" fill="#3D0002"/>
<path d="M216.353 188.563C216.353 193.143 212.64 196.857 208.059 196.857C203.478 196.857 199.765 193.143 199.765 188.563C199.765 183.982 203.478 180.269 208.059 180.269C212.64 180.269 216.353 183.982 216.353 188.563Z" fill="#91080D"/>
<path d="M144.692 249.167C142.61 250.96 138.498 249.601 135.509 246.131C132.519 242.66 131.783 238.393 133.865 236.599C135.948 234.805 140.059 236.164 143.049 239.635C146.039 243.105 146.775 247.373 144.692 249.167Z" fill="#79080D"/>
<path d="M209.718 132.163C209.718 134.911 206.005 137.139 201.424 137.139C196.843 137.139 193.13 134.911 193.13 132.163C193.13 129.415 196.843 127.187 201.424 127.187C206.005 127.187 209.718 129.415 209.718 132.163Z" fill="#BD0C14"/>
<path d="M258.665 237.101C260.472 239.172 259.138 243.292 255.687 246.304C252.235 249.315 247.972 250.078 246.165 248.007C244.358 245.936 245.692 241.816 249.143 238.804C252.595 235.793 256.858 235.03 258.665 237.101Z" fill="#580508"/>
</g>
<path d="M126.384 128.454L130.251 129.957L142.709 125.446C142.709 125.446 145.274 127.59 146.791 129.098C147.927 130.228 148.812 130.7 149.583 132.105C149.891 132.665 150.423 133.001 150.228 133.609C150.063 134.12 149.653 134.271 149.154 134.468C148.529 134.715 148.101 134.555 147.435 134.468C145.872 134.264 143.998 132.75 143.354 133.179C142.709 133.609 142.642 134.631 142.28 135.972C141.918 137.312 144.494 141.003 143.354 143.92C143.039 144.724 143.054 145.471 142.28 145.853C141.678 146.15 141.205 146.041 140.561 145.853C139.364 145.503 139.155 144.493 138.413 143.49C137.03 141.62 135.836 138.12 135.836 138.12C135.836 138.12 136.666 140.836 136.91 142.631C137.08 143.88 137.434 144.63 137.124 145.853C136.968 146.472 137.015 147.007 136.48 147.356C136.122 147.59 135.834 147.571 135.406 147.571C134.978 147.571 134.721 147.535 134.332 147.356C133.629 147.034 133.466 146.5 133.043 145.853C132.447 144.94 132.376 144.287 131.969 143.275C131.068 141.034 129.821 137.475 129.821 137.475C129.821 137.475 130.24 141.438 129.821 143.92C129.692 144.682 130.044 145.438 129.391 145.853C129.1 146.039 128.878 146.068 128.532 146.068C128.186 146.068 127.986 146.001 127.673 145.853C126.853 145.464 126.8 144.726 126.384 143.92C125.739 142.67 125.568 141.865 125.31 140.483C124.91 138.339 124.777 137.083 124.881 134.898C124.945 133.547 124.991 132.775 125.31 131.461C125.604 130.249 126.384 128.454 126.384 128.454Z" fill="#C0C0C0"/>
<path d="M129.821 68.3077C129.821 68.3077 143.475 53.5937 154.739 48.1159C166.767 42.2659 188.248 41.0273 188.248 41.0273C188.248 41.0273 196.968 53.6578 201.137 62.5079C207.402 75.81 211.877 98.5953 211.877 98.5953L164.834 126.305C164.834 126.305 152.056 111.679 145.502 101.173C137.975 89.1072 129.821 68.3077 129.821 68.3077Z" fill="#CACACA"/>
<path d="M146.576 45.5388C135.312 51.0165 121.658 65.7305 121.658 65.7305C121.658 65.7305 129.813 86.5301 137.339 98.5958C143.893 109.102 156.671 123.728 156.671 123.728L164.834 126.306C164.834 126.306 152.056 111.68 145.502 101.173C137.975 89.1078 129.821 68.3082 129.821 68.3082C129.821 68.3082 143.475 53.5942 154.738 48.1165C166.767 42.2665 188.248 41.0279 188.248 41.0279C188.248 41.0279 196.968 53.6583 201.137 62.5084C206.925 74.7959 211.184 95.1751 211.8 98.2124L211.877 98.1662C211.877 98.1662 209.09 77.3836 203.714 65.3009C199.145 55.0316 188.248 41.0279 188.248 41.0279L180.086 38.4502C180.086 38.4502 158.605 39.6888 146.576 45.5388Z" fill="#ACAAAA"/>
<path d="M121.658 65.7305C121.658 65.7305 129.813 86.5301 137.339 98.5957C143.893 109.102 156.671 123.728 156.671 123.728L164.834 126.306C164.834 126.306 152.056 111.679 145.502 101.173C137.975 89.1077 129.821 68.3081 129.821 68.3081L121.658 65.7305Z" fill="#BBB8B8"/>
<path d="M135.836 138.12C135.836 138.12 137.03 141.62 138.413 143.49C139.155 144.493 139.364 145.503 140.561 145.853C141.205 146.041 141.678 146.15 142.28 145.853C142.882 145.556 142.426 144.925 142.065 144.564C141.705 144.203 141.227 144.59 140.777 144.35C140.015 143.942 140.157 143.151 139.703 142.416C139.163 141.546 138.713 141.154 138.199 140.268C137.822 139.619 137.938 139.002 137.34 138.55C136.853 138.181 135.836 138.12 135.836 138.12Z" fill="#D6D6D6"/>
<path d="M129.821 137.476C129.821 137.476 131.067 141.034 131.969 143.275C132.375 144.287 132.446 144.94 133.043 145.853C133.466 146.5 133.629 147.034 134.331 147.357C134.72 147.535 134.978 147.571 135.405 147.571C135.833 147.571 135.645 147.057 135.621 146.712C135.576 146.059 135.793 145.952 135.406 145.423C134.827 144.635 134.512 144.782 134.05 143.92C133.483 142.861 132.921 141.564 132.398 140.483C131.99 139.638 132.386 139.028 131.754 138.335C131.392 137.938 130.642 137.564 129.821 137.476Z" fill="#D6D6D6"/>
<path d="M125.31 131.461C124.991 132.776 124.945 133.547 124.881 134.898C124.777 137.083 124.91 138.339 125.31 140.483C125.568 141.866 125.739 142.67 126.384 143.92C126.8 144.726 126.853 145.465 127.673 145.853C127.986 146.001 128.186 146.068 128.532 146.068C128.532 146.068 127.585 143.225 127.244 141.342C126.972 139.848 126.718 138.992 126.814 137.476C126.907 136.014 127.116 135.179 127.673 133.824C128.363 132.146 130.251 129.958 130.251 129.958L126.384 128.454C126.384 128.454 125.604 130.25 125.31 131.461Z" fill="#D6D6D6"/>
<path d="M142.996 60.7577C142.952 60.4434 143.221 60.1792 143.537 60.2078C145.16 60.3546 146.434 60.3213 148.295 60.1458C152.104 59.7865 154.182 58.9589 157.746 57.5681C159.46 56.8993 160.403 56.4693 162.042 55.6349C165.133 54.0619 166.777 52.9776 169.56 50.9091C172.216 48.9355 173.929 47.9806 175.96 45.4396C176.112 45.2504 176.378 45.1893 176.585 45.3148C179.23 46.9171 179.282 49.678 180.516 51.7684C180.516 51.7684 175.439 53.6517 172.568 56.2793C169.458 59.1249 167.309 60.1836 163.331 61.8642C159.586 63.4466 156.839 64.1458 152.806 64.6567C149.294 65.1015 145.502 67.2344 145.502 67.2344C144.163 64.6604 143.324 63.1429 142.996 60.7577Z" fill="url(#paint14_linear_187_1233)"/>
<path d="M211.233 157.238C211.405 156.246 211.233 154.66 211.233 154.66L226.269 158.527L225.195 162.178C225.195 162.178 230.823 168.238 231.639 173.133C232.069 175.711 230.844 181.511 227.128 181.511C220.47 181.511 217.834 178.498 214.025 173.993C210.626 169.971 207.437 166.601 208.87 161.534C209.391 159.691 210.906 159.124 211.233 157.238Z" fill="#C0C0C0"/>
<path d="M225.195 162.178L226.269 158.526H220.899C220.899 158.526 219.871 160.457 220.04 161.748C220.258 163.412 221.249 164.215 222.617 165.185C224.047 166.198 225.475 165.475 226.914 166.474C228.237 167.393 228.56 168.381 229.491 169.696C230.406 170.988 231.639 173.133 231.639 173.133C230.823 168.237 225.195 162.178 225.195 162.178Z" fill="#9C9C9C"/>
<path d="M211.233 157.238C210.906 159.124 209.391 159.691 208.87 161.534C207.437 166.601 210.626 169.971 214.025 173.993C217.834 178.498 220.47 181.511 227.128 181.511C227.128 181.511 222.501 180.39 220.04 178.718C217.337 176.883 216.187 175.26 214.455 172.489C213.322 170.675 212.53 169.642 212.092 167.549C211.714 165.742 211.501 164.571 212.092 162.823C212.54 161.5 213.468 161.096 214.025 159.815C214.545 158.621 214.885 156.593 214.885 156.593L211.233 154.66C211.233 154.66 211.405 156.246 211.233 157.238Z" fill="#D6D6D6"/>
<path d="M143.225 62.0784C144.513 62.508 147.325 62.705 149.412 62.508C153.221 62.1487 155.471 61.5359 159.035 60.1451C160.749 59.4763 161.691 59.0464 163.331 58.2119C166.422 56.639 168.495 55.3398 171.279 53.2713C174.047 51.2144 177.25 48.9752 178.325 46.8271C178.754 47.2568 179.216 48.5194 179.7 50.2641C179.7 50.2641 176.557 55.5843 173.686 58.2119C170.576 61.0575 168.427 62.1162 164.449 63.7969C160.704 65.3792 157.957 66.0784 153.923 66.5893C150.412 67.0341 144.902 65.7301 144.902 65.7301C144.471 65.7301 143.439 63.3672 143.225 62.0784Z" fill="url(#paint15_linear_187_1233)"/>
<path d="M228.417 42.7462C228.417 42.7462 229.893 42.6209 230.78 42.3166C231.774 41.9756 232.296 41.6501 233.143 41.0278C234.099 40.3253 234.445 39.7116 235.291 38.8797C237.83 36.3828 241.95 32.6504 241.95 32.6504C241.95 32.6504 242.749 32.2941 243.239 32.4356C243.642 32.5519 243.833 32.7544 244.098 33.08C244.335 33.3711 244.454 33.5714 244.528 33.9392C244.628 34.4394 244.434 34.7323 244.313 35.228C243.768 37.4661 241.091 40.072 241.52 40.3833L241.95 40.5982C242.38 40.5982 244.437 38.5502 246.246 37.5909C247.142 37.1161 247.627 36.7686 248.609 36.5169C249.506 36.2867 250.192 35.8018 250.972 36.3021C251.481 36.6287 251.672 37.0073 251.831 37.5909C251.963 38.0765 251.889 38.3797 251.831 38.8797C251.51 41.6497 246.224 42.961 246.676 43.8202C246.816 44.088 246.835 44.3294 247.105 44.4647C247.535 44.6794 249.219 44.4912 250.542 44.2498C252.291 43.9309 253.067 42.8936 254.838 42.7462C255.423 42.6975 255.786 42.5573 256.342 42.7462C256.962 42.957 257.497 43.1789 257.631 43.8202C257.739 44.3396 257.449 44.6402 257.201 45.1091C256.757 45.9478 256.232 46.2448 255.483 46.8275C254.298 47.7488 253.436 47.9811 252.046 48.5459C250.028 49.3657 248.584 48.9993 246.676 50.0496C245.779 50.5434 244.528 50.5293 244.528 51.5532C244.528 53.0568 248.816 53.7058 249.253 56.2789C249.38 57.0233 249.694 57.5995 249.253 58.2122C248.835 58.7938 248.242 58.7396 247.535 58.8566C245.781 59.1468 244.946 57.8474 243.239 57.353C241.421 56.8266 240.395 56.4824 238.513 56.2789C236.762 56.0895 234.002 56.2789 234.002 56.2789L233.358 45.9683L228.417 42.7462Z" fill="#C0C0C0"/>
<path d="M254.838 42.7463C253.066 42.8936 252.29 43.931 250.542 44.2499C250.112 44.4647 250.111 44.4657 249.897 44.6795L249.897 44.6796C249.683 44.8934 249.408 45.0274 249.468 45.324C249.527 45.6206 249.827 45.6519 250.112 45.7536C250.764 45.9863 251.185 45.5713 251.831 45.324C252.356 45.1228 252.583 44.8496 253.119 44.6796C253.606 44.5253 253.904 44.5398 254.408 44.4647C255.077 44.3653 255.465 44.3878 256.127 44.2499C256.725 44.1255 257.764 44.4617 257.63 43.8203C257.497 43.1789 256.962 42.9571 256.342 42.7463C255.786 42.5573 255.423 42.6976 254.838 42.7463Z" fill="#D6D6D6"/>
<path d="M246.246 37.5911C244.527 38.6651 243.453 39.5244 243.453 39.5244C243.453 39.5244 242.979 39.9209 243.238 40.3836C243.577 40.9869 244.297 41.0182 244.958 40.8132C245.472 40.585 245.736 40.4065 246.246 40.1688C246.825 39.8989 247.201 39.8505 247.75 39.5244C248.517 39.0692 248.714 38.4961 249.468 38.0207C249.945 37.7207 250.446 37.8452 250.757 37.3763C250.994 37.0198 251.752 36.8026 250.972 36.3023C250.192 35.802 249.507 36.2869 248.609 36.5171C247.627 36.7689 247.106 37.0541 246.246 37.5911Z" fill="#D6D6D6"/>
<path d="M230.78 42.3166C229.893 42.6209 229.213 42.2496 228.417 42.7462C226.463 43.9661 231.086 46.3485 233.358 45.9683C234.621 45.757 234.985 44.7812 236.15 44.2499C236.802 43.9524 237.289 44.0273 237.869 43.6054C238.398 43.2198 238.725 42.9345 238.943 42.3166C239.288 41.3381 238.14 40.7644 238.298 39.7389C238.491 38.4954 239.484 38.1737 240.231 37.1613C240.909 36.2432 241.159 35.6203 241.95 34.7984C242.695 34.0245 244.362 33.4055 244.098 33.08C243.833 32.7544 243.642 32.5519 243.239 32.4356C242.748 32.2941 241.95 32.6504 241.95 32.6504C241.95 32.6504 237.83 36.3828 235.291 38.8797C234.445 39.7116 234.099 40.3253 233.143 41.0278C232.296 41.6501 231.774 41.9756 230.78 42.3166Z" fill="#D6D6D6"/>
<path d="M186.052 182.502C186.791 181.462 188.017 179.892 188.017 179.892L195.875 181.197L200.922 179.363L204.389 171.845C204.389 171.845 205.226 173.952 205.698 175.325C206.162 176.671 206.573 177.397 206.79 178.805C207.222 181.607 206.652 183.311 205.698 185.982C204.287 189.936 202.317 191.685 199.368 194.682C196.515 197.581 191.073 200.989 191.073 200.989C191.073 200.989 185.13 203.844 182.341 201.859C180.841 200.791 180.259 199.702 179.722 197.944C178.807 194.948 180.328 193.033 181.468 190.114C182.731 186.884 184.042 185.332 186.052 182.502Z" fill="#C0C0C0"/>
<path d="M205.698 175.325C205.225 173.952 204.389 171.845 204.389 171.845C204.389 171.845 199.778 176.339 200.922 179.363C201.531 180.973 203.341 180.967 203.929 182.585C204.827 185.054 203.227 186.708 201.996 189.029C201.014 190.882 200.178 191.767 198.774 193.325C197.184 195.09 196.467 195.861 194.907 197.407C193.452 198.849 191.073 200.989 191.073 200.989C191.073 200.989 196.515 197.581 199.368 194.682C202.317 191.685 204.287 189.936 205.698 185.982C206.652 183.311 207.222 181.607 206.79 178.805C206.573 177.397 206.162 176.671 205.698 175.325Z" fill="#9C9C9C"/>
<path d="M186.053 182.502C184.043 185.332 182.731 186.884 181.469 190.114C180.328 193.033 178.808 194.947 179.722 197.944C180.259 199.704 181.16 201.273 182.342 201.859C182.235 201.186 182.018 201.54 181.805 200.199C181.591 198.857 181.299 197.577 181.469 195.903C181.674 193.882 182.239 192.805 183.094 190.962C184.01 188.987 184.478 187.741 186.053 186.236C186.751 185.569 187.221 185.28 188.017 184.733C190.791 182.827 196.409 183.871 195.876 181.197C195.267 178.146 188.017 179.892 188.017 179.892C188.017 179.892 186.791 181.462 186.053 182.502Z" fill="#D6D6D6"/>
<path d="M143.845 64.1541C149.215 64.1541 150.615 64.2044 154.739 63.3673C158.898 62.523 161.23 61.7819 165.049 59.9305C168.546 58.2353 170.468 57.0798 173.427 54.5603C175.957 52.4053 177.938 50.2642 179.226 48.3309C180.086 49.405 180.043 49.8954 180.945 50.479C181.26 50.6828 181.448 50.792 181.804 50.9086C183.344 51.4125 184.098 49.7947 185.671 49.405C187.632 48.919 188.811 49.1269 190.826 48.9754C195.183 48.6476 197.638 48.6499 201.996 48.3309C205.859 48.0482 208.058 48.1215 211.877 47.4717C218.024 46.4258 220.901 43.0579 227.128 42.746C228.385 42.6831 229.122 42.4729 230.35 42.746C233.077 43.3524 234.064 45.2221 235.72 47.4717C236.899 49.0732 237.766 50.0194 238.083 51.9826C238.453 54.2732 238.341 56.0525 236.794 57.7824C235.059 59.7243 232.757 58.5055 230.35 59.5008C227.638 60.6224 226.716 62.52 223.906 63.3673C222.043 63.9291 220.849 63.5254 218.966 64.0118C215.587 64.884 214.26 66.8033 211.018 68.0931C208.725 69.0051 207.428 69.5722 205.003 70.0263C203.264 70.352 202.258 70.346 200.492 70.4559C197.143 70.6644 196.84 69.5967 192.759 70.4559C192.759 71.53 192.782 71.9186 193.404 72.8188C194.758 74.7812 195.804 75.664 197.27 77.5445C202.563 84.3338 203.236 89.906 209.299 96.0178C210.046 96.7707 210.666 97.0183 211.259 97.8974C212.081 99.1153 211.596 100.24 212.36 101.495C213.611 103.552 215.299 103.878 217.422 105.013C218.996 105.854 220.1 105.882 221.624 106.812C223.444 107.923 224.213 108.912 225.732 110.41C226.989 111.65 227.54 112.494 228.793 113.739C230.553 115.489 232.063 115.958 233.572 117.928C234.896 119.656 235.519 120.786 236.15 122.869C236.666 124.572 236.889 125.602 236.794 127.379C236.683 129.474 235.87 130.519 235.291 132.535C233.992 137.053 233.669 139.714 232.069 144.134C230.471 148.547 228.471 150.593 227.128 155.089C226.487 157.234 227.415 159.085 225.839 160.674C224.419 162.106 222.915 162.141 220.899 162.178C218.905 162.215 217.739 161.786 215.958 160.889C214.722 160.266 214.002 159.862 213.058 158.848C211.921 157.626 210.358 156.748 210.158 155.089C209.514 149.719 210.488 147.872 211.662 143.49C212.243 141.323 213.605 140.361 213.703 138.12C213.782 136.32 213.52 135.231 212.736 133.609C208.655 131.246 206.292 131.246 198.559 129.742C198.129 129.742 196.84 129.742 195.981 133.824C195.552 136.616 196.315 139.355 197.27 143.06C198.154 146.488 198.402 148.476 199.418 151.867C200.782 156.419 202.119 158.776 203.714 163.252C204.489 165.426 205.325 166.552 205.648 168.837C205.882 170.498 205.923 171.478 205.648 173.133C205.154 176.093 204.449 177.938 202.64 180.436C201.701 181.735 201.271 182.707 199.848 183.444C198.276 184.257 197.106 183.837 195.337 183.873C193.657 183.908 192.691 183.972 191.041 183.659C189.659 183.396 188.765 183.378 187.604 182.585C186.522 181.845 186.233 181.062 185.456 180.007C183.032 176.713 182.123 174.397 180.515 170.555C178.456 165.634 177.805 162.661 176.649 157.452C176.167 155.284 176.055 154.036 175.575 151.867C174.633 147.615 175.059 146.682 172.997 142.845C171.801 140.621 169.795 138.189 168.808 135.864C167.857 133.623 168.272 131.927 167.197 129.742C165.809 126.921 165.909 129.742 162.686 123.298C159.797 117.519 156.242 115.135 154.524 108.906C154.226 107.827 154.111 107.209 153.879 106.114C153.597 104.778 153.5 104.016 153.235 102.677C152.5 98.9637 152.161 94.729 151.087 93.2253C150.67 93.1813 150.432 93.2041 150.013 93.2253C146.576 93.4 149.426 106.089 146.146 113.417C145.534 114.787 144.83 115.408 144.428 116.854C143.867 118.875 144.869 120.174 144.428 122.224C143.939 124.498 143.385 125.846 141.85 127.594C140.499 129.133 139.501 129.966 137.554 130.602C135.481 131.278 134.14 130.812 131.969 130.602C130.102 130.42 128.865 130.686 127.244 129.742C125.859 128.936 125.064 128.216 124.451 126.735C123.777 125.108 124.641 123.976 124.451 122.224C124.276 120.605 123.85 119.751 123.592 118.143C123.364 116.725 122.968 115.914 123.162 114.491C123.306 113.44 123.774 112.945 124.021 111.913C124.395 110.355 124.416 109.434 124.451 107.832C124.495 105.812 123.922 104.695 124.021 102.677C124.084 101.409 124.287 100.714 124.451 99.4547C124.899 96.0189 124.552 93.9732 125.525 90.6477C125.875 89.4507 126.061 88.7655 126.599 87.6404C127.151 86.4851 127.607 85.9132 128.318 84.8479C129.183 83.5498 129.826 82.9316 130.68 81.6258C132.529 78.8004 132.761 76.7585 134.547 73.8928C135.408 72.5104 135.85 71.693 136.91 70.4559C138.734 68.3266 139.773 66.6176 142.495 65.945C142.99 65.8226 143.407 66.0751 143.784 65.7302C144.221 65.3293 143.684 64.725 143.845 64.1541Z" fill="url(#paint16_linear_187_1233)"/>
<path d="M211.261 97.8979C210.667 97.0188 210.047 96.7712 209.301 96.0183C203.238 89.9065 202.565 84.3344 197.271 77.545C195.805 75.6645 194.759 74.7818 193.405 72.8193C192.784 71.9192 192.76 70.4565 192.76 70.4565C192.76 70.4565 190.61 69.9969 189.538 69.1676C187.14 67.3128 188.034 61.6494 187.605 61.6494C183.037 61.6498 188.278 68.7573 189.109 73.2489C189.609 75.9509 189.811 77.4944 190.612 80.1227C192.047 84.8247 193.302 87.3865 195.983 91.5074C199.059 96.2378 200.715 99.5099 205.649 102.248C209.779 104.539 219.546 106.148 217.423 105.013C215.3 103.879 213.613 103.552 212.362 101.496C211.598 100.241 212.083 99.1158 211.261 97.8979Z" fill="url(#paint17_linear_187_1233)"/>
<path d="M192.759 70.4565C196.84 69.5972 197.143 70.665 200.492 70.4565C203.841 70.248 196.851 69.6056 194.907 68.3084C193.476 67.3529 192.828 66.5877 191.685 65.3011C190.448 63.9088 187.604 61.6494 187.604 61.6494C187.604 61.6494 187.516 64.0542 187.819 65.3011C188.17 66.7455 188.018 67.8617 189.108 68.9528C190.143 69.9892 192.759 70.4565 192.759 70.4565Z" fill="url(#paint18_linear_187_1233)"/>
<path d="M198.559 129.742C206.292 131.246 208.655 131.246 212.737 133.609C213.52 135.231 213.782 136.32 213.703 138.12C213.605 140.361 212.243 141.323 211.663 143.49C210.489 147.872 209.515 149.719 210.159 155.089C210.358 156.748 211.921 157.625 213.059 158.848C214.197 160.071 214.643 157.973 214.67 157.023C214.698 156.04 213.545 155.943 213.059 155.089C212.052 153.321 212.167 151.964 212.307 149.934C212.491 147.26 213.819 146.032 214.67 143.49C215.698 140.419 217.574 138.735 217.033 135.542C216.592 132.946 215.584 131.469 213.596 129.742C211.132 127.603 208.909 127.05 205.648 127.165C202.704 127.268 199.203 128.239 198.559 129.742Z" fill="#B26F34"/>
<path d="M166.111 79.6932L166.97 79.0488C166.97 79.0488 167.268 82.4527 167.185 84.6338C167.101 86.8277 167.163 88.1132 166.54 90.2187C165.721 92.9926 164.028 94.0039 162.889 96.6628C162.189 98.2968 161.385 100.959 161.385 100.959C161.385 100.959 160.041 95.2895 160.741 93.6556C161.88 90.9967 163.572 89.9853 164.392 87.2114C165.015 85.106 164.953 83.8204 165.037 81.6265C166.111 79.6932 166.111 79.6932 166.111 79.6932Z" fill="#D18643"/>
<path d="M143.784 65.7305C143.407 66.0753 142.99 65.8229 142.495 65.9453C139.773 66.6179 138.734 68.3269 136.91 70.4562C135.85 71.6932 135.408 72.5107 134.547 73.8931C132.761 76.7587 132.529 78.8007 130.68 81.6261C129.826 82.9318 129.183 83.55 128.318 84.8482C127.607 85.9135 127.151 86.4854 126.599 87.6406C126.061 88.7657 125.875 89.451 125.525 90.6479C124.552 93.9735 124.899 96.0192 124.451 99.455C124.287 100.714 124.084 101.409 124.021 102.677C123.922 104.695 124.495 105.813 124.451 107.832C124.416 109.435 124.395 110.355 124.021 111.914C123.774 112.946 123.306 113.44 123.162 114.491C122.968 115.914 123.364 116.725 123.592 118.143C123.85 119.751 124.276 120.605 124.451 122.224C124.641 123.976 123.777 125.108 124.451 126.735C125.064 128.216 125.859 128.936 127.244 129.743C128.865 130.686 130.102 130.421 131.969 130.602C133.836 130.783 132.276 122.054 133.043 116.639C134.008 109.829 135.035 106.073 136.91 99.455C138.746 92.9719 139.903 89.3494 142.495 83.1297C145.424 76.1 158.332 68.6585 151.302 65.7305H143.784Z" fill="#E5A064"/>
<path d="M191.041 183.659C192.691 183.972 195.337 183.874 195.337 183.874C199.61 182.407 192.617 177.367 191.041 173.133C189.615 169.305 188.78 167.165 187.604 163.252C186.655 160.095 186.966 158.02 185.456 155.09C184.249 152.748 182.609 152.046 181.375 149.719C179.208 145.636 179.439 142.723 179.012 138.12C178.648 134.194 179.012 131.967 179.012 128.024C179.012 124.92 179.28 123.168 179.012 120.076C178.784 117.452 179.677 115.395 177.938 113.417C176.548 111.837 175.098 97.8989 172.997 97.7823C170.586 97.6486 169.142 98.4976 167.197 99.9304C163.783 102.447 159.464 116.854 162.687 123.298C165.909 129.742 165.809 126.921 167.197 129.742C168.272 131.927 167.857 133.623 168.809 135.864C169.795 138.189 171.801 140.621 172.997 142.846C175.06 146.682 174.633 147.615 175.575 151.867C176.055 154.036 176.168 155.284 176.649 157.452L176.682 157.603C177.818 162.719 178.476 165.682 180.515 170.556C182.123 174.398 182.956 176.676 185.456 180.007C186.243 181.055 186.522 181.845 187.604 182.585C188.765 183.379 189.659 183.396 191.041 183.659Z" fill="#E5A064"/>
<path d="M168.221 64.8822L168.952 64.4307C168.952 64.4307 172.805 69.3292 174.969 72.6777C179.008 78.9293 179.969 83.1714 183.562 89.6896C185.507 93.2178 186.778 95.0939 188.718 98.6251C191.564 103.808 193.903 106.449 195.592 112.115C197.109 117.204 197.311 125.604 197.311 125.604L196.58 126.056C196.58 126.056 196.378 117.656 194.861 112.566C193.172 106.9 190.833 104.259 187.987 99.0767C186.047 95.5454 184.776 93.6693 182.831 90.1411C179.238 83.6229 178.277 79.3809 174.238 73.1293C172.074 69.7807 168.221 64.8822 168.221 64.8822Z" fill="url(#paint19_linear_187_1233)"/>
<path d="M180.515 50.2643C180.515 50.2643 181.163 50.6736 181.589 50.8228C182.449 51.1235 182.415 50.9937 182.878 50.9086C183.738 50.6939 184.117 49.9816 185.026 49.6198C185.594 49.3939 185.932 49.3152 186.53 49.1902C187.601 48.9663 188.231 49.0458 189.322 48.9754C191.333 48.8457 192.465 48.8509 194.478 48.7606C196.24 48.6816 197.228 48.6476 198.989 48.5458C201.34 48.4099 202.653 48.2656 205.003 48.1162C206.429 48.0255 208.655 47.9014 208.655 47.9014C209.046 48.3064 209.13 48.6535 209.299 49.1902C209.978 51.3445 208.766 52.9812 207.151 54.5603C205.33 56.3412 203.452 56.2022 200.922 56.4936C197.645 56.8709 195.826 55.7559 192.545 55.4195C186.61 54.8112 177.293 54.5603 177.293 54.5603L179.227 52.4123L180.515 50.2643Z" fill="#E49046"/>
<path d="M143.999 65.301C143.999 65.301 157.223 66.0295 164.942 62.9382C172.371 59.9626 180.644 50.2646 180.644 50.2646C180.836 50.4157 180.949 50.494 181.159 50.6212C181.159 50.6212 172.786 60.4765 165.479 63.5826C157.559 66.9496 143.783 65.7306 143.783 65.7306C143.936 65.5882 143.968 65.4912 143.999 65.301Z" fill="url(#paint20_linear_187_1233)"/>
<path d="M143.999 65.301C143.999 65.301 157.223 66.0295 164.942 62.9382C172.371 59.9626 180.644 50.2646 180.644 50.2646C180.836 50.4157 180.949 50.494 181.159 50.6212C181.159 50.6212 172.786 60.4765 165.479 63.5826C157.559 66.9496 143.783 65.7306 143.783 65.7306C143.936 65.5882 143.968 65.4912 143.999 65.301Z" fill="url(#paint21_linear_187_1233)"/>
<path d="M149.369 79.0488H149.799C149.799 79.0488 151.674 83.6695 151.732 86.7818C151.779 89.3228 150.658 93.2002 150.658 93.2002C150.241 93.2142 150.411 93.2131 150.228 93.2131C150.228 93.2131 151.383 89.1949 151.302 86.567C151.209 83.5369 149.369 79.0488 149.369 79.0488Z" fill="url(#paint22_linear_187_1233)"/>
<path d="M116.928 24.5299C117.524 21.7178 118.217 20.1734 119.684 17.6561C121.067 15.2841 122.115 14.0774 124.049 12.0712C126.78 9.23936 128.624 7.85092 132.09 5.84179C135.435 3.90294 137.533 3.10174 141.279 1.97529C145.366 0.746357 147.787 0.202341 152.077 0.0420373C155.494 -0.0856534 157.452 0.0632681 160.807 0.686454C162.813 1.05926 163.975 1.23391 165.861 1.97529C167.676 2.68907 168.654 3.22814 170.226 4.33815C174.237 7.17129 175.335 10.0121 177.577 14.2192C178.744 16.4081 179.259 17.7044 180.104 20.019C180.976 22.4072 181.516 23.7564 181.942 26.2483C182.551 29.8102 182.947 32.0024 181.942 35.485C181.127 38.3104 180.074 39.7549 178.266 42.1439C176.652 44.2768 175.573 45.395 173.442 47.0845C170.801 49.1777 168.906 49.8408 165.861 51.3806C162.118 53.273 160.032 54.4578 155.982 55.6767C150.124 57.4397 146.366 58.8666 140.36 57.61C137.222 56.9532 135.504 56.2 132.779 54.6027C130.619 53.336 129.555 52.3968 127.725 50.7362C123.848 47.2183 121.865 44.8323 119.684 40.2107C117.006 34.5327 115.636 30.6172 116.928 24.5299Z" fill="url(#paint23_linear_187_1233)"/>
<path d="M120.762 37.418L131.287 54.6025C131.287 54.6025 128.12 54.7593 126.347 53.958C124.346 53.0539 123.553 51.8697 122.266 50.0915C121.011 48.3594 120.436 47.2221 119.903 45.151C119.212 42.4703 120.762 37.418 120.762 37.418Z" fill="#B7B6B2"/>
<path d="M175.575 15.6807C175.575 15.6807 179.948 17.2109 181.123 18.0856C182.123 18.8302 182.58 19.4103 183.271 20.4484C184.359 22.0832 184.703 23.2314 184.989 25.1742C185.197 26.585 185.197 27.415 184.989 28.8258C184.703 30.7686 181.123 36.7316 181.123 36.7316L175.575 15.6807Z" fill="#B7B7C3"/>
<g filter="url(#filter1_f_187_1233)">
<path d="M179.834 20.0491L180.788 19.374C180.788 19.374 181.723 20.8531 182.22 21.8494C182.898 23.2082 183.208 24.0076 183.651 25.45C183.865 26.146 184.237 26.5328 184.128 27.2502C184.022 27.9517 183.174 28.8255 183.174 28.8255C183.174 28.8255 182.689 26.605 182.22 25.2249C181.506 23.1262 179.834 20.0491 179.834 20.0491Z" fill="#62635E" fill-opacity="0.5"/>
</g>
<path d="M120.332 27.9664C120.89 25.1543 121.538 23.61 122.91 21.0926C124.203 18.7207 125.182 17.5139 126.991 15.5077C129.545 12.6759 131.269 11.2874 134.51 9.27831C137.637 7.33946 139.599 6.53826 143.102 5.41181C146.923 4.18288 149.187 3.63886 153.198 3.47856C156.393 3.35087 158.224 3.49979 161.36 4.12298C163.237 4.49579 164.323 4.67043 166.086 5.41181C167.784 6.12559 168.698 6.66467 170.167 7.77467C173.918 10.6078 174.944 13.4486 177.041 17.6557C178.132 19.8446 178.614 21.1409 179.404 23.4555C180.219 25.8438 180.724 27.1929 181.122 29.6848C181.692 33.2468 182.062 35.4389 181.122 38.9215C180.36 41.7469 179.376 43.1915 177.686 45.5805C176.177 47.7133 175.168 48.8315 173.175 50.521C170.706 52.6142 168.933 53.2773 166.086 54.8171C162.587 56.7095 160.636 57.8944 156.849 59.1132C151.372 60.8762 147.858 62.3032 142.243 61.0465C139.308 60.3897 137.702 59.6365 135.154 58.0392C133.134 56.7725 132.14 55.8333 130.428 54.1727C126.803 50.6548 124.949 48.2689 122.91 43.6472C120.405 37.9692 119.125 34.0537 120.332 27.9664Z" fill="url(#paint24_linear_187_1233)"/>
<path d="M128.495 31.8336C130.429 28.6116 131.19 27.5069 133.436 25.1747C136.008 22.5039 137.78 21.2913 140.954 19.3749C144.039 17.5127 145.945 16.7398 149.332 15.5084C154.057 13.79 156.42 13.3603 160.287 13.3604C163.019 13.3604 164.85 15.061 166.516 17.2268C168.664 20.0193 169.15 20.6591 170.812 23.8858C172.139 26.4617 173.605 30.7596 173.605 30.7596C173.605 30.7596 174.614 34.4108 173.605 36.3445C171.027 41.2851 166.453 45.239 160.287 48.8033C153.852 52.5228 151.909 53.9586 142.028 53.529C137.302 52.455 130.079 45.4933 128.495 37.2038C128.164 35.4656 127.585 33.351 128.495 31.8336Z" fill="url(#paint25_linear_187_1233)"/>
<path d="M137.732 21.3081C140.843 18.989 142.972 17.8978 146.539 16.3676C150.002 14.8818 152.036 14.0375 155.775 13.5751C157.11 13.4101 159.212 13.3604 159.212 13.3604C159.212 13.3604 151.222 21.7249 148.472 28.3967C145.439 35.7566 145.68 48.5885 145.68 48.5885L136.658 49.4477C136.658 49.4477 128.666 35.7304 129.999 30.1152C130.428 28.3054 131.646 26.9191 133.221 25.1746C134.77 23.4591 135.879 22.6893 137.732 21.3081Z" fill="url(#paint26_linear_187_1233)"/>
<path fill-rule="evenodd" clip-rule="evenodd" d="M132.779 24.8198C130.449 27.2516 129.659 28.4035 127.654 31.7631C126.814 33.1702 127.196 35.0697 127.533 36.7476C127.575 36.9565 127.616 37.162 127.654 37.3626C129.296 46.0061 136.79 53.2651 141.692 54.3849C151.454 54.8117 153.746 53.4739 159.709 49.9949L160.632 49.4574C167.028 45.741 171.773 41.6182 174.447 36.4667C175.493 34.4504 174.447 30.6432 174.447 30.6432C174.447 30.6432 172.926 26.1618 171.55 23.4759C169.826 20.1114 169.322 19.4443 167.094 16.5326C165.366 14.2742 163.466 12.501 160.632 12.501C156.621 12.501 154.17 12.9489 149.268 14.7407C145.755 16.0247 143.778 16.8306 140.578 18.7724C137.285 20.7706 135.448 22.035 132.779 24.8198ZM133.435 25.1745C131.189 27.5067 130.428 28.6114 128.495 31.8335C127.686 33.1826 128.053 35.0038 128.378 36.6127C128.418 36.8134 128.458 37.0109 128.495 37.2037C130.078 45.4931 137.302 52.4549 142.028 53.5289C151.438 53.9381 153.649 52.6552 159.397 49.3186C159.684 49.1519 159.98 48.9801 160.286 48.8031C166.452 45.2389 171.026 41.2849 173.604 36.3444C174.613 34.4107 173.604 30.7594 173.604 30.7594C173.604 30.7594 172.138 26.4616 170.812 23.8856C169.15 20.6589 168.664 20.0192 166.515 17.2267C164.849 15.0608 163.019 13.3602 160.286 13.3602C156.42 13.3602 154.057 13.7898 149.331 15.5082C145.945 16.7396 144.039 17.5125 140.954 19.3747C137.779 21.2911 136.008 22.5038 133.435 25.1745Z" fill="url(#paint27_linear_187_1233)"/>
<path d="M225.598 134.053C227.405 132.35 229.424 128.884 229.424 128.884C229.424 128.884 228.999 130.228 228.659 131.06C227.874 132.982 227.165 133.878 225.598 135.142C224.037 136.401 221.261 137.046 221.261 137.046C221.261 137.046 224.086 135.478 225.598 134.053Z" fill="#AC7341"/>
<ellipse rx="4.27281" ry="4.26958" transform="matrix(0.777144 -0.629323 0.629318 0.777148 178.758 65.5803)" fill="#59C7EA"/>
<path d="M176.144 68.9471L176.474 67.4562L177.15 67.455L177.512 66.4855L178.333 66.3412L177.428 65.642L180.596 65.6283L178.806 64.9947L178.021 63.1567L180.04 63.5265L180.347 62.9397L182.397 63.284L183.048 64.3452L183.298 65.5227L182.471 68.0411L180.867 69.4705L178.878 70.0394L176.627 69.5447L176.144 68.9471Z" fill="#DBDBDB"/>
<path fill-rule="evenodd" clip-rule="evenodd" d="M180.663 65.6258L178.271 65.6472L177.559 65.6663L178.415 66.3316L177.802 66.6191L177.337 67.65L176.572 67.7546L176.112 69.1021L176.218 67.0016L177.034 67.2762L177.125 65.3085L178.12 65.4611L178.085 64.5311L177.728 62.7428L178.628 62.8858L179.815 63.3479L179.926 62.6339C181.521 63.0166 182.345 63.2333 182.397 63.2842C182.45 63.335 181.784 63.2813 180.399 63.1231L181.184 64.2667L179.645 63.9771L178.24 63.3739L178.617 64.3179L180.042 64.6315L178.909 65.0262L180.663 65.6258Z" fill="white"/>
<path fill-rule="evenodd" clip-rule="evenodd" d="M176.986 65.2207C176.986 65.2207 176.4 65.3339 176.149 65.5822C175.898 65.8305 175.762 65.941 175.762 65.941C175.762 65.941 176.087 66.1747 176.383 66.2057C176.678 66.1969 176.652 66.2587 176.652 66.2587C175.908 69.7507 178.408 71.3576 181.43 68.9108C181.43 68.9108 180.252 68.6147 179.723 68.3131C179.059 67.9142 179.307 67.1503 179.307 67.1503C179.307 67.1503 179.733 66.7805 180.601 66.8587C181.016 66.896 181.356 66.6673 181.38 66.6291C181.44 66.5356 181.318 66.2732 181.318 66.2732C181.318 66.2732 181.471 66.2394 181.524 65.9704C181.578 65.7015 181.422 65.2858 181.422 65.2858C181.422 65.2858 180.7 65.1935 180.431 65.1404C180.162 65.0873 179.753 64.9955 179.5 64.7943C179.247 64.593 178.414 64.349 178.414 64.349C176.366 63.4297 175.278 64.4671 174.933 65.518C174.783 66.0362 174.825 66.8054 175.825 67.145C175.254 66.5326 175.23 66.1487 175.276 65.9105C175.434 65.1079 176.311 64.5943 176.986 65.2207Z" fill="#BC0624"/>
<g filter="url(#filter2_i_187_1233)">
<path d="M174.934 65.5178C175.238 64.4666 176.308 63.6856 177.676 64.0878C177.676 64.0878 177.171 64.3468 177.044 64.6521C176.958 64.8579 176.986 65.2204 176.986 65.2204C176.312 64.594 175.434 65.1077 175.277 65.9102C175.23 66.1484 175.255 66.5324 175.826 67.1448C174.825 66.8052 174.784 66.036 174.934 65.5178Z" fill="#7B5C46"/>
<path d="M174.934 65.5178C175.238 64.4666 176.308 63.6856 177.676 64.0878C177.676 64.0878 177.171 64.3468 177.044 64.6521C176.958 64.8579 176.986 65.2204 176.986 65.2204C176.312 64.594 175.434 65.1077 175.277 65.9102C175.23 66.1484 175.255 66.5324 175.826 67.1448C174.825 66.8052 174.784 66.036 174.934 65.5178Z" fill="url(#paint28_linear_187_1233)"/>
</g>
<path d="M181.187 65.5214C181.169 65.4995 181.165 65.4694 181.177 65.4438L181.221 65.3474C181.229 65.3301 181.24 65.3148 181.255 65.3029C181.281 65.282 181.314 65.2724 181.347 65.2765L181.421 65.2856L181.449 65.328C181.456 65.3392 181.462 65.3513 181.466 65.364C181.495 65.4572 181.424 65.5514 181.327 65.55L181.243 65.5489C181.221 65.5486 181.201 65.5385 181.187 65.5214Z" fill="#1C1C21"/>
<mask id="mask0_187_1233" style="mask-type:alpha" maskUnits="userSpaceOnUse" x="174" y="63" width="4" height="5">
<path d="M174.933 65.5177C175.237 64.4665 176.307 63.6857 177.675 64.0879L176.985 65.2203C176.311 64.5939 175.433 65.1076 175.276 65.9102C175.229 66.1484 175.254 66.5323 175.825 67.1447C174.824 66.8051 174.783 66.0359 174.933 65.5177Z" fill="#7B5C46"/>
<path d="M174.933 65.5177C175.237 64.4665 176.307 63.6857 177.675 64.0879L176.985 65.2203C176.311 64.5939 175.433 65.1076 175.276 65.9102C175.229 66.1484 175.254 66.5323 175.825 67.1447C174.824 66.8051 174.783 66.0359 174.933 65.5177Z" fill="url(#paint29_linear_187_1233)"/>
</mask>
<g mask="url(#mask0_187_1233)">
<path d="M177.115 63.9686C176.783 64.4822 176.667 64.7342 176.756 65.0524" stroke="#DBD6D5" stroke-width="0.1" stroke-miterlimit="2.6131"/>
<path d="M177.115 63.9686C176.783 64.4822 176.667 64.7342 176.756 65.0524" stroke="url(#paint30_linear_187_1233)" stroke-width="0.1" stroke-miterlimit="2.6131"/>
<path d="M176.476 64.0169C176.402 64.3671 176.306 64.6086 176.443 64.9539" stroke="#DBD6D5" stroke-width="0.1" stroke-miterlimit="2.6131"/>
<path d="M176.476 64.0169C176.402 64.3671 176.306 64.6086 176.443 64.9539" stroke="url(#paint31_linear_187_1233)" stroke-width="0.1" stroke-miterlimit="2.6131"/>
<path d="M175.808 64.3106C175.852 64.605 175.916 64.7468 176.112 64.981" stroke="#DBD6D5" stroke-width="0.1" stroke-miterlimit="2.6131"/>
<path d="M175.808 64.3106C175.852 64.605 175.916 64.7468 176.112 64.981" stroke="url(#paint32_linear_187_1233)" stroke-width="0.1" stroke-miterlimit="2.6131"/>
<path d="M175.4 64.6398C175.539 64.8841 175.61 64.9615 175.825 65.1242" stroke="#DBD6D5" stroke-width="0.1" stroke-miterlimit="2.6131"/>
<path d="M175.4 64.6398C175.539 64.8841 175.61 64.9615 175.825 65.1242" stroke="url(#paint33_linear_187_1233)" stroke-width="0.1" stroke-miterlimit="2.6131"/>
<path d="M175.164 64.9413C175.274 65.1533 175.37 65.2405 175.581 65.3474" stroke="#DBD6D5" stroke-width="0.1" stroke-miterlimit="2.6131"/>
<path d="M175.164 64.9413C175.274 65.1533 175.37 65.2405 175.581 65.3474" stroke="url(#paint34_linear_187_1233)" stroke-width="0.1" stroke-miterlimit="2.6131"/>
<path d="M174.953 65.3404C174.916 65.4148 175.421 65.7394 175.38 65.63" stroke="#DBD6D5" stroke-width="0.1" stroke-miterlimit="2.6131"/>
<path d="M174.953 65.3404C174.916 65.4148 175.421 65.7394 175.38 65.63" stroke="url(#paint35_linear_187_1233)" stroke-width="0.1" stroke-miterlimit="2.6131"/>
<path d="M174.84 65.7988C175.002 65.9075 175.102 65.9461 175.291 65.9642" stroke="#DBD6D5" stroke-width="0.1" stroke-miterlimit="2.6131"/>
<path d="M174.84 65.7988C175.002 65.9075 175.102 65.9461 175.291 65.9642" stroke="url(#paint36_linear_187_1233)" stroke-width="0.1" stroke-miterlimit="2.6131"/>
</g>
<path d="M181.43 68.9116C178.347 69.5329 177.837 67.2209 177.967 65.9872C177.913 66.4997 178.297 66.9525 178.511 67.1092C178.699 67.2901 179.106 67.249 179.293 67.2015C179.184 67.6834 179.446 68.0706 179.605 68.2024C179.823 68.3836 181.43 68.9116 181.43 68.9116Z" fill="#8F0018"/>
<g filter="url(#filter3_i_187_1233)">
<path fill-rule="evenodd" clip-rule="evenodd" d="M179.301 65.355C179.301 65.355 179.089 65.2594 178.996 65.3183C178.903 65.377 178.905 65.4425 178.838 65.4982C178.77 65.5537 178.719 65.5602 178.719 65.5602C178.719 65.5602 178.886 65.6425 179.027 65.5871C179.168 65.5318 179.274 65.4337 179.274 65.4337L179.301 65.355Z" fill="#A4001B"/>
</g>
<g filter="url(#filter4_i_187_1233)">
<path fill-rule="evenodd" clip-rule="evenodd" d="M180.547 66.4175C180.547 66.4175 180.572 66.3516 180.841 66.3067C181.11 66.2618 181.317 66.2738 181.317 66.2738" fill="#AD0420"/>
</g>
<path d="M176.652 66.2603C176.823 66.3135 176.947 66.296 177.084 66.2495C176.92 66.3621 176.77 66.4087 176.63 66.3675C176.636 66.3376 176.645 66.2905 176.652 66.2603Z" fill="url(#paint37_linear_187_1233)" fill-opacity="0.3"/>
<g filter="url(#filter5_i_187_1233)">
<path d="M175.977 66.0712C175.977 66.0712 176.027 66.0943 176.19 65.9133C176.353 65.7324 176.496 65.6 176.75 65.5851C176.778 65.5835 177.206 65.6911 177.219 65.3303C177.255 65.3664 177.125 65.7844 177.297 66.0615C177.027 66.4362 176.652 66.2604 176.652 66.2604C176.652 66.2604 176.607 66.2125 176.383 66.207C176.16 66.2015 175.977 66.0712 175.977 66.0712Z" fill="#AD0420"/>
</g>
<g filter="url(#filter6_i_187_1233)">
<path d="M178.956 65.4324C179.039 65.3063 179.184 65.3666 179.184 65.3666C179.143 65.3459 179.011 65.4177 179.036 65.4775C179.054 65.52 179.171 65.4321 179.178 65.4234C179.173 65.4311 179.057 65.5485 178.995 65.5599C178.934 65.5714 178.819 65.5581 178.819 65.5581C178.874 65.5531 178.941 65.454 178.956 65.4324Z" fill="#810016"/>
</g>
<path fill-rule="evenodd" clip-rule="evenodd" d="M181.7 69.2129C183.708 67.5871 184.019 64.6427 182.394 62.6365C180.769 60.6303 177.825 60.3219 175.817 61.9478C173.809 63.5736 173.499 66.518 175.123 68.5242C176.748 70.5304 179.692 70.8388 181.7 69.2129ZM181.446 68.8984C183.279 67.4133 183.563 64.7239 182.079 62.8914C180.595 61.0589 177.906 60.7772 176.072 62.2623C174.238 63.7473 173.954 66.4368 175.438 68.2693C176.922 70.1018 179.612 70.3835 181.446 68.8984Z" fill="#BC0624"/>
<path fill-rule="evenodd" clip-rule="evenodd" d="M181.7 69.2129C183.708 67.5871 184.019 64.6427 182.394 62.6365C180.769 60.6303 177.825 60.3219 175.817 61.9478C173.809 63.5736 173.499 66.518 175.123 68.5242C176.748 70.5304 179.692 70.8388 181.7 69.2129ZM181.446 68.8984C183.279 67.4133 183.563 64.7239 182.079 62.8914C180.595 61.0589 177.906 60.7772 176.072 62.2623C174.238 63.7473 173.954 66.4368 175.438 68.2693C176.922 70.1018 179.612 70.3835 181.446 68.8984Z" fill="url(#paint38_linear_187_1233)"/>
<g filter="url(#filter7_d_187_1233)">
<path d="M338.744 277.229V244.412H267.713L260.745 226.654L311.77 110.442H351.332L306.825 211.369H338.744V183.046L346.162 162.591H377.631V211.369H392.691V238.342L377.631 244.412V277.229H338.744Z" fill="#5A8CDC"/>
</g>
<defs>
<filter id="filter0_d_187_1233" x="94.9464" y="109.889" width="187.827" height="180.561" filterUnits="userSpaceOnUse" color-interpolation-filters="sRGB">
<feFlood flood-opacity="0" result="BackgroundImageFix"/>
<feColorMatrix in="SourceAlpha" type="matrix" values="0 0 0 0 0 0 0 0 0 0 0 0 0 0 0 0 0 0 127 0" result="hardAlpha"/>
<feOffset dx="-7"/>
<feGaussianBlur stdDeviation="2"/>
<feColorMatrix type="matrix" values="0 0 0 0 0 0 0 0 0 0 0 0 0 0 0 0 0 0 0.4 0"/>
<feBlend mode="normal" in2="BackgroundImageFix" result="effect1_dropShadow_187_1233"/>
<feBlend mode="normal" in="SourceGraphic" in2="effect1_dropShadow_187_1233" result="shape"/>
</filter>
<filter id="filter1_f_187_1233" x="175.834" y="15.374" width="12.3136" height="17.4512" filterUnits="userSpaceOnUse" color-interpolation-filters="sRGB">
<feFlood flood-opacity="0" result="BackgroundImageFix"/>
<feBlend mode="normal" in="SourceGraphic" in2="BackgroundImageFix" result="shape"/>
<feGaussianBlur stdDeviation="2" result="effect1_foregroundBlur_187_1233"/>
</filter>
<filter id="filter2_i_187_1233" x="174.869" y="63.9805" width="2.80693" height="7.16406" filterUnits="userSpaceOnUse" color-interpolation-filters="sRGB">
<feFlood flood-opacity="0" result="BackgroundImageFix"/>
<feBlend mode="normal" in="SourceGraphic" in2="BackgroundImageFix" result="shape"/>
<feColorMatrix in="SourceAlpha" type="matrix" values="0 0 0 0 0 0 0 0 0 0 0 0 0 0 0 0 0 0 127 0" result="hardAlpha"/>
<feOffset dy="4"/>
<feGaussianBlur stdDeviation="2"/>
<feComposite in2="hardAlpha" operator="arithmetic" k2="-1" k3="1"/>
<feColorMatrix type="matrix" values="0 0 0 0 0 0 0 0 0 0 0 0 0 0 0 0 0 0 0.35 0"/>
<feBlend mode="normal" in2="shape" result="effect1_innerShadow_187_1233"/>
</filter>
<filter id="filter3_i_187_1233" x="178.719" y="65.2988" width="0.581268" height="0.807617" filterUnits="userSpaceOnUse" color-interpolation-filters="sRGB">
<feFlood flood-opacity="0" result="BackgroundImageFix"/>
<feBlend mode="normal" in="SourceGraphic" in2="BackgroundImageFix" result="shape"/>
<feColorMatrix in="SourceAlpha" type="matrix" values="0 0 0 0 0 0 0 0 0 0 0 0 0 0 0 0 0 0 127 0" result="hardAlpha"/>
<feOffset dy="0.5"/>
<feGaussianBlur stdDeviation="0.25"/>
<feComposite in2="hardAlpha" operator="arithmetic" k2="-1" k3="1"/>
<feColorMatrix type="matrix" values="0 0 0 0 0 0 0 0 0 0 0 0 0 0 0 0 0 0 0.05 0"/>
<feBlend mode="normal" in2="shape" result="effect1_innerShadow_187_1233"/>
</filter>
<filter id="filter4_i_187_1233" x="180.547" y="66.2725" width="0.769218" height="0.244531" filterUnits="userSpaceOnUse" color-interpolation-filters="sRGB">
<feFlood flood-opacity="0" result="BackgroundImageFix"/>
<feBlend mode="normal" in="SourceGraphic" in2="BackgroundImageFix" result="shape"/>
<feColorMatrix in="SourceAlpha" type="matrix" values="0 0 0 0 0 0 0 0 0 0 0 0 0 0 0 0 0 0 127 0" result="hardAlpha"/>
<feOffset dy="0.1"/>
<feGaussianBlur stdDeviation="0.05"/>
<feComposite in2="hardAlpha" operator="arithmetic" k2="-1" k3="1"/>
<feColorMatrix type="matrix" values="0 0 0 0 0 0 0 0 0 0 0 0 0 0 0 0 0 0 0.25 0"/>
<feBlend mode="normal" in2="shape" result="effect1_innerShadow_187_1233"/>
</filter>
<filter id="filter5_i_187_1233" x="175.977" y="65.3301" width="1.32002" height="1.47168" filterUnits="userSpaceOnUse" color-interpolation-filters="sRGB">
<feFlood flood-opacity="0" result="BackgroundImageFix"/>
<feBlend mode="normal" in="SourceGraphic" in2="BackgroundImageFix" result="shape"/>
<feColorMatrix in="SourceAlpha" type="matrix" values="0 0 0 0 0 0 0 0 0 0 0 0 0 0 0 0 0 0 127 0" result="hardAlpha"/>
<feOffset dy="0.5"/>
<feGaussianBlur stdDeviation="0.75"/>
<feComposite in2="hardAlpha" operator="arithmetic" k2="-1" k3="1"/>
<feColorMatrix type="matrix" values="0 0 0 0 0 0 0 0 0 0 0 0 0 0 0 0 0 0 0.04 0"/>
<feBlend mode="normal" in2="shape" result="effect1_innerShadow_187_1233"/>
</filter>
<filter id="filter6_i_187_1233" x="178.819" y="65.3525" width="0.365051" height="0.311914" filterUnits="userSpaceOnUse" color-interpolation-filters="sRGB">
<feFlood flood-opacity="0" result="BackgroundImageFix"/>
<feBlend mode="normal" in="SourceGraphic" in2="BackgroundImageFix" result="shape"/>
<feColorMatrix in="SourceAlpha" type="matrix" values="0 0 0 0 0 0 0 0 0 0 0 0 0 0 0 0 0 0 127 0" result="hardAlpha"/>
<feOffset dy="0.1"/>
<feGaussianBlur stdDeviation="0.05"/>
<feComposite in2="hardAlpha" operator="arithmetic" k2="-1" k3="1"/>
<feColorMatrix type="matrix" values="0 0 0 0 0 0 0 0 0 0 0 0 0 0 0 0 0 0 0.25 0"/>
<feBlend mode="normal" in2="shape" result="effect1_innerShadow_187_1233"/>
</filter>
<filter id="filter7_d_187_1233" x="249.745" y="106.442" width="142.946" height="174.787" filterUnits="userSpaceOnUse" color-interpolation-filters="sRGB">
<feFlood flood-opacity="0" result="BackgroundImageFix"/>
<feColorMatrix in="SourceAlpha" type="matrix" values="0 0 0 0 0 0 0 0 0 0 0 0 0 0 0 0 0 0 127 0" result="hardAlpha"/>
<feOffset dx="-7"/>
<feGaussianBlur stdDeviation="2"/>
<feColorMatrix type="matrix" values="0 0 0 0 0 0 0 0 0 0 0 0 0 0 0 0 0 0 0.4 0"/>
<feBlend mode="normal" in2="BackgroundImageFix" result="effect1_dropShadow_187_1233"/>
<feBlend mode="normal" in="SourceGraphic" in2="effect1_dropShadow_187_1233" result="shape"/>
</filter>
<linearGradient id="paint0_linear_187_1233" x1="161.926" y1="121.14" x2="231.062" y2="279.198" gradientUnits="userSpaceOnUse">
<stop stop-color="#5A8CDC"/>
<stop offset="0.0001" stop-color="#41456D"/>
<stop offset="0.972655" stop-color="#5A8CDC"/>
<stop offset="1" stop-color="#280001"/>
</linearGradient>
<linearGradient id="paint1_linear_187_1233" x1="144.681" y1="168.111" x2="155.32" y2="192.427" gradientUnits="userSpaceOnUse">
<stop stop-color="#1F0406"/>
<stop offset="1" stop-color="#A8111A"/>
</linearGradient>
<linearGradient id="paint2_linear_187_1233" x1="236.385" y1="138.442" x2="240.976" y2="146.402" gradientUnits="userSpaceOnUse">
<stop stop-color="#190306"/>
<stop offset="1" stop-color="#E0131F"/>
</linearGradient>
<linearGradient id="paint3_linear_187_1233" x1="266.637" y1="206.731" x2="276.145" y2="210.041" gradientUnits="userSpaceOnUse">
<stop stop-color="#2E0508"/>
<stop offset="1" stop-color="#7D060D"/>
</linearGradient>
<linearGradient id="paint4_linear_187_1233" x1="186.748" y1="115.139" x2="187.362" y2="120.502" gradientUnits="userSpaceOnUse">
<stop stop-color="#420609"/>
<stop offset="1" stop-color="#DF131E"/>
</linearGradient>
<linearGradient id="paint5_linear_187_1233" x1="202.262" y1="236.234" x2="208.974" y2="271.182" gradientUnits="userSpaceOnUse">
<stop stop-color="#150305"/>
<stop offset="1" stop-color="#70090F"/>
</linearGradient>
<linearGradient id="paint6_linear_187_1233" x1="116.824" y1="243.304" x2="108.53" y2="211.786" gradientUnits="userSpaceOnUse">
<stop stop-color="#6F060A"/>
<stop offset="1" stop-color="#8C080E"/>
</linearGradient>
<linearGradient id="paint7_linear_187_1233" x1="119.713" y1="242.424" x2="110.908" y2="211.028" gradientUnits="userSpaceOnUse">
<stop stop-color="#6F060A"/>
<stop offset="1" stop-color="#8C080E"/>
</linearGradient>
<linearGradient id="paint8_linear_187_1233" x1="213.035" y1="283.388" x2="179.944" y2="285.069" gradientUnits="userSpaceOnUse">
<stop stop-color="#2A0001"/>
<stop offset="1" stop-color="#360103"/>
</linearGradient>
<linearGradient id="paint9_linear_187_1233" x1="213.176" y1="281.402" x2="179.966" y2="281.394" gradientUnits="userSpaceOnUse">
<stop stop-color="#2A0001"/>
<stop offset="1" stop-color="#360103"/>
</linearGradient>
<linearGradient id="paint10_linear_187_1233" x1="269.436" y1="248.28" x2="281.047" y2="223.397" gradientUnits="userSpaceOnUse">
<stop stop-color="#380103"/>
<stop offset="1" stop-color="#470205"/>
</linearGradient>
<linearGradient id="paint11_linear_187_1233" x1="267.012" y1="247.176" x2="278.526" y2="222.248" gradientUnits="userSpaceOnUse">
<stop stop-color="#380103"/>
<stop offset="1" stop-color="#470205"/>
</linearGradient>
<linearGradient id="paint12_linear_187_1233" x1="259.482" y1="137.14" x2="271.094" y2="152.069" gradientUnits="userSpaceOnUse">
<stop stop-color="#92090E"/>
<stop offset="1" stop-color="#82070C"/>
</linearGradient>
<linearGradient id="paint13_linear_187_1233" x1="258.156" y1="138.044" x2="269.385" y2="153.293" gradientUnits="userSpaceOnUse">
<stop stop-color="#92090E"/>
<stop offset="1" stop-color="#82070C"/>
</linearGradient>
<linearGradient id="paint14_linear_187_1233" x1="171.923" y1="47.687" x2="142.924" y2="63.5827" gradientUnits="userSpaceOnUse">
<stop stop-color="#778186"/>
<stop offset="1" stop-color="#474B4C"/>
</linearGradient>
<linearGradient id="paint15_linear_187_1233" x1="172.353" y1="48.9752" x2="144.428" y2="64.0116" gradientUnits="userSpaceOnUse">
<stop stop-color="#C1C1C1"/>
<stop offset="1" stop-color="#929292"/>
</linearGradient>
<linearGradient id="paint16_linear_187_1233" x1="201.351" y1="47.9013" x2="175.145" y2="188.169" gradientUnits="userSpaceOnUse">
<stop stop-color="#D4853F"/>
<stop offset="1" stop-color="#D79962"/>
</linearGradient>
<linearGradient id="paint17_linear_187_1233" x1="201.352" y1="47.9018" x2="175.145" y2="188.17" gradientUnits="userSpaceOnUse">
<stop stop-color="#A25D21"/>
<stop offset="1" stop-color="#D79962"/>
</linearGradient>
<linearGradient id="paint18_linear_187_1233" x1="201.352" y1="47.9018" x2="175.145" y2="188.17" gradientUnits="userSpaceOnUse">
<stop stop-color="#995316"/>
<stop offset="1" stop-color="#D79962"/>
</linearGradient>
<linearGradient id="paint19_linear_187_1233" x1="180.3" y1="90.0037" x2="184.167" y2="88.0704" gradientUnits="userSpaceOnUse">
<stop stop-color="#6A4222"/>
<stop offset="1" stop-color="#D58947"/>
</linearGradient>
<linearGradient id="paint20_linear_187_1233" x1="158.82" y1="61.4345" x2="160.109" y2="65.5158" gradientUnits="userSpaceOnUse">
<stop stop-color="#D48845"/>
<stop offset="1" stop-color="#4E3219"/>
</linearGradient>
<linearGradient id="paint21_linear_187_1233" x1="177.938" y1="52.1979" x2="180.73" y2="51.9831" gradientUnits="userSpaceOnUse">
<stop stop-color="#D48641" stop-opacity="0"/>
<stop offset="1" stop-color="#4E3219"/>
</linearGradient>
<linearGradient id="paint22_linear_187_1233" x1="149.584" y1="79.6932" x2="151.019" y2="93.2561" gradientUnits="userSpaceOnUse">
<stop stop-color="#D58A49"/>
<stop offset="1" stop-color="#281709"/>
</linearGradient>
<linearGradient id="paint23_linear_187_1233" x1="119.014" y1="21.051" x2="169.923" y2="29.2136" gradientUnits="userSpaceOnUse">
<stop stop-color="#9F9F9F"/>
<stop offset="1" stop-color="#787877"/>
</linearGradient>
<linearGradient id="paint24_linear_187_1233" x1="119.873" y1="28.7836" x2="159.182" y2="29.8576" gradientUnits="userSpaceOnUse">
<stop stop-color="#CBCBCB"/>
<stop offset="1" stop-color="#828380"/>
</linearGradient>
<linearGradient id="paint25_linear_187_1233" x1="129.355" y1="33.9817" x2="173.175" y2="35.0557" gradientUnits="userSpaceOnUse">
<stop stop-color="#1B0A5D"/>
<stop offset="0.390625" stop-color="#1B0A5D"/>
<stop offset="0.970597" stop-color="#010005"/>
</linearGradient>
<linearGradient id="paint26_linear_187_1233" x1="159.427" y1="15.7232" x2="136.228" y2="32.478" gradientUnits="userSpaceOnUse">
<stop stop-color="#FFF9FF" stop-opacity="0.36"/>
<stop offset="1" stop-color="#1B0A5D" stop-opacity="0"/>
</linearGradient>
<linearGradient id="paint27_linear_187_1233" x1="127.176" y1="33.5099" x2="174.863" y2="33.5099" gradientUnits="userSpaceOnUse">
<stop stop-color="#5B5C59"/>
<stop offset="1" stop-color="#3F403E"/>
</linearGradient>
<linearGradient id="paint28_linear_187_1233" x1="175.636" y1="64.445" x2="176.518" y2="65.5468" gradientUnits="userSpaceOnUse">
<stop stop-color="#A58C7A"/>
<stop offset="1" stop-color="#7B5C46" stop-opacity="0"/>
</linearGradient>
<linearGradient id="paint29_linear_187_1233" x1="175.635" y1="64.445" x2="176.517" y2="65.5468" gradientUnits="userSpaceOnUse">
<stop stop-color="#A58C7A"/>
<stop offset="1" stop-color="#7B5C46" stop-opacity="0"/>
</linearGradient>
<linearGradient id="paint30_linear_187_1233" x1="176.714" y1="64.2713" x2="177.113" y2="64.7638" gradientUnits="userSpaceOnUse">
<stop stop-color="#95614F"/>
<stop offset="1" stop-color="#372620" stop-opacity="0"/>
</linearGradient>
<linearGradient id="paint31_linear_187_1233" x1="176.163" y1="64.2163" x2="176.635" y2="64.7988" gradientUnits="userSpaceOnUse">
<stop stop-color="#95614F"/>
<stop offset="1" stop-color="#372620" stop-opacity="0"/>
</linearGradient>
<linearGradient id="paint32_linear_187_1233" x1="175.736" y1="64.369" x2="176.184" y2="64.9226" gradientUnits="userSpaceOnUse">
<stop stop-color="#95614F"/>
<stop offset="1" stop-color="#372620" stop-opacity="0"/>
</linearGradient>
<linearGradient id="paint33_linear_187_1233" x1="175.409" y1="64.6318" x2="175.815" y2="65.1321" gradientUnits="userSpaceOnUse">
<stop stop-color="#95614F"/>
<stop offset="1" stop-color="#372620" stop-opacity="0"/>
</linearGradient>
<linearGradient id="paint34_linear_187_1233" x1="175.191" y1="64.9198" x2="175.554" y2="65.3688" gradientUnits="userSpaceOnUse">
<stop stop-color="#95614F"/>
<stop offset="1" stop-color="#372620" stop-opacity="0"/>
</linearGradient>
<linearGradient id="paint35_linear_187_1233" x1="175.013" y1="65.2922" x2="175.328" y2="65.6819" gradientUnits="userSpaceOnUse">
<stop stop-color="#95614F"/>
<stop offset="1" stop-color="#372620" stop-opacity="0"/>
</linearGradient>
<linearGradient id="paint36_linear_187_1233" x1="174.936" y1="65.7213" x2="175.195" y2="66.0417" gradientUnits="userSpaceOnUse">
<stop stop-color="#95614F"/>
<stop offset="1" stop-color="#372620" stop-opacity="0"/>
</linearGradient>
<linearGradient id="paint37_linear_187_1233" x1="176.808" y1="66.1974" x2="176.841" y2="66.4308" gradientUnits="userSpaceOnUse">
<stop/>
<stop offset="1" stop-color="#BC0624"/>
</linearGradient>
<linearGradient id="paint38_linear_187_1233" x1="178.715" y1="60.7701" x2="179.58" y2="69.0527" gradientUnits="userSpaceOnUse">
<stop offset="0.0001" stop-color="#F44336"/>
<stop offset="1" stop-color="#BC0624" stop-opacity="0"/>
</linearGradient>
</defs>
</svg>
