<svg width="678" height="505" viewBox="0 0 678 505" fill="none" xmlns="http://www.w3.org/2000/svg">
<path d="M677.743 443.786H0V444.125H677.743V443.786Z" fill="#EBEBEB"/>
<path d="M609.833 465.596H564.94V465.935H609.833V465.596Z" fill="#EBEBEB"/>
<path d="M448.964 469.283H437.185V469.622H448.964V469.283Z" fill="#EBEBEB"/>
<path d="M563.584 453.017H537.572V453.356H563.584V453.017Z" fill="#EBEBEB"/>
<path d="M129.652 455.294H71.1089V455.633H129.652V455.294Z" fill="#EBEBEB"/>
<path d="M150.31 455.294H141.73V455.633H150.31V455.294Z" fill="#EBEBEB"/>
<path d="M305.188 461.014H178.206V461.353H305.188V461.014Z" fill="#EBEBEB"/>
<path d="M321.25 383.332H59.5194C57.469 383.328 55.5038 382.511 54.0552 381.06C52.6067 379.609 51.7931 377.642 51.7931 375.592V7.67205C51.8109 5.63344 52.6324 3.68418 54.079 2.24769C55.5257 0.811202 57.4807 0.00349226 59.5194 0H321.25C323.303 0 325.272 0.815444 326.723 2.26694C328.175 3.71844 328.99 5.6871 328.99 7.73983V375.592C328.99 377.644 328.175 379.613 326.723 381.065C325.272 382.516 323.303 383.332 321.25 383.332V383.332ZM59.5194 0.271098C57.5589 0.274689 55.6799 1.05601 54.2949 2.44357C52.9098 3.83113 52.132 5.71154 52.132 7.67205V375.592C52.132 377.552 52.9098 379.433 54.2949 380.82C55.6799 382.208 57.5589 382.989 59.5194 382.993H321.25C323.212 382.989 325.092 382.208 326.48 380.821C327.867 379.434 328.648 377.553 328.651 375.592V7.67205C328.648 5.7103 327.867 3.82992 326.48 2.44274C325.092 1.05557 323.212 0.274681 321.25 0.271098H59.5194Z" fill="#EBEBEB"/>
<path d="M614.456 383.332H352.711C350.66 383.328 348.693 382.511 347.242 381.061C345.792 379.61 344.975 377.643 344.971 375.592V7.67205C344.993 5.6322 345.817 3.68296 347.266 2.24684C348.715 0.810728 350.671 0.00345417 352.711 0H614.456C616.492 0.00705462 618.444 0.816341 619.887 2.25245C621.331 3.68856 622.151 5.63578 622.168 7.67205V375.592C622.168 377.64 621.357 379.604 619.911 381.055C618.465 382.506 616.504 383.324 614.456 383.332V383.332ZM352.711 0.271098C350.749 0.274681 348.869 1.05557 347.482 2.44274C346.095 3.82992 345.314 5.7103 345.31 7.67205V375.592C345.314 377.553 346.095 379.434 347.482 380.821C348.869 382.208 350.749 382.989 352.711 382.993H614.456C616.417 382.989 618.298 382.208 619.685 380.821C621.072 379.434 621.853 377.553 621.857 375.592V7.67205C621.853 5.7103 621.072 3.82992 619.685 2.44274C618.298 1.05557 616.417 0.274681 614.456 0.271098H352.711Z" fill="#EBEBEB"/>
<path d="M462.926 443.773H473.471L473.471 37.3437H462.926L462.926 443.773Z" fill="#F0F0F0"/>
<path opacity="0.5" d="M462.926 37.3572H214.804V424.267H462.926V37.3572Z" fill="#F3F3F3"/>
<path d="M84.3655 443.773H94.9111L94.9111 37.3437H84.3655L84.3655 443.773Z" fill="#F0F0F0"/>
<path d="M204.258 443.773H214.804L214.804 37.3437H204.258L204.258 443.773Z" fill="#F0F0F0"/>
<path d="M94.9111 424.267H209.531L209.531 37.3572H94.9111L94.9111 424.267Z" fill="#E6E6E6"/>
<path d="M501.679 37.3572V26.8115L71.1225 26.8115V37.3572L501.679 37.3572Z" fill="#F0F0F0"/>
<path d="M501.679 37.3572V26.8115L422.559 26.8115V37.3572L501.679 37.3572Z" fill="#E0E0E0"/>
<path d="M501.666 328.326V317.78H168.853V328.326H501.666Z" fill="#F0F0F0"/>
<path d="M501.666 328.326V317.78H422.546V328.326H501.666Z" fill="#E0E0E0"/>
<path d="M268.874 245.343L425.27 245.343V91.2649L268.874 91.2649V245.343Z" fill="#F0F0F0"/>
<path d="M419.835 239.921V96.6869L274.283 96.6869V239.921H419.835Z" fill="white"/>
<path d="M577.898 274.635V266.95C577.902 264.133 579.023 261.434 581.015 259.444C583.008 257.454 585.709 256.336 588.525 256.336H553.12V285.249H588.525C585.709 285.249 583.008 284.131 581.015 282.141C579.023 280.151 577.902 277.451 577.898 274.635Z" fill="#E0E0E0"/>
<path d="M556.251 266.95V274.635C556.255 277.449 557.374 280.146 559.364 282.136C561.353 284.126 564.051 285.245 566.864 285.249H596.617V443.84H526.579V250.006H596.617V256.336H566.864C564.051 256.34 561.353 257.459 559.364 259.449C557.374 261.438 556.255 264.136 556.251 266.95V266.95Z" fill="#E7E7E7"/>
<path d="M566.946 300.01H526.579V393.782H566.946V300.01Z" fill="#F3F3F3"/>
<path d="M338.872 505C484.021 505 601.687 498.13 601.687 489.656C601.687 481.182 484.021 474.312 338.872 474.312C193.723 474.312 76.0564 481.182 76.0564 489.656C76.0564 498.13 193.723 505 338.872 505Z" fill="#E7E7E7"/>
<path d="M381.488 108.303C399.814 92.7695 385.555 69.6449 412.353 50.641C439.15 31.6371 495.471 39.3091 503.17 71.6104C510.869 103.912 561.212 115.664 573.913 163.865C586.614 212.066 546.004 243.079 567.461 273.51C588.918 303.941 601.511 348.211 543.916 365.683C486.321 383.155 424.633 354.229 426.734 287.661C428.835 221.093 393.01 228.427 375.51 187.355C357.699 145.484 414.779 121.33 381.488 108.303Z" fill="white"/>
<path opacity="0.2" d="M381.488 108.303C399.814 92.7695 385.555 69.6449 412.353 50.641C439.15 31.6371 495.471 39.3091 503.17 71.6104C510.869 103.912 561.212 115.664 573.913 163.865C586.614 212.066 546.004 243.079 567.461 273.51C588.918 303.941 601.511 348.211 543.916 365.683C486.321 383.155 424.633 354.229 426.734 287.661C428.835 221.093 393.01 228.427 375.51 187.355C357.699 145.484 414.779 121.33 381.488 108.303Z" fill="#407BFF"/>
<path d="M477.348 108.52C476.44 109.618 477.673 111.353 473.932 111.665L471.601 111.828C471.521 109.488 471.064 107.176 470.245 104.982L470.489 104.901C473.77 103.857 473.336 105.742 474.488 106.365C475.64 106.989 474.854 103.83 474.257 102.407C473.661 100.984 472.007 98.1915 471.628 99.4385C471.248 100.686 472.888 101.729 469.825 103.302L469.595 103.424C468.612 101.297 467.299 99.3386 465.704 97.6221L467.466 96.0904C470.327 93.6777 470.693 95.7651 472.116 95.9007C473.539 96.0362 471.411 93.1897 470.218 92.0104C469.025 90.8312 466.152 88.6895 466.328 90.1128C466.504 91.536 468.551 91.8884 466.125 94.7621L464.606 96.5242C462.89 94.9295 460.932 93.6165 458.805 92.634L458.927 92.39C460.499 89.3401 461.543 91.0345 462.79 90.6007C464.037 90.167 461.258 88.5539 459.822 87.9711C458.385 87.3882 455.24 86.6156 455.864 87.7271C456.487 88.8386 458.371 88.4591 457.327 91.7936L457.246 92.0511C455.048 91.2313 452.732 90.7735 450.387 90.6956C450.387 89.9501 450.496 89.1775 450.564 88.3642C450.875 84.623 452.61 85.843 453.708 84.9348C454.806 84.0266 451.309 83.5793 449.642 83.5793C447.975 83.5793 444.437 84.0944 445.575 84.9348C446.714 85.7752 448.408 84.623 448.72 88.3642C448.788 89.1775 448.842 89.9501 448.883 90.6956C446.543 90.775 444.231 91.2328 442.038 92.0511L441.956 91.7936C440.913 88.5268 442.797 88.947 443.42 87.7271C444.044 86.5072 440.885 87.3747 439.462 87.9711C438.039 88.5675 435.247 90.2212 436.494 90.6007C437.741 90.9803 438.784 89.3401 440.357 92.39L440.479 92.634C438.352 93.6165 436.394 94.9295 434.677 96.5242L433.146 94.7621C430.733 91.8884 432.82 91.536 432.956 90.1128C433.091 88.6895 430.245 90.804 429.066 92.0104C427.886 93.2168 425.745 96.0769 427.168 95.9007C428.591 95.7245 428.944 93.6777 431.817 96.0904L433.579 97.6221C431.98 99.3351 430.667 101.294 429.689 103.424L429.445 103.302C426.395 101.729 428.09 100.686 427.656 99.4385C427.222 98.1915 425.609 100.97 425.026 102.407C424.443 103.844 423.671 106.975 424.782 106.365C425.894 105.755 425.514 103.857 428.781 104.901L429.038 104.982C428.22 107.176 427.762 109.488 427.683 111.828L425.352 111.665C421.61 111.353 422.83 109.618 421.922 108.52C421.014 107.422 420.567 110.919 420.567 112.587C420.567 114.254 421.082 117.778 421.922 116.653C422.763 115.528 421.61 113.82 425.352 113.508L427.683 113.332C427.761 115.677 428.219 117.993 429.038 120.191L428.781 120.272C425.514 121.316 425.934 119.418 424.782 118.808C423.63 118.198 424.43 121.33 425.026 122.766C425.623 124.203 427.276 126.982 427.656 125.735C428.035 124.488 426.395 123.444 429.445 121.872L429.689 121.75C430.667 123.88 431.98 125.838 433.579 127.551L431.817 129.069C428.944 131.496 428.591 129.408 427.168 129.273C425.745 129.137 427.859 131.984 429.066 133.163C430.272 134.342 433.132 136.484 432.956 135.061C432.78 133.637 430.733 133.271 433.146 130.411C433.674 129.788 434.189 129.205 434.677 128.649C436.394 130.244 438.352 131.557 440.479 132.539L440.357 132.77C438.784 135.833 437.741 134.125 436.494 134.573C435.247 135.02 438.025 136.606 439.462 137.202C440.899 137.799 444.03 138.558 443.42 137.433C442.81 136.308 440.913 136.714 441.956 133.366L442.038 133.122C444.231 133.941 446.543 134.398 448.883 134.478C448.883 135.21 448.788 135.996 448.72 136.809C448.408 140.55 446.673 139.33 445.575 140.225C444.477 141.12 447.975 141.648 449.642 141.648C451.309 141.648 454.833 141.133 453.708 140.225C452.583 139.317 450.875 140.55 450.564 136.809C450.496 135.996 450.442 135.21 450.387 134.478C452.732 134.4 455.048 133.942 457.246 133.122L457.327 133.366C458.371 136.647 456.473 136.213 455.864 137.433C455.254 138.653 458.385 137.799 459.822 137.202C461.258 136.606 464.037 134.952 462.79 134.573C461.543 134.193 460.499 135.833 458.927 132.77L458.805 132.539C460.932 131.557 462.89 130.244 464.606 128.649C465.094 129.205 465.609 129.788 466.125 130.411C468.551 133.271 466.463 133.637 466.328 135.061C466.192 136.484 469.039 134.356 470.218 133.163C471.397 131.97 473.539 129.097 472.116 129.273C470.693 129.449 470.327 131.496 467.466 129.069C466.843 128.554 466.26 128.039 465.704 127.551C467.299 125.835 468.612 123.877 469.595 121.75L469.825 121.872C472.888 123.444 471.248 124.488 471.628 125.735C472.007 126.982 473.661 124.203 474.257 122.766C474.854 121.33 475.613 118.198 474.488 118.808C473.363 119.418 473.77 121.316 470.489 120.272L470.245 120.191C471.065 117.993 471.523 115.677 471.601 113.332L473.932 113.508C477.673 113.82 476.44 115.555 477.348 116.653C478.256 117.751 478.703 114.254 478.703 112.587C478.703 110.919 478.256 107.409 477.348 108.52Z" fill="#407BFF"/>
<path d="M462.221 212.811C461.394 214.275 463.17 216.037 458.886 217.162L456.175 217.827C455.602 215.125 454.605 212.531 453.22 210.141L453.491 209.992C457.07 208.121 456.962 210.399 458.425 210.887C459.889 211.375 458.331 207.877 457.355 206.332C456.379 204.787 453.871 201.9 453.695 203.431C453.519 204.963 455.62 205.831 452.339 208.284L452.095 208.46C450.519 206.192 448.593 204.188 446.389 202.523C446.931 201.845 447.514 201.168 448.124 200.395C450.957 197.006 451.811 199.351 453.478 199.229C455.145 199.107 452.122 196.234 450.496 195.082C448.869 193.929 445.074 192.059 445.575 193.726C446.077 195.393 448.53 195.339 446.307 199.148C445.819 199.961 445.345 200.761 444.884 201.507C442.571 199.997 440.031 198.866 437.361 198.159C437.401 198.062 437.433 197.962 437.456 197.86C438.662 193.997 440.167 195.692 441.523 195C442.878 194.309 439.327 192.94 437.537 192.547C435.748 192.154 431.953 191.869 432.902 193.075C433.85 194.282 435.965 193.414 435.409 197.427V197.725C432.693 197.23 429.915 197.175 427.181 197.562C427.087 196.695 426.992 195.773 426.897 194.851C426.504 190.446 428.767 191.517 429.865 190.243C430.963 188.968 426.788 189.077 424.823 189.429C422.857 189.782 418.886 191.083 420.35 191.91C421.814 192.737 423.576 190.961 424.714 195.244C424.945 196.166 425.175 197.061 425.379 197.955C422.677 198.528 420.083 199.526 417.693 200.91C417.693 200.829 417.598 200.734 417.544 200.639C415.673 197.047 417.951 197.156 418.439 195.705C418.927 194.255 415.429 195.8 413.884 196.776C412.339 197.752 409.452 200.26 410.983 200.436C412.515 200.612 413.369 198.511 415.822 201.791L416.012 202.035C413.744 203.611 411.74 205.537 410.075 207.742L407.947 206.007C404.545 203.174 406.903 202.32 406.768 200.585C406.632 198.85 403.786 201.94 402.634 203.581C401.481 205.221 399.611 209.002 401.278 208.487C402.945 207.972 402.905 205.546 406.7 207.769L409.045 209.124C407.539 211.443 406.413 213.987 405.711 216.661L405.412 216.566C401.549 215.36 403.244 213.855 402.539 212.5C401.834 211.144 400.492 214.695 400.085 216.471C399.679 218.247 399.408 222.069 400.627 221.121C401.847 220.172 400.953 218.057 404.965 218.613H405.277C404.782 221.329 404.727 224.107 405.114 226.841L402.403 227.112C397.998 227.518 399.055 225.255 397.781 224.157C396.507 223.059 396.629 227.234 396.968 229.199C397.307 231.165 398.621 235.136 399.448 233.672C400.275 232.208 398.513 230.433 402.783 229.308C403.704 229.064 404.613 228.847 405.494 228.643C406.06 231.347 407.058 233.942 408.449 236.329L408.178 236.478C404.586 238.349 404.694 236.072 403.23 235.584C401.766 235.096 403.338 238.593 404.314 240.138C405.29 241.683 407.784 244.57 407.974 243.039C408.164 241.507 406.049 240.64 409.33 238.186L409.574 238.01C411.15 240.278 413.076 242.282 415.28 243.947C414.738 244.625 414.155 245.302 413.545 246.075C410.699 249.464 409.858 247.119 408.123 247.241C406.388 247.363 409.479 250.236 411.119 251.389C412.759 252.541 416.473 254.411 416.026 252.744C415.579 251.077 413.084 251.131 415.307 247.322C415.782 246.509 416.27 245.709 416.663 244.964C418.977 246.471 421.517 247.601 424.186 248.312L424.105 248.61C422.885 252.473 421.394 250.779 420.038 251.47C418.683 252.161 422.234 253.53 424.01 253.923C425.785 254.316 429.608 254.601 428.659 253.395C427.71 252.188 425.596 253.069 426.138 249.057V248.745C428.858 249.242 431.641 249.297 434.379 248.908C434.474 249.775 434.569 250.697 434.65 251.619C435.057 256.024 432.793 254.953 431.695 256.228C430.597 257.502 434.772 257.393 436.738 257.041C438.703 256.688 442.661 255.387 441.197 254.56C439.733 253.734 437.971 255.509 436.846 251.226C436.602 250.304 436.385 249.41 436.182 248.515C438.883 247.939 441.477 246.942 443.867 245.56L444.003 245.831C445.887 249.423 443.596 249.315 443.122 250.765C442.648 252.215 446.131 250.67 447.676 249.694C449.222 248.718 452.109 246.224 450.577 246.034C449.045 245.845 448.178 247.959 445.725 244.679L445.535 244.435C447.811 242.863 449.82 240.936 451.485 238.728L453.613 240.463C457.002 243.31 454.657 244.15 454.779 245.885C454.901 247.62 457.775 244.53 458.927 242.89C460.079 241.249 461.95 237.468 460.282 237.983C458.615 238.498 458.669 240.924 454.861 238.701L452.502 237.346C454.012 235.028 455.142 232.484 455.85 229.809L456.148 229.904C460.011 231.11 458.317 232.615 459.008 233.971C459.7 235.326 461.069 231.775 461.462 229.999C461.855 228.223 462.139 224.401 460.933 225.35C459.727 226.298 460.594 228.413 456.582 227.857H456.284C456.779 225.141 456.834 222.363 456.446 219.629L459.157 219.358C463.563 218.952 462.492 221.215 463.766 222.313C465.04 223.411 464.932 219.236 464.579 217.271C464.227 215.305 463.061 211.32 462.221 212.811Z" fill="#407BFF"/>
<path d="M550.327 182.991C549.446 183.614 550.002 185.132 547.196 184.604C546.6 184.495 546.017 184.387 545.475 184.265C545.888 182.54 546.016 180.759 545.854 178.992H546.058C548.66 178.884 547.969 180.185 548.687 180.863C549.406 181.54 549.446 179.087 549.311 177.921C549.175 176.755 548.498 174.397 547.955 175.21C547.413 176.023 548.416 177.135 545.868 177.677H545.665C545.382 175.925 544.814 174.231 543.984 172.662L545.583 171.889C548.159 170.696 548.01 172.296 549.013 172.689C550.016 173.082 549.013 170.574 548.416 169.463C547.82 168.351 546.125 166.237 545.936 167.294C545.746 168.351 547.21 169.043 544.865 170.656C544.363 170.995 543.875 171.334 543.401 171.632C542.468 170.124 541.301 168.774 539.944 167.633L540.08 167.484C541.842 165.573 542.276 166.969 543.265 166.942C544.255 166.915 542.547 165.152 541.625 164.434C540.703 163.716 538.562 162.509 538.779 163.472C538.996 164.434 540.459 164.502 539.05 166.684L538.941 166.847C537.501 165.807 535.898 165.015 534.197 164.502C534.387 163.96 534.577 163.404 534.794 162.835C535.77 160.124 536.786 161.398 537.776 160.964C538.765 160.53 536.298 159.446 535.065 159.107C533.831 158.768 531.174 158.443 531.798 159.324C532.421 160.205 533.926 159.663 533.411 162.455C533.303 163.052 533.181 163.634 533.072 164.19C531.342 163.778 529.558 163.646 527.786 163.797V163.594C527.677 160.991 528.979 161.682 529.656 160.964C530.334 160.246 527.881 160.205 526.715 160.354C525.549 160.503 523.191 161.154 524.004 161.71C524.817 162.265 525.929 161.249 526.471 163.783V163.987C524.72 164.275 523.027 164.843 521.456 165.668C521.212 165.166 520.954 164.637 520.697 164.082C519.504 161.493 521.103 161.655 521.483 160.639C521.862 159.622 519.368 160.639 518.257 161.249C517.145 161.859 515.031 163.526 516.101 163.716C517.172 163.905 517.836 162.442 519.449 164.787C519.802 165.288 520.127 165.79 520.439 166.25C518.905 167.175 517.532 168.342 516.373 169.707L516.223 169.571C514.312 167.809 515.722 167.376 515.695 166.386C515.668 165.396 513.892 167.104 513.174 168.026C512.455 168.948 511.249 171.09 512.211 170.873C513.174 170.656 513.241 169.192 515.424 170.602L515.586 170.71C514.56 172.158 513.768 173.759 513.241 175.454L511.574 174.871C508.863 173.882 510.137 172.865 509.704 171.876C509.27 170.886 508.185 173.353 507.847 174.587C507.508 175.82 507.182 178.49 508.063 177.867C508.944 177.243 508.402 175.725 511.195 176.24L512.93 176.593C512.517 178.318 512.385 180.098 512.536 181.866H512.347C509.744 181.974 510.435 180.686 509.717 180.009C508.999 179.331 508.944 181.771 509.094 182.936C509.243 184.102 509.893 186.474 510.449 185.647C511.005 184.821 509.988 183.723 512.536 183.18H512.726C513.021 184.93 513.588 186.622 514.407 188.196L512.821 188.955C510.246 190.161 510.395 188.562 509.392 188.169C508.389 187.776 509.392 190.283 509.988 191.395C510.585 192.506 512.279 194.621 512.455 193.564C512.631 192.506 511.181 191.815 513.526 190.202C514.028 189.849 514.529 189.524 514.99 189.226C515.931 190.727 517.097 192.076 518.446 193.225L518.311 193.374C516.549 195.285 516.129 193.875 515.139 193.902C514.15 193.929 515.844 195.705 516.779 196.424C517.714 197.142 519.843 198.348 519.626 197.386C519.409 196.424 517.931 196.356 519.355 194.173C519.386 194.116 519.422 194.062 519.463 194.011C520.906 195.037 522.503 195.829 524.194 196.356C524.017 196.884 523.828 197.454 523.611 198.023C522.635 200.734 521.605 199.46 520.629 199.894C519.653 200.327 522.093 201.412 523.34 201.751C524.587 202.09 527.244 202.415 526.62 201.534C525.996 200.653 524.492 201.195 525.007 198.403C525.115 197.806 525.237 197.223 525.346 196.668C527.071 197.079 528.851 197.212 530.619 197.061C530.619 197.061 530.619 197.196 530.619 197.264C530.727 199.853 529.426 199.175 528.748 199.894C528.07 200.612 530.524 200.653 531.69 200.504C532.855 200.354 535.214 199.704 534.4 199.148C533.587 198.592 532.489 199.609 531.947 197.074V196.871C533.696 196.574 535.388 196.007 536.962 195.19C537.206 195.692 537.464 196.22 537.721 196.776C538.914 199.365 537.315 199.202 536.935 200.219C536.556 201.236 539.036 200.219 540.161 199.609C541.286 198.999 543.387 197.332 542.317 197.142C541.246 196.952 540.568 198.416 538.955 196.071L537.979 194.607C539.52 193.676 540.898 192.5 542.059 191.124C542.115 191.161 542.165 191.207 542.208 191.259C544.119 193.021 542.723 193.442 542.75 194.431C542.777 195.421 544.54 193.726 545.258 192.791C545.976 191.856 547.196 189.727 546.234 189.958C545.271 190.188 545.19 191.639 543.021 190.215C542.958 190.187 542.899 190.151 542.845 190.107C543.884 188.669 544.681 187.071 545.204 185.376L546.871 185.959C549.582 186.935 548.294 187.965 548.742 188.955C549.189 189.944 550.246 187.477 550.585 186.244C550.924 185.01 551.263 182.367 550.327 182.991Z" fill="#407BFF"/>
<path d="M503.373 294.141C502.967 295.022 504.065 295.957 501.638 296.852L500.134 297.367C499.685 295.83 498.994 294.375 498.087 293.056L498.236 292.961C500.215 291.714 500.256 293.043 501.123 293.246C501.991 293.449 500.934 291.525 500.297 290.671C499.659 289.817 498.087 288.271 498.046 289.166C498.006 290.061 499.28 290.454 497.518 292.012L497.382 292.134C496.376 290.894 495.177 289.823 493.831 288.963C494.116 288.542 494.414 288.109 494.739 287.607C496.217 285.52 496.813 286.835 497.775 286.685C498.738 286.536 496.854 285.018 495.864 284.422C494.875 283.825 492.624 282.917 492.963 283.839C493.302 284.761 494.739 284.639 493.628 286.943C493.384 287.444 493.14 287.919 492.909 288.298C491.508 287.533 489.993 286.998 488.422 286.713V286.536C488.938 284.246 489.9 285.181 490.673 284.693C491.445 284.205 489.317 283.608 488.26 283.459C487.203 283.31 484.993 283.324 485.549 283.974C486.105 284.625 487.325 283.974 487.189 286.374V286.55C485.594 286.385 483.983 286.476 482.418 286.821C482.323 286.333 482.228 285.804 482.133 285.262C481.713 282.727 483.068 283.242 483.638 282.456C484.207 281.67 481.808 281.928 480.696 282.212C479.585 282.497 477.348 283.432 478.229 283.852C479.11 284.273 480.046 283.161 480.94 285.574C481.13 286.103 481.293 286.604 481.455 287.092C479.919 287.541 478.464 288.232 477.145 289.139L477.05 288.99C475.803 286.997 477.131 286.957 477.335 286.103C477.538 285.249 475.6 286.292 474.759 286.929C473.919 287.566 472.36 289.125 473.241 289.166C474.122 289.207 474.596 287.946 476.101 289.695L476.223 289.83C474.982 290.841 473.911 292.045 473.051 293.395L471.696 292.487C469.595 291.009 470.923 290.413 470.774 289.451C470.625 288.488 469.107 290.372 468.51 291.362C467.914 292.351 467.006 294.588 467.928 294.263C468.849 293.937 468.727 292.487 471.032 293.598L472.455 294.303C471.688 295.708 471.153 297.228 470.869 298.803H470.693C468.402 298.275 469.337 297.312 468.849 296.553C468.361 295.794 467.765 297.909 467.616 298.966C467.467 300.023 467.467 302.219 468.131 301.677C468.795 301.135 468.131 299.888 470.53 300.023H470.706C470.541 301.614 470.632 303.22 470.977 304.781C470.489 304.876 469.961 304.984 469.419 305.066C466.884 305.5 467.399 304.144 466.613 303.575C465.826 303.005 466.084 305.405 466.369 306.516C466.653 307.628 467.589 309.864 468.009 308.983C468.429 308.102 467.318 307.167 469.73 306.272L471.248 305.757C471.695 307.295 472.386 308.75 473.295 310.068L473.146 310.162C471.154 311.41 471.113 310.081 470.259 309.878C469.405 309.674 470.449 311.599 471.086 312.453C471.723 313.307 473.282 314.852 473.322 313.958C473.363 313.063 472.102 312.67 473.851 311.098L473.987 310.989C474.998 312.23 476.201 313.301 477.551 314.161C477.267 314.581 476.969 315.015 476.643 315.517C475.166 317.604 474.569 316.289 473.607 316.438C472.645 316.587 474.515 318.106 475.518 318.688C476.521 319.271 478.744 320.193 478.419 319.285C478.094 318.377 476.643 318.485 477.755 316.181C477.999 315.679 478.229 315.205 478.46 314.825C479.868 315.585 481.386 316.12 482.96 316.411V316.587C482.431 318.878 481.469 317.943 480.71 318.431C479.951 318.919 482.065 319.515 483.123 319.664C484.18 319.813 486.376 319.8 485.834 319.149C485.291 318.499 484.044 319.149 484.18 316.75C484.187 316.692 484.187 316.632 484.18 316.574C485.77 316.739 487.376 316.648 488.938 316.303C489.032 316.791 489.127 317.319 489.222 317.862C489.656 320.396 488.3 319.881 487.731 320.667C487.162 321.454 489.548 321.196 490.673 320.911C491.798 320.627 494.021 319.678 493.14 319.271C492.258 318.865 491.323 319.963 490.429 317.536L489.927 316.032C491.463 315.58 492.917 314.89 494.238 313.985L494.332 314.134C495.579 316.113 494.251 316.154 494.034 317.021C493.817 317.889 495.769 316.831 496.623 316.194C497.477 315.557 499.022 313.985 498.128 313.958C497.233 313.931 496.84 315.178 495.268 313.416C495.224 313.377 495.188 313.331 495.159 313.28C496.4 312.274 497.471 311.075 498.331 309.729L499.687 310.637C501.774 312.114 500.459 312.711 500.608 313.673C500.757 314.636 502.276 312.751 502.858 311.762C503.441 310.772 504.363 308.536 503.455 308.861C502.547 309.186 502.655 310.637 500.351 309.525L498.927 308.807C499.69 307.404 500.225 305.89 500.513 304.32H500.69C502.967 304.835 502.045 305.811 502.533 306.57C503.021 307.329 503.617 305.215 503.767 304.158C503.916 303.1 503.902 300.904 503.251 301.447C502.601 301.989 503.251 303.222 500.852 303.1H500.676C500.841 301.51 500.75 299.904 500.405 298.343C500.893 298.234 501.422 298.139 501.964 298.058C504.485 297.624 503.983 298.98 504.77 299.549C505.556 300.118 505.298 297.719 505 296.608C504.702 295.496 503.78 293.3 503.373 294.141Z" fill="#407BFF"/>
<path d="M210.859 69.55H196.342C192.967 69.55 190.026 73.1014 189.917 77.683C189.809 82.2645 192.628 86.3716 196.085 86.3716C196.824 86.3507 197.551 86.1731 198.217 85.8507C198.883 85.5283 199.473 85.0683 199.948 84.501C200.356 83.9978 200.864 83.5849 201.441 83.2885C202.017 82.9922 202.649 82.8189 203.296 82.7796H203.824C204.427 82.8166 205.014 82.9822 205.547 83.2651C206.08 83.548 206.547 83.9417 206.915 84.4197C207.534 85.2084 208.374 85.7947 209.327 86.1038C210.281 86.4128 211.305 86.4306 212.269 86.1547C214.56 85.4634 216.403 82.9151 216.891 79.784C217.732 74.3485 214.709 69.55 210.859 69.55Z" fill="#407BFF"/>
<path opacity="0.8" d="M207.498 70.2684H194.214C191.137 70.2684 188.44 73.5216 188.345 77.7372C188.25 81.9527 190.812 85.6803 193.984 85.6803C194.661 85.6622 195.326 85.5006 195.936 85.2062C196.546 84.9118 197.086 84.4912 197.521 83.9724C197.89 83.5093 198.353 83.1288 198.878 82.8556C199.403 82.5824 199.98 82.4226 200.571 82.3865H201.059C201.612 82.4197 202.15 82.5713 202.639 82.8308C203.128 83.0904 203.555 83.452 203.892 83.8911C204.459 84.6145 205.229 85.152 206.103 85.4346C206.977 85.7172 207.916 85.7319 208.799 85.477C209.965 84.9796 210.973 84.1743 211.715 83.1475C212.458 82.1207 212.907 80.9111 213.015 79.6484C213.787 74.6602 211.022 70.2684 207.498 70.2684Z" fill="white"/>
<path d="M171.225 129.978L169.26 132.404L167.226 134.993C165.871 136.728 164.515 138.463 163.16 140.239C160.449 143.763 157.995 147.355 155.623 150.961C154.431 152.768 153.301 154.575 152.235 156.382C151.15 158.199 150.134 160.015 149.212 161.804C147.436 165.169 146.022 168.713 144.996 172.377C144.901 172.716 144.996 172.459 144.996 172.445C145.009 172.41 145.009 172.372 144.996 172.337C144.996 172.337 144.929 172.337 144.929 172.445C144.924 172.845 144.983 173.243 145.105 173.624C145.567 175.12 146.228 176.547 147.07 177.867C149.257 181.338 151.748 184.609 154.512 187.64C160.562 194.281 166.941 200.614 173.624 206.617L173.76 206.752C174.783 207.688 175.434 208.963 175.591 210.341C175.749 211.719 175.402 213.108 174.616 214.251C173.83 215.393 172.657 216.213 171.314 216.559C169.971 216.905 168.548 216.753 167.308 216.132C158.497 211.723 150.19 206.374 142.529 200.178C138.406 196.86 134.644 193.117 131.306 189.009C129.348 186.567 127.696 183.895 126.386 181.052C125.586 179.277 125.008 177.411 124.664 175.495C124.457 174.372 124.343 173.234 124.325 172.093C124.325 171.483 124.325 170.873 124.325 170.236C124.325 169.598 124.488 168.88 124.542 168.568C125.425 163.068 127.006 157.702 129.246 152.601C131.249 147.855 133.586 143.258 136.24 138.842C138.788 134.478 141.581 130.357 144.481 126.345C145.959 124.339 147.436 122.36 149.009 120.435C149.781 119.473 150.567 118.51 151.381 117.561C152.194 116.613 152.967 115.718 153.956 114.62C155.984 112.478 158.757 111.195 161.702 111.036C164.648 110.877 167.542 111.854 169.789 113.766C172.035 115.677 173.463 118.377 173.779 121.31C174.094 124.243 173.272 127.185 171.483 129.53L171.225 129.978Z" fill="#407BFF"/>
<path opacity="0.6" d="M171.225 129.978L169.26 132.404L167.226 134.993C165.871 136.728 164.515 138.463 163.16 140.239C160.449 143.763 157.995 147.355 155.623 150.961C154.431 152.768 153.301 154.575 152.235 156.382C151.15 158.199 150.134 160.015 149.212 161.804C147.436 165.169 146.022 168.713 144.996 172.377C144.901 172.716 144.996 172.459 144.996 172.445C145.009 172.41 145.009 172.372 144.996 172.337C144.996 172.337 144.929 172.337 144.929 172.445C144.924 172.845 144.983 173.243 145.105 173.624C145.567 175.12 146.228 176.547 147.07 177.867C149.257 181.338 151.748 184.609 154.512 187.64C160.562 194.281 166.941 200.614 173.624 206.617L173.76 206.752C174.783 207.688 175.434 208.963 175.591 210.341C175.749 211.719 175.402 213.108 174.616 214.251C173.83 215.393 172.657 216.213 171.314 216.559C169.971 216.905 168.548 216.753 167.308 216.132C158.497 211.723 150.19 206.374 142.529 200.178C138.406 196.86 134.644 193.117 131.306 189.009C129.348 186.567 127.696 183.895 126.386 181.052C125.586 179.277 125.008 177.411 124.664 175.495C124.457 174.372 124.343 173.234 124.325 172.093C124.325 171.483 124.325 170.873 124.325 170.236C124.325 169.598 124.488 168.88 124.542 168.568C125.425 163.068 127.006 157.702 129.246 152.601C131.249 147.855 133.586 143.258 136.24 138.842C138.788 134.478 141.581 130.357 144.481 126.345C145.959 124.339 147.436 122.36 149.009 120.435C149.781 119.473 150.567 118.51 151.381 117.561C152.194 116.613 152.967 115.718 153.956 114.62C155.984 112.478 158.757 111.195 161.702 111.036C164.648 110.877 167.542 111.854 169.789 113.766C172.035 115.677 173.463 118.377 173.779 121.31C174.094 124.243 173.272 127.185 171.483 129.53L171.225 129.978Z" fill="white"/>
<path d="M178.328 210.331C176.064 208.433 167.118 201.263 162.157 195.908C156.735 196.532 149.334 202.591 146.542 205.831C153.536 211.253 164.163 218.03 169.11 217.732C174.058 217.434 182.869 214.167 178.328 210.331Z" fill="#263238"/>
<path d="M174.763 209.057L180.957 211.28C183.251 212.108 185.231 213.628 186.623 215.631L190.473 221.202C190.706 221.54 190.862 221.925 190.93 222.33C190.998 222.735 190.976 223.149 190.866 223.545C190.756 223.941 190.561 224.307 190.294 224.619C190.027 224.931 189.695 225.18 189.321 225.35L183.14 228.128C182.673 228.337 182.157 228.41 181.651 228.338C181.145 228.266 180.67 228.052 180.28 227.722L174.858 223.466C174.858 223.466 169.747 219.846 167.755 215.333C167.49 214.701 167.446 213.999 167.631 213.339C167.815 212.68 168.217 212.102 168.772 211.7L171.848 209.396C172.267 209.1 172.753 208.914 173.262 208.855C173.772 208.795 174.287 208.865 174.763 209.057V209.057Z" fill="#263238"/>
<path d="M206.576 76.9374C206.576 77.8863 207.037 78.6589 207.661 78.6725C208.284 78.686 208.799 77.9269 208.826 76.9781C208.853 76.0293 208.352 75.2566 207.728 75.2431C207.105 75.2295 206.59 75.9886 206.576 76.9374Z" fill="#263238"/>
<path d="M205.614 78.6182C206.685 81.5157 208.149 84.2523 209.965 86.7511C208.257 88.2828 205.424 87.5102 205.424 87.5102L205.614 78.6182Z" fill="#A02724"/>
<path d="M203.242 71.6104C203.384 71.6328 203.53 71.5988 203.648 71.5155C204.213 71.0984 204.87 70.8229 205.563 70.7121C206.257 70.6012 206.967 70.6583 207.633 70.8784C207.77 70.9341 207.923 70.9333 208.059 70.8761C208.195 70.8189 208.303 70.71 208.359 70.5734C208.414 70.4368 208.413 70.2837 208.356 70.1477C208.299 70.0117 208.19 69.904 208.054 69.8482C207.217 69.5635 206.324 69.4826 205.449 69.6123C204.574 69.7419 203.743 70.0784 203.025 70.5938C202.901 70.6788 202.817 70.8091 202.789 70.9562C202.761 71.1034 202.792 71.2556 202.876 71.3799C202.966 71.498 203.096 71.5797 203.242 71.6104V71.6104Z" fill="#263238"/>
<path d="M179.114 80.5566C179.724 89.2995 179.033 106.948 172.336 111.895C172.336 111.895 173.977 119.025 189.822 121.018C207.254 123.2 199.243 113.414 199.243 113.414C190.012 109.944 191.11 102.909 193.631 96.4971L179.114 80.5566Z" fill="#B55B52"/>
<path d="M223.248 472.048H210.412C210.148 472.079 209.902 472.202 209.719 472.395C209.536 472.588 209.426 472.84 209.409 473.105L207.091 486.864C206.847 488.3 207.674 489.656 208.785 489.575C213.408 489.466 220.104 489.114 225.919 489.114C232.696 489.114 231.937 489.602 239.921 489.602C244.746 489.602 246.088 483.177 244.069 482.594C234.865 479.883 234.025 479.652 226.081 473.2C225.296 472.504 224.297 472.097 223.248 472.048V472.048Z" fill="#263238"/>
<path d="M162.55 109.55C180.147 107.515 197.944 107.971 215.414 110.906C218.153 111.429 220.667 112.777 222.619 114.768C224.572 116.759 225.869 119.299 226.339 122.048C231.558 152.167 226.149 194.607 221.432 223.845L153.834 222.3C153.427 213.489 157.29 167.863 150.947 125.125C150.678 123.339 150.766 121.519 151.205 119.767C151.644 118.016 152.425 116.369 153.504 114.921C154.583 113.473 155.937 112.253 157.49 111.331C159.042 110.409 160.762 109.804 162.55 109.55V109.55Z" fill="#407BFF"/>
<path opacity="0.5" d="M162.55 109.55C180.147 107.515 197.944 107.971 215.414 110.906C218.153 111.429 220.667 112.777 222.619 114.768C224.572 116.759 225.869 119.299 226.339 122.048C231.558 152.167 226.149 194.607 221.432 223.845L153.834 222.3C153.427 213.489 157.29 167.863 150.947 125.125C150.678 123.339 150.766 121.519 151.205 119.767C151.644 118.016 152.425 116.369 153.504 114.921C154.583 113.473 155.937 112.253 157.49 111.331C159.042 110.409 160.762 109.804 162.55 109.55V109.55Z" fill="white"/>
<path d="M225.648 117.209L233.266 130.52C235.801 134.884 238.376 139.168 240.992 143.261C243.498 147.178 246.25 150.932 249.233 154.498C251.888 157.658 254.983 160.42 258.424 162.699L254.018 161.411C256.973 161.777 259.928 162.225 262.883 162.672C265.838 163.119 268.793 163.648 271.748 164.149C277.644 165.261 283.541 166.467 289.369 168.121C290.648 168.483 291.764 169.271 292.535 170.353C293.305 171.436 293.684 172.748 293.608 174.075C293.532 175.401 293.007 176.662 292.118 177.65C291.229 178.638 290.03 179.293 288.719 179.507C282.673 180.497 276.655 181.025 270.65 181.445C267.641 181.622 264.632 181.825 261.636 181.92C258.64 182.015 255.631 182.137 252.636 182.164C251.392 182.171 250.164 181.878 249.057 181.31L248.217 180.863C242.617 177.912 237.528 174.082 233.144 169.517C229.089 165.36 225.389 160.871 222.083 156.098C218.83 151.53 215.956 146.894 213.177 142.272C210.399 137.65 207.85 132.973 205.397 128.27C203.999 125.595 203.707 122.48 204.582 119.592C205.457 116.704 207.43 114.275 210.077 112.826C212.724 111.377 215.833 111.025 218.737 111.845C221.641 112.664 224.108 114.59 225.607 117.209H225.648Z" fill="#407BFF"/>
<path opacity="0.7" d="M225.648 117.209L233.266 130.52C235.801 134.884 238.376 139.168 240.992 143.261C243.498 147.178 246.25 150.932 249.233 154.498C251.888 157.658 254.983 160.42 258.424 162.699L254.018 161.411C256.973 161.777 259.928 162.225 262.883 162.672C265.838 163.119 268.793 163.648 271.748 164.149C277.644 165.261 283.541 166.467 289.369 168.121C290.648 168.483 291.764 169.271 292.535 170.353C293.305 171.436 293.684 172.748 293.608 174.075C293.532 175.401 293.007 176.662 292.118 177.65C291.229 178.638 290.03 179.293 288.719 179.507C282.673 180.497 276.655 181.025 270.65 181.445C267.641 181.622 264.632 181.825 261.636 181.92C258.64 182.015 255.631 182.137 252.636 182.164C251.392 182.171 250.164 181.878 249.057 181.31L248.217 180.863C242.617 177.912 237.528 174.082 233.144 169.517C229.089 165.36 225.389 160.871 222.083 156.098C218.83 151.53 215.956 146.894 213.177 142.272C210.399 137.65 207.85 132.973 205.397 128.27C203.999 125.595 203.707 122.48 204.582 119.592C205.457 116.704 207.43 114.275 210.077 112.826C212.724 111.377 215.833 111.025 218.737 111.845C221.641 112.664 224.108 114.59 225.607 117.209H225.648Z" fill="white"/>
<path d="M213.055 96.9715C212.798 102.136 207.986 106.46 204.733 106.229C201.479 105.999 199.067 101.756 199.311 96.6055C199.555 91.4547 202.415 87.3882 205.654 87.5509C208.894 87.7135 213.313 91.8071 213.055 96.9715Z" fill="#407BFF"/>
<path d="M175.007 74.2671C175.481 85.9243 175.17 92.7695 180.917 98.8692C189.578 108.032 204.055 103.003 207.078 91.4411C209.789 81.0445 208.555 63.735 197.264 58.9094C194.783 57.827 192.066 57.3956 189.371 57.656C186.676 57.9164 184.092 58.8601 181.864 60.3977C179.636 61.9353 177.836 64.016 176.636 66.443C175.437 68.8699 174.876 71.5629 175.007 74.2671V74.2671Z" fill="#B55B52"/>
<path d="M193.835 223.886C193.835 223.886 188.562 294.371 181.703 329.614C177.04 353.633 173.001 417.273 162.279 443.475C160.327 448.246 156.857 452.57 151.801 452.57L126.508 451.526C121.397 450.265 121.818 446.104 122.089 440.818C123.173 420.065 135.305 352.047 141.716 324.246C143.546 292.229 146.311 247.336 153.915 222.408L193.835 223.886Z" fill="#407BFF"/>
<g opacity="0.5">
<path opacity="0.5" d="M193.835 223.886C193.835 223.886 188.562 294.371 181.703 329.614C177.04 353.633 173.001 417.273 162.279 443.475C160.327 448.246 156.857 452.57 151.801 452.57L126.508 451.526C121.397 450.265 121.818 446.104 122.089 440.818C123.173 420.065 135.305 352.047 141.716 324.246C143.546 292.229 146.311 247.336 153.915 222.408L193.835 223.886Z" fill="white"/>
</g>
<path opacity="0.2" d="M183.709 263.927C171.51 272.615 172.079 306.313 182.177 326.835C185.431 309.051 188.291 283.73 190.31 262.666C188.03 262.199 185.657 262.652 183.709 263.927V263.927Z" fill="#407BFF"/>
<path d="M221.595 225.011C221.595 225.011 233.13 292.473 234.879 328.299C236.397 359.475 238.715 423.59 237.739 443.515C237.617 445.97 236.555 448.284 234.774 449.977C232.992 451.671 230.627 452.614 228.169 452.61H210.1C207.576 452.611 205.155 451.614 203.362 449.836C201.57 448.059 200.552 445.646 200.531 443.122C200.355 422.437 195.461 355.91 189.687 328.055C181.418 288.529 171.862 258.776 172.418 223.913L221.595 225.011Z" fill="#407BFF"/>
<g opacity="0.5">
<path opacity="0.5" d="M221.595 225.011C221.595 225.011 233.13 292.473 234.879 328.299C236.397 359.475 238.715 423.59 237.739 443.515C237.617 445.97 236.555 448.284 234.774 449.977C232.992 451.671 230.627 452.614 228.169 452.61H210.1C207.576 452.611 205.155 451.614 203.362 449.836C201.57 448.059 200.552 445.646 200.531 443.122C200.355 422.437 195.461 355.91 189.687 328.055C181.418 288.529 171.862 258.776 172.418 223.913L221.595 225.011Z" fill="white"/>
</g>
<path d="M206.983 447.487C206.983 447.487 224.902 445.277 231.829 447.988C230.473 452.353 227.478 476.887 231.273 480.289L209.138 478.324C210.873 467.643 206.983 447.487 206.983 447.487Z" fill="#263238"/>
<path d="M137.175 472.048H124.339C124.083 472.081 123.846 472.199 123.666 472.384C123.486 472.568 123.375 472.808 123.349 473.065L121.031 486.823C120.787 488.26 121.614 489.615 122.726 489.534C127.348 489.426 134.044 489.073 139.859 489.073C146.636 489.073 145.877 489.561 153.861 489.561C158.687 489.561 160.029 483.136 158.009 482.553C148.805 479.842 147.965 479.612 140.022 473.16C139.227 472.475 138.223 472.083 137.175 472.048V472.048Z" fill="#263238"/>
<path d="M126.738 447.487C126.738 447.487 145.064 445.277 151.476 447.988C149.293 452.353 141.675 476.887 144.834 480.289L123.146 474C125.084 460.269 126.738 447.487 126.738 447.487Z" fill="#263238"/>
<path d="M212.486 111.15C207.349 109.062 208.054 99.4249 209.49 94.4639C210.927 89.5028 204.068 96.0091 199.514 85.6803C196.803 79.4857 197.603 73.996 200.178 70.2413C201.927 67.6795 207.416 68.8858 206.115 61.878C204.814 54.8701 196.396 49.2991 183.899 50.885C164.827 53.2977 165.301 71.6104 169.287 82.2103C176.335 100.916 168.121 105.254 158.863 110.581C168.148 116.572 189.619 119.445 212.486 111.15Z" fill="#407BFF"/>
<path opacity="0.5" d="M212.486 111.15C207.349 109.062 208.054 99.4249 209.49 94.4639C210.927 89.5028 204.068 96.0091 199.514 85.6803C196.803 79.4857 197.603 73.996 200.178 70.2413C201.927 67.6795 207.416 68.8858 206.115 61.878C204.814 54.8701 196.396 49.2991 183.899 50.885C164.827 53.2977 165.301 71.6104 169.287 82.2103C176.335 100.916 168.121 105.254 158.863 110.581C168.148 116.572 189.619 119.445 212.486 111.15Z" fill="white"/>
<path d="M222.435 221.08C223.168 223.447 223.376 225.944 223.045 228.399C223.03 228.569 222.954 228.728 222.833 228.847C222.711 228.966 222.551 229.038 222.381 229.05C217.406 229.511 181.717 232.385 152.587 225.756C152.451 225.723 152.327 225.653 152.227 225.556C152.127 225.458 152.055 225.335 152.018 225.201C151.383 222.419 151.742 219.503 153.034 216.959C153.109 216.815 153.229 216.699 153.376 216.63C153.523 216.561 153.689 216.544 153.848 216.58C157.914 217.434 184.007 222.612 221.703 220.646C221.855 220.635 222.006 220.671 222.137 220.748C222.268 220.826 222.372 220.942 222.435 221.08V221.08Z" fill="#263238"/>
<path d="M214.167 74.2671H166.454C165.667 76.1919 167.47 79.0655 167.47 79.0655H215.143C215.143 79.0655 215.753 75.9073 214.167 74.2671Z" fill="#263238"/>
<path d="M192.723 127.416C192.539 127.415 192.356 127.388 192.181 127.334C191.672 127.181 191.245 126.833 190.991 126.366C190.737 125.899 190.678 125.351 190.825 124.84C193.048 116.884 203.363 107.992 213.868 107.992C214.408 107.992 214.925 108.206 215.306 108.587C215.687 108.968 215.902 109.486 215.902 110.025C215.902 110.564 215.687 111.081 215.306 111.463C214.925 111.844 214.408 112.058 213.868 112.058C205.288 112.058 196.545 119.513 194.756 125.925C194.634 126.366 194.367 126.753 193.999 127.023C193.63 127.294 193.18 127.432 192.723 127.416Z" fill="#263238"/>
<path d="M221.703 222.652H221.324C203.96 219.399 189.456 204.353 187.599 187.654C187.538 187.114 187.694 186.573 188.032 186.148C188.37 185.724 188.863 185.451 189.402 185.39C189.941 185.329 190.483 185.484 190.907 185.822C191.332 186.161 191.605 186.653 191.666 187.193C193.306 201.954 206.671 215.766 222.096 218.654C222.636 218.702 223.134 218.963 223.481 219.378C223.828 219.794 223.995 220.331 223.947 220.87C223.898 221.409 223.637 221.907 223.222 222.254C222.806 222.601 222.27 222.769 221.73 222.72L221.703 222.652Z" fill="#263238"/>
<path d="M147.463 135.549C147.002 135.55 146.554 135.394 146.194 135.105C145.834 134.817 145.583 134.413 145.484 133.963C143.709 125.83 148.643 113.197 157.901 108.208C158.136 108.083 158.395 108.005 158.661 107.98C158.927 107.954 159.195 107.981 159.45 108.059C159.706 108.137 159.944 108.264 160.15 108.434C160.356 108.604 160.527 108.813 160.652 109.049C160.778 109.285 160.855 109.543 160.881 109.809C160.907 110.075 160.88 110.343 160.802 110.599C160.724 110.854 160.596 111.092 160.426 111.298C160.256 111.504 160.048 111.675 159.812 111.801C152.235 115.867 148.019 126.521 149.456 133.027C149.514 133.288 149.52 133.558 149.474 133.821C149.427 134.084 149.33 134.335 149.186 134.561C149.043 134.786 148.856 134.981 148.637 135.134C148.418 135.287 148.171 135.396 147.911 135.454C147.765 135.499 147.615 135.531 147.463 135.549V135.549Z" fill="#263238"/>
<path d="M179.927 110.852H148.304C139.32 110.852 132.038 118.134 132.038 127.118V230.731C132.038 239.714 139.32 246.997 148.304 246.997H179.927C188.911 246.997 196.193 239.714 196.193 230.731V127.118C196.193 118.134 188.911 110.852 179.927 110.852Z" fill="#407BFF"/>
<path opacity="0.1" d="M169.558 126.155H143.885C136.676 126.155 130.831 131.999 130.831 139.208V221.663C130.831 228.872 136.676 234.716 143.885 234.716H169.558C176.767 234.716 182.611 228.872 182.611 221.663V139.208C182.611 131.999 176.767 126.155 169.558 126.155Z" fill="black"/>
<path d="M165.274 123.986H139.737C132.49 123.986 126.616 129.861 126.616 137.107V220.741C126.616 227.988 132.49 233.862 139.737 233.862H165.274C172.521 233.862 178.396 227.988 178.396 220.741V137.107C178.396 129.861 172.521 123.986 165.274 123.986Z" fill="#407BFF"/>
<path d="M170.452 186.393L156.816 154.092C154.891 149.564 150.12 149.564 148.209 154.092L134.559 186.393C132.648 190.907 135.034 196.573 138.856 196.573H166.156C169.978 196.546 172.364 190.907 170.452 186.393ZM167.741 191.069C167.623 191.418 167.407 191.725 167.118 191.953C166.83 192.182 166.481 192.322 166.115 192.357H138.856C138.49 192.322 138.141 192.182 137.853 191.953C137.564 191.725 137.348 191.418 137.229 191.069C137.06 190.661 136.973 190.224 136.973 189.782C136.973 189.34 137.06 188.902 137.229 188.494L150.879 156.193C150.985 155.837 151.198 155.522 151.489 155.291C151.78 155.061 152.135 154.926 152.506 154.905C152.878 154.927 153.234 155.062 153.527 155.292C153.82 155.522 154.036 155.837 154.146 156.193L167.782 188.494C167.963 188.909 168.056 189.356 168.056 189.809C168.056 190.261 167.963 190.709 167.782 191.124L167.741 191.069Z" fill="white"/>
<path opacity="0.6" d="M154.146 156.193C154.036 155.837 153.82 155.522 153.527 155.292C153.234 155.062 152.878 154.927 152.506 154.905C152.135 154.926 151.78 155.061 151.489 155.291C151.197 155.522 150.985 155.837 150.879 156.193L137.229 188.494C137.06 188.902 136.973 189.34 136.973 189.782C136.973 190.224 137.06 190.661 137.229 191.069C137.348 191.418 137.564 191.725 137.853 191.953C138.141 192.182 138.49 192.322 138.856 192.357H166.155C166.522 192.322 166.87 192.182 167.159 191.953C167.447 191.725 167.664 191.418 167.782 191.069C167.955 190.662 168.044 190.224 168.044 189.782C168.044 189.339 167.955 188.901 167.782 188.494L154.146 156.193Z" fill="white"/>
<path d="M239.216 293.747C235.793 293.724 232.457 292.665 229.646 290.711C220.985 284.828 216.824 272.033 218.26 255.618C219.019 246.97 217.271 240.274 213.082 235.706C208.501 230.704 200.992 228.169 190.758 228.169C190.398 228.169 190.053 228.026 189.799 227.772C189.545 227.518 189.402 227.173 189.402 226.814C189.402 226.454 189.545 226.109 189.799 225.855C190.053 225.601 190.398 225.458 190.758 225.458C201.791 225.458 209.965 228.291 215.156 233.876C219.873 239.026 221.852 246.427 221.026 255.848C219.67 271.26 223.411 283.148 231.246 288.475C233.332 289.947 235.783 290.82 238.33 290.996C240.878 291.173 243.426 290.648 245.695 289.478C253.042 285.804 257.759 276.37 258.315 264.266L258.532 259.101C259.698 231.992 260.47 214.045 279.799 196.044C279.929 195.922 280.082 195.827 280.249 195.764C280.416 195.701 280.593 195.672 280.771 195.677C280.949 195.683 281.124 195.724 281.287 195.797C281.449 195.87 281.596 195.975 281.718 196.105C281.839 196.235 281.935 196.388 281.998 196.554C282.06 196.721 282.09 196.899 282.084 197.077C282.079 197.255 282.038 197.43 281.965 197.592C281.891 197.755 281.786 197.901 281.657 198.023C263.127 215.278 262.381 232.764 261.243 259.223L261.026 264.374C260.43 277.482 255.157 287.77 246.915 291.904C244.529 293.114 241.892 293.745 239.216 293.747V293.747Z" fill="#263238"/>
<path opacity="0.2" d="M239.216 293.747C235.793 293.724 232.457 292.665 229.646 290.711C220.985 284.828 216.824 272.033 218.26 255.618C219.019 246.97 217.271 240.274 213.082 235.706C208.501 230.704 200.992 228.169 190.758 228.169C190.398 228.169 190.053 228.026 189.799 227.772C189.545 227.518 189.402 227.173 189.402 226.814C189.402 226.454 189.545 226.109 189.799 225.855C190.053 225.601 190.398 225.458 190.758 225.458C201.791 225.458 209.965 228.291 215.156 233.876C219.873 239.026 221.852 246.427 221.026 255.848C219.67 271.26 223.411 283.148 231.246 288.475C233.332 289.947 235.783 290.82 238.33 290.996C240.878 291.173 243.426 290.648 245.695 289.478C253.042 285.804 257.759 276.37 258.315 264.266L258.532 259.101C259.698 231.992 260.47 214.045 279.799 196.044C279.929 195.922 280.082 195.827 280.249 195.764C280.416 195.701 280.593 195.672 280.771 195.677C280.949 195.683 281.124 195.724 281.287 195.797C281.449 195.87 281.596 195.975 281.718 196.105C281.839 196.235 281.935 196.388 281.998 196.554C282.06 196.721 282.09 196.899 282.084 197.077C282.079 197.255 282.038 197.43 281.965 197.592C281.891 197.755 281.786 197.901 281.657 198.023C263.127 215.278 262.381 232.764 261.243 259.223L261.026 264.374C260.43 277.482 255.157 287.77 246.915 291.904C244.529 293.114 241.892 293.745 239.216 293.747V293.747Z" fill="white"/>
<path d="M291.646 167.552H300.593C303.09 167.516 305.509 168.421 307.37 170.086L312.358 174.668C313.714 175.847 313.307 178.233 311.653 179.643L305.215 185.065C304.789 185.464 304.264 185.742 303.695 185.871C303.125 186 302.532 185.974 301.975 185.797L295.496 183.262C295.496 183.262 287.133 180.551 285.493 174.939L291.646 167.552Z" fill="#263238"/>
<path d="M296.852 167.552C290.053 166.87 283.321 165.637 276.723 163.865C272.453 167.24 269.145 178.924 268.481 183.153C277.265 184.062 287.824 182.435 291.89 179.575C295.957 176.715 302.816 167.782 296.852 167.552Z" fill="#263238"/>
<path d="M334.477 151.449L329.885 146.52L278.32 194.555L282.912 199.484L334.477 151.449Z" fill="#263238"/>
<path d="M376.988 107.544L369.261 112.099L331.023 147.721L333.382 150.256L371.484 114.756L378.33 113.386L376.988 107.544Z" fill="#263238"/>
<path opacity="0.2" d="M376.988 107.544L369.261 112.099L331.023 147.721L333.382 150.256L371.484 114.756L378.33 113.386L376.988 107.544Z" fill="white"/>
</svg>
