<svg width="144" height="150" viewBox="0 0 144 150" fill="none" xmlns="http://www.w3.org/2000/svg">
<path d="M118.55 38.25C118.55 52.95 107.9 52.95 107.9 38.25C107.9 29.55 113.15 22.5 113.15 22.5C113.15 22.5 118.55 29.55 118.55 38.25Z" fill="#2F88FF"/>
<path d="M110.75 64.8001C110.75 76.0501 100.1 76.0501 100.1 64.8001C100.1 58.2001 105.35 52.8001 105.35 52.8001C105.35 52.8001 110.75 58.2001 110.75 64.8001Z" fill="#2F88FF"/>
<path d="M60.65 83.25L43.25 65.55L82.1 26.25L99.5 43.95L60.65 83.25Z" fill="#D0D0D0"/>
<path d="M74.2999 65.55L95.5999 43.95L82.0999 30.15L60.6499 51.75L74.2999 65.55Z" fill="#2F88FF"/>
<path d="M70.4 69.45L74.3 65.55L60.65 51.75L56.75 55.65L70.4 69.45Z" fill="#333333"/>
<path d="M94.7 39L98.6 35.1L90.8 27.15L86.9 31.05L94.7 39Z" fill="#BCC0C1"/>
<path d="M51.05 93L52.85 91.05L35.45 73.35L33.5 75.3L51.05 93Z" fill="#42ADE2"/>
<path d="M48.05 86.1L55.85 78.3L48.05 70.35L40.25 78.3L48.05 86.1Z" fill="#42ADE2"/>
<path d="M96.6498 29.1L96.1998 28.65L96.6498 29.1Z" fill="white"/>
<path d="M93.65 30.15L94.25 30.6L94.7 31.2L95.6 32.1L118.55 9L119.6 6L120.05 4.5L120.5 3L93.65 30.15Z" fill="#BCC0C1"/>
<path d="M2.61581 141V123.48H6.02381V141H2.61581ZM10.8519 141V127.968H13.4919V131.184C14.0519 128.768 15.5399 127.56 17.9559 127.56H18.0999C19.6519 127.56 20.8279 128.064 21.6279 129.072C22.4279 130.08 22.8279 131.568 22.8279 133.536V141H19.4919V133.248C19.4919 132.448 19.2599 131.8 18.7959 131.304C18.3319 130.808 17.7079 130.56 16.9239 130.56C16.1079 130.56 15.4439 130.816 14.9319 131.328C14.4359 131.84 14.1879 132.512 14.1879 133.344V141H10.8519ZM27.4464 141V130.632H25.8144V128.184H27.4464V127.656C27.4464 126.168 27.8544 125.072 28.6704 124.368C29.5024 123.648 30.7264 123.288 32.3424 123.288H33.9744V125.856H32.1024C31.6064 125.856 31.2224 125.992 30.9504 126.264C30.6944 126.52 30.5664 126.888 30.5664 127.368V128.184H34.1904V130.632H30.5664V141H27.4464ZM43.1888 141.456C41.6528 141.456 40.3568 141.144 39.3008 140.52C38.2448 139.88 37.4368 139.048 36.8768 138.024C36.3328 137 36.0608 135.912 36.0608 134.76V134.256C36.0608 133.056 36.3408 131.944 36.9008 130.92C37.4768 129.896 38.2928 129.072 39.3488 128.448C40.4208 127.824 41.7008 127.512 43.1888 127.512C44.6608 127.512 45.9248 127.824 46.9808 128.448C48.0528 129.072 48.8688 129.896 49.4288 130.92C50.0048 131.944 50.2928 133.056 50.2928 134.256V134.76C50.2928 135.912 50.0128 137 49.4528 138.024C48.9088 139.048 48.1088 139.88 47.0528 140.52C45.9968 141.144 44.7088 141.456 43.1888 141.456ZM43.1888 138.6C44.4048 138.6 45.3328 138.216 45.9728 137.448C46.6288 136.664 46.9568 135.68 46.9568 134.496C46.9568 133.312 46.6208 132.328 45.9488 131.544C45.2768 130.76 44.3568 130.368 43.1888 130.368C42.0048 130.368 41.0768 130.76 40.4048 131.544C39.7328 132.328 39.3968 133.312 39.3968 134.496C39.3968 135.68 39.7168 136.664 40.3568 137.448C41.0128 138.216 41.9568 138.6 43.1888 138.6ZM64.0335 141L58.4415 123.48H61.9695L66.4335 138.168H67.2735L71.4255 123.48H74.8335L69.6495 141H64.0335ZM81.1479 141.336C79.7079 141.336 78.5559 140.968 77.6919 140.232C76.8439 139.496 76.4199 138.464 76.4199 137.136C76.4199 135.712 76.9319 134.664 77.9559 133.992C78.9959 133.304 80.3879 132.96 82.1319 132.96H84.7959V132.84C84.7959 131.352 84.0439 130.608 82.5399 130.608C82.1399 130.608 81.6599 130.616 81.0999 130.632C80.5399 130.648 79.9719 130.672 79.3959 130.704C78.8359 130.72 78.3319 130.744 77.8839 130.776V127.944C78.4279 127.896 79.0759 127.856 79.8279 127.824C80.5959 127.792 81.2999 127.776 81.9399 127.776C83.9399 127.776 85.4439 128.184 86.4519 129C87.4759 129.8 87.9879 131.104 87.9879 132.912V141H85.3479V138.504C84.7559 140.392 83.3559 141.336 81.1479 141.336ZM82.0839 138.96C82.5319 138.96 82.9559 138.88 83.3559 138.72C83.7559 138.544 84.0839 138.256 84.3399 137.856C84.6119 137.44 84.7639 136.88 84.7959 136.176V134.952H82.0839C81.3159 134.952 80.7239 135.144 80.3079 135.528C79.9079 135.896 79.7079 136.376 79.7079 136.968C79.7079 137.576 79.9079 138.064 80.3079 138.432C80.7239 138.784 81.3159 138.96 82.0839 138.96ZM92.2813 141V123.48H95.6173V134.256L100.633 127.968H104.113L99.6733 133.512L105.169 141H101.401L97.0333 134.904H95.6173V141H92.2813ZM112.237 141.408C110.445 141.408 109.037 141.032 108.013 140.28C107.005 139.512 106.477 138.456 106.429 137.112H109.429C109.461 137.576 109.701 137.992 110.149 138.36C110.613 138.712 111.325 138.888 112.285 138.888C113.069 138.888 113.701 138.744 114.181 138.456C114.661 138.168 114.901 137.776 114.901 137.28C114.901 136.848 114.717 136.512 114.349 136.272C113.997 136.016 113.389 135.84 112.525 135.744L111.373 135.624C109.901 135.464 108.773 135.048 107.989 134.376C107.221 133.704 106.837 132.808 106.837 131.688C106.837 130.808 107.061 130.064 107.509 129.456C107.957 128.832 108.573 128.368 109.357 128.064C110.157 127.744 111.069 127.584 112.093 127.584C113.693 127.584 114.989 127.944 115.981 128.664C116.973 129.368 117.493 130.392 117.541 131.736H114.541C114.493 131.288 114.261 130.904 113.845 130.584C113.445 130.264 112.853 130.104 112.069 130.104C111.365 130.104 110.821 130.24 110.437 130.512C110.053 130.784 109.861 131.136 109.861 131.568C109.861 131.984 110.013 132.304 110.317 132.528C110.621 132.752 111.133 132.904 111.853 132.984L113.005 133.104C114.525 133.264 115.725 133.688 116.605 134.376C117.485 135.064 117.925 135.992 117.925 137.16C117.925 138.024 117.685 138.776 117.205 139.416C116.741 140.04 116.085 140.528 115.237 140.88C114.389 141.232 113.389 141.408 112.237 141.408ZM123.249 126.408C122.593 126.408 122.105 126.24 121.785 125.904C121.481 125.552 121.329 125.112 121.329 124.584C121.329 124.056 121.481 123.624 121.785 123.288C122.105 122.952 122.593 122.784 123.249 122.784C123.889 122.784 124.361 122.952 124.665 123.288C124.985 123.624 125.145 124.056 125.145 124.584C125.145 125.112 124.985 125.552 124.665 125.904C124.361 126.24 123.889 126.408 123.249 126.408ZM122.025 141V130.464H120.201V127.968H125.361V141H122.025ZM129.926 141V127.968H132.566V131.184C133.126 128.768 134.614 127.56 137.03 127.56H137.174C138.726 127.56 139.902 128.064 140.702 129.072C141.502 130.08 141.902 131.568 141.902 133.536V141H138.566V133.248C138.566 132.448 138.334 131.8 137.87 131.304C137.406 130.808 136.782 130.56 135.998 130.56C135.182 130.56 134.518 130.816 134.006 131.328C133.51 131.84 133.262 132.512 133.262 133.344V141H129.926Z" fill="white"/>
</svg>
