<svg width="629" height="469" viewBox="0 0 629 469" fill="none" xmlns="http://www.w3.org/2000/svg">
<path d="M629 411.869H0V412.184H629V411.869Z" fill="#EBEBEB"/>
<path d="M548.073 432.11H524.309V432.425H548.073V432.11Z" fill="#EBEBEB"/>
<path d="M405.73 429.922H368.657V430.236H405.73V429.922Z" fill="#EBEBEB"/>
<path d="M523.051 420.436H463.787V420.751H523.051V420.436Z" fill="#EBEBEB"/>
<path d="M79.7949 422.55H65.9946V422.864H79.7949V422.55Z" fill="#EBEBEB"/>
<path d="M139.499 422.55H90.991V422.864H139.499V422.55Z" fill="#EBEBEB"/>
<path d="M283.239 427.858H215.118V428.173H283.239V427.858Z" fill="#EBEBEB"/>
<path d="M298.146 355.762H55.2387C53.3358 355.759 51.512 355.001 50.1676 353.654C48.8232 352.307 48.0681 350.482 48.0681 348.579V7.12028C48.0847 5.22828 48.8471 3.41922 50.1897 2.08604C51.5323 0.75286 53.3466 0.0032411 55.2387 0H298.146C300.051 0 301.878 0.756797 303.225 2.1039C304.572 3.45101 305.329 5.27808 305.329 7.18318V348.579C305.329 350.484 304.572 352.311 303.225 353.659C301.878 355.006 300.051 355.762 298.146 355.762ZM55.2387 0.251601C53.4192 0.254933 51.6754 0.980064 50.39 2.26783C49.1045 3.5556 48.3826 5.30077 48.3826 7.12028V348.579C48.3826 350.399 49.1045 352.144 50.39 353.432C51.6754 354.719 53.4192 355.445 55.2387 355.448H298.146C299.967 355.445 301.712 354.72 302.999 353.432C304.287 352.145 305.011 350.4 305.015 348.579V7.12028C305.011 5.29961 304.287 3.55447 302.999 2.26706C301.712 0.979655 299.967 0.254926 298.146 0.251601H55.2387Z" fill="#EBEBEB"/>
<path d="M570.264 355.762H327.344C325.44 355.759 323.615 355.001 322.268 353.655C320.922 352.308 320.164 350.483 320.161 348.579V7.12028C320.181 5.22713 320.946 3.41808 322.291 2.08525C323.635 0.752421 325.451 0.00320575 327.344 0H570.264C572.154 0.00654726 573.965 0.757629 575.305 2.09045C576.645 3.42328 577.405 5.23045 577.422 7.12028V348.579C577.422 350.48 576.669 352.303 575.327 353.65C573.985 354.996 572.165 355.756 570.264 355.762ZM327.344 0.251601C325.523 0.254926 323.778 0.979655 322.491 2.26706C321.203 3.55447 320.479 5.29961 320.475 7.12028V348.579C320.479 350.4 321.203 352.145 322.491 353.432C323.778 354.72 325.523 355.445 327.344 355.448H570.264C572.085 355.445 573.83 354.72 575.117 353.432C576.405 352.145 577.129 350.4 577.133 348.579V7.12028C577.129 5.29961 576.405 3.55447 575.117 2.26706C573.83 0.979655 572.085 0.254926 570.264 0.251601H327.344Z" fill="#EBEBEB"/>
<path d="M548.073 432.11H524.309V432.425H548.073V432.11Z" fill="#EBEBEB"/>
<path d="M405.73 429.922H368.657V430.236H405.73V429.922Z" fill="#EBEBEB"/>
<path d="M523.051 420.436H463.787V420.751H523.051V420.436Z" fill="#EBEBEB"/>
<path d="M79.7949 422.55H65.9946V422.864H79.7949V422.55Z" fill="#EBEBEB"/>
<path d="M139.499 422.55H90.991V422.864H139.499V422.55Z" fill="#EBEBEB"/>
<path d="M283.239 427.858H215.118V428.173H283.239V427.858Z" fill="#EBEBEB"/>
<path d="M252.557 390.854C259.746 373.497 251.504 353.599 234.147 346.41C216.79 339.22 196.892 347.462 189.703 364.819C182.513 382.176 190.755 402.074 208.112 409.264C225.469 416.453 245.367 408.211 252.557 390.854Z" fill="#E0E0E0"/>
<path d="M464.154 401.892C477.438 388.608 477.438 367.07 464.154 353.786C450.87 340.502 429.332 340.502 416.048 353.786C402.763 367.07 402.763 388.608 416.048 401.892C429.332 415.177 450.87 415.177 464.154 401.892Z" fill="#E0E0E0"/>
<path d="M106.037 228.503L70.5864 300.826V368.77H207.796V228.503H106.037Z" fill="#F5F5F5"/>
<path d="M111.748 241.448L88.9531 287.956V303.518H145.123V241.448H111.748Z" fill="#EBEBEB"/>
<path d="M186.926 228.503H163.037V368.77H186.926V228.503Z" fill="#E0E0E0"/>
<path d="M172.724 368.77L498.936 368.77V204.941L172.724 204.941V368.77Z" fill="#EBEBEB"/>
<path d="M70.5865 380.142L498.936 380.142V368.77L70.5865 368.77V380.142Z" fill="#E6E6E6"/>
<path d="M142.268 390.862C149.457 373.506 141.215 353.607 123.858 346.418C106.502 339.228 86.6033 347.471 79.414 364.827C72.2246 382.184 80.4668 402.082 97.8235 409.272C115.18 416.461 135.079 408.219 142.268 390.862Z" fill="#E6E6E6"/>
<path d="M110.842 361.046C114.18 361.043 117.443 362.031 120.22 363.884C122.996 365.736 125.16 368.371 126.438 371.454C127.717 374.537 128.052 377.93 127.401 381.204C126.751 384.477 125.144 387.484 122.784 389.844C120.424 392.204 117.417 393.811 114.143 394.462C110.869 395.112 107.477 394.777 104.393 393.499C101.31 392.221 98.6758 390.056 96.8231 387.28C94.9704 384.504 93.9828 381.241 93.9853 377.903C93.9919 373.434 95.7701 369.151 98.93 365.991C102.09 362.831 106.374 361.053 110.842 361.046ZM110.842 356.014C106.51 356.014 102.275 357.299 98.6732 359.706C95.0712 362.113 92.264 365.534 90.6067 369.537C88.9493 373.54 88.5163 377.944 89.3624 382.193C90.2085 386.442 92.2957 390.345 95.36 393.407C98.4243 396.47 102.328 398.555 106.577 399.398C110.827 400.242 115.231 399.806 119.233 398.147C123.234 396.487 126.654 393.678 129.059 390.075C131.464 386.471 132.747 382.235 132.744 377.903C132.744 375.028 132.178 372.18 131.077 369.524C129.976 366.867 128.363 364.453 126.329 362.421C124.295 360.388 121.88 358.776 119.223 357.677C116.566 356.577 113.718 356.012 110.842 356.014Z" fill="#F5F5F5"/>
<path d="M353.875 401.895C367.159 388.611 367.159 367.073 353.875 353.789C340.591 340.504 319.053 340.504 305.769 353.789C292.485 367.073 292.485 388.611 305.769 401.895C319.053 415.179 340.591 415.179 353.875 401.895Z" fill="#E6E6E6"/>
<path d="M329.822 361.046C333.16 361.043 336.423 362.031 339.2 363.884C341.976 365.736 344.14 368.371 345.418 371.454C346.697 374.537 347.032 377.93 346.381 381.204C345.731 384.477 344.124 387.484 341.764 389.844C339.404 392.204 336.397 393.811 333.123 394.462C329.849 395.112 326.456 394.777 323.373 393.499C320.29 392.221 317.656 390.056 315.803 387.28C313.95 384.504 312.963 381.241 312.965 377.903C312.972 373.434 314.75 369.151 317.91 365.991C321.07 362.831 325.354 361.053 329.822 361.046ZM329.822 356.014C325.49 356.014 321.255 357.299 317.653 359.706C314.051 362.113 311.244 365.534 309.587 369.537C307.929 373.54 307.496 377.944 308.342 382.193C309.189 386.442 311.276 390.345 314.34 393.407C317.404 396.47 321.308 398.555 325.557 399.398C329.807 400.242 334.211 399.806 338.213 398.147C342.214 396.487 345.634 393.678 348.039 390.075C350.444 386.471 351.727 382.235 351.724 377.903C351.724 375.028 351.158 372.18 350.057 369.524C348.956 366.867 347.342 364.453 345.309 362.421C343.275 360.388 340.86 358.776 338.203 357.677C335.546 356.577 332.698 356.012 329.822 356.014Z" fill="#F5F5F5"/>
<path d="M493.727 215.898H382.294V364.304H493.727V215.898Z" fill="#E0E0E0"/>
<path d="M438.01 319.922H406.095V364.304H438.01V319.922Z" fill="#FAFAFA"/>
<path d="M426.148 319.922H417.958V335.119H426.148V319.922Z" fill="#F5F5F5"/>
<path d="M474.128 329.823H442.212V364.292H474.128V329.823Z" fill="#FAFAFA"/>
<path d="M438.011 364.304H442.212V329.835H438.011V364.304Z" fill="#EBEBEB"/>
<path d="M462.265 329.823H454.075V345.019H462.265V329.823Z" fill="#F5F5F5"/>
<path d="M493.727 364.292H558.414V215.885H493.727V364.292Z" fill="#F0F0F0"/>
<path d="M382.281 364.292H406.082V215.885H382.281V364.292Z" fill="#F0F0F0"/>
<path d="M294.8 330.753C323.035 330.753 345.925 307.864 345.925 279.628C345.925 251.393 323.035 228.503 294.8 228.503C266.564 228.503 243.675 251.393 243.675 279.628C243.675 307.864 266.564 330.753 294.8 330.753Z" fill="white"/>
<path d="M303.027 250.644H286.573V308.613H303.027V250.644Z" fill="#EBEBEB"/>
<path d="M323.771 287.856V271.401H265.803V287.856H323.771Z" fill="#EBEBEB"/>
<path d="M358.864 79.5767C363.035 53.8798 345.585 29.667 319.888 25.4958C294.191 21.3247 269.978 38.7746 265.807 64.4715C261.636 90.1683 279.086 114.381 304.783 118.552C330.48 122.724 354.692 105.274 358.864 79.5767Z" fill="#FAFAFA"/>
<path d="M389.262 98.735C393.842 70.5213 374.683 43.9369 346.469 39.3572C318.255 34.7775 291.671 53.9366 287.091 82.1504C282.511 110.364 301.671 136.948 329.884 141.528C358.098 146.108 384.682 126.949 389.262 98.735Z" fill="#FAFAFA"/>
<path d="M302.073 127.923C318.369 111.628 318.369 85.2069 302.073 68.9112C285.777 52.6154 259.356 52.6154 243.061 68.9112C226.765 85.2069 226.765 111.628 243.061 127.923C259.356 144.219 285.777 144.219 302.073 127.923Z" fill="#FAFAFA"/>
<path d="M227.371 127.398C240.19 127.398 250.581 117.006 250.581 104.188C250.581 91.3689 240.19 80.9774 227.371 80.9774C214.552 80.9774 204.161 91.3689 204.161 104.188C204.161 117.006 214.552 127.398 227.371 127.398Z" fill="#FAFAFA"/>
<path d="M402.533 122.809C412.82 112.522 412.82 95.8425 402.533 85.5551C392.245 75.2677 375.566 75.2676 365.279 85.555C354.991 95.8424 354.991 112.522 365.279 122.809C375.566 133.096 392.245 133.096 402.533 122.809Z" fill="#FAFAFA"/>
<path d="M492.532 84.7892C511.041 84.7892 526.046 69.7848 526.046 51.2761C526.046 32.7673 511.041 17.7629 492.532 17.7629C474.024 17.7629 459.019 32.7673 459.019 51.2761C459.019 69.7848 474.024 84.7892 492.532 84.7892Z" fill="#F5F5F5"/>
<path d="M462.441 83.6319C476.503 83.6319 487.903 72.2322 487.903 58.1699C487.903 44.1077 476.503 32.708 462.441 32.708C448.379 32.708 436.979 44.1077 436.979 58.1699C436.979 72.2322 448.379 83.6319 462.441 83.6319Z" fill="#F5F5F5"/>
<path d="M520.095 93.3058C536.478 93.3058 549.759 80.0249 549.759 63.6421C549.759 47.2594 536.478 33.9785 520.095 33.9785C503.712 33.9785 490.431 47.2594 490.431 63.6421C490.431 80.0249 503.712 93.3058 520.095 93.3058Z" fill="#F5F5F5"/>
<path d="M547.004 73.8849C556.694 71.5979 562.695 61.8887 560.408 52.1988C558.121 42.509 548.412 36.5078 538.722 38.7948C529.032 41.0818 523.031 50.791 525.318 60.4809C527.605 70.1707 537.314 76.172 547.004 73.8849Z" fill="#F5F5F5"/>
<path d="M143.286 84.7137C159.398 84.7137 172.459 71.6525 172.459 55.5407C172.459 39.4289 159.398 26.3677 143.286 26.3677C127.174 26.3677 114.113 39.4289 114.113 55.5407C114.113 71.6525 127.174 84.7137 143.286 84.7137Z" fill="#F5F5F5"/>
<path d="M174.551 71.1162C186.466 68.3041 193.845 56.3658 191.033 44.4513C188.221 32.5367 176.282 25.1577 164.368 27.9698C152.453 30.7819 145.074 42.7202 147.886 54.6348C150.698 66.5493 162.637 73.9283 174.551 71.1162Z" fill="#F5F5F5"/>
<path d="M119.283 70.5863C133.54 70.5863 145.098 59.0289 145.098 44.7722C145.098 30.5154 133.54 18.958 119.283 18.958C105.027 18.958 93.4692 30.5154 93.4692 44.7722C93.4692 59.0289 105.027 70.5863 119.283 70.5863Z" fill="#F5F5F5"/>
<path d="M110.557 62.2351C116.683 56.1089 116.683 46.1763 110.557 40.05C104.431 33.9238 94.4981 33.9238 88.3719 40.05C82.2456 46.1763 82.2456 56.1089 88.3719 62.2351C94.4981 68.3614 104.431 68.3614 110.557 62.2351Z" fill="#F5F5F5"/>
<path d="M314.5 468.681C449.21 468.681 558.414 462.305 558.414 454.44C558.414 446.575 449.21 440.199 314.5 440.199C179.79 440.199 70.5864 446.575 70.5864 454.44C70.5864 462.305 179.79 468.681 314.5 468.681Z" fill="#F5F5F5"/>
<path d="M177.089 383.489H93.2305V450.251H177.089V383.489Z" fill="#407BFF"/>
<path opacity="0.7" d="M177.089 383.489H93.2305V450.251H177.089V383.489Z" fill="white"/>
<path opacity="0.4" d="M177.089 383.489H147.412V450.251H177.089V383.489Z" fill="#407BFF"/>
<path d="M169.83 416.864C169.83 423.871 166.937 429.544 163.364 429.544C159.791 429.544 156.898 423.871 156.898 416.864C156.898 409.856 159.791 404.195 163.364 404.195C166.937 404.195 169.83 409.869 169.83 416.864Z" fill="white"/>
<path d="M164.572 409.064H162.144V424.663H164.572V409.064Z" fill="#407BFF"/>
<path d="M167.981 418.926V414.813H158.747V418.926H167.981Z" fill="#407BFF"/>
<path opacity="0.7" d="M115.019 450.238H125.611V424.99H115.019V450.238Z" fill="white"/>
<path opacity="0.7" d="M115.019 395.326H125.611V383.489H115.019V395.326Z" fill="white"/>
<path d="M244.329 383.489H160.471V450.251H244.329V383.489Z" fill="#407BFF"/>
<path opacity="0.7" d="M244.329 383.489H160.471V450.251H244.329V383.489Z" fill="white"/>
<path opacity="0.4" d="M244.316 383.489H214.64V450.251H244.316V383.489Z" fill="#407BFF"/>
<path d="M237.057 416.864C237.057 423.871 234.164 429.544 230.591 429.544C227.019 429.544 224.125 423.871 224.125 416.864C224.125 409.856 227.019 404.195 230.591 404.195C234.164 404.195 237.057 409.869 237.057 416.864Z" fill="white"/>
<path d="M231.799 409.064H229.371V424.663H231.799V409.064Z" fill="#407BFF"/>
<path d="M235.208 418.926V414.813H225.975V418.926H235.208Z" fill="#407BFF"/>
<path opacity="0.7" d="M192.851 383.489H182.259V408.737H192.851V383.489Z" fill="white"/>
<path opacity="0.7" d="M192.851 438.4H182.259V450.238H192.851V438.4Z" fill="white"/>
<path d="M216.665 332.439H132.807V383.489H216.665V332.439Z" fill="#407BFF"/>
<path opacity="0.7" d="M216.665 332.439H132.807V383.489H216.665V332.439Z" fill="white"/>
<path opacity="0.4" d="M216.665 332.439H186.989V383.489H216.665V332.439Z" fill="#407BFF"/>
<path d="M202.928 370.644C206.499 370.644 209.394 364.967 209.394 357.964C209.394 350.96 206.499 345.283 202.928 345.283C199.357 345.283 196.462 350.96 196.462 357.964C196.462 364.967 199.357 370.644 202.928 370.644Z" fill="white"/>
<path d="M204.148 350.164H201.72V365.763H204.148V350.164Z" fill="#407BFF"/>
<path d="M207.545 360.027V355.913H198.311V360.027H207.545Z" fill="#407BFF"/>
<path opacity="0.7" d="M165.188 332.439H154.595V349.824H165.188V332.439Z" fill="white"/>
<path opacity="0.7" d="M165.188 371.651H154.595V383.489H165.188V371.651Z" fill="white"/>
<path d="M231.988 127.058L236.504 134.606C238.052 137.122 239.586 139.638 241.171 142.066C244.316 147.01 247.575 151.853 250.996 156.432C251.839 157.602 252.732 158.684 253.588 159.816C254.028 160.382 254.481 160.898 254.921 161.439L255.588 162.257L255.928 162.659C255.928 162.722 255.928 162.659 255.928 162.659L255.815 162.559L255.588 162.395C254.984 162.005 254.745 162.043 254.808 162.106C255.04 162.263 255.309 162.359 255.588 162.383C256.671 162.543 257.766 162.594 258.859 162.534C264.501 162.085 270.11 161.287 275.653 160.143L278.773 167.578C276.068 169.329 273.233 170.873 270.294 172.195C267.256 173.613 264.088 174.733 260.834 175.541C258.944 176.014 257.008 176.28 255.06 176.334C253.815 176.367 252.57 176.262 251.349 176.019C249.579 175.668 247.911 174.924 246.468 173.843C246.245 173.678 246.031 173.502 245.826 173.315L245.499 173.013L245.26 172.786L244.832 172.346L243.977 171.478C243.411 170.887 242.819 170.308 242.279 169.717C241.209 168.459 240.064 167.352 239.071 166.131C234.973 161.316 231.147 156.276 227.61 151.035C225.862 148.519 224.151 145.84 222.578 143.186C221.006 140.531 219.395 137.889 217.848 134.996L231.988 127.058Z" fill="#FF8B7B"/>
<path d="M272.873 162.081L281.881 153.677L288.586 163.905C288.586 163.905 282.522 171.302 275.301 167.943L272.873 162.081Z" fill="#407BFF"/>
<path d="M293.114 151.979L294.372 157.577C294.476 158.037 294.448 158.517 294.292 158.961C294.137 159.406 293.859 159.798 293.492 160.093L288.623 163.943L281.918 153.715L289.705 150.293C290.038 150.154 290.396 150.087 290.757 150.098C291.117 150.109 291.471 150.198 291.795 150.358C292.118 150.518 292.403 150.745 292.631 151.025C292.858 151.305 293.023 151.63 293.114 151.979Z" fill="#407BFF"/>
<path d="M257.74 442.464C257.697 442.444 257.661 442.412 257.636 442.371C257.611 442.331 257.599 442.284 257.601 442.237C257.598 442.185 257.613 442.133 257.643 442.09C257.672 442.047 257.715 442.015 257.765 441.998C258.28 441.81 262.797 440.224 264.055 441.13C264.165 441.215 264.253 441.326 264.31 441.454C264.367 441.581 264.392 441.721 264.382 441.86C264.374 442.09 264.311 442.314 264.2 442.515C264.088 442.717 263.931 442.888 263.74 443.017C262.482 443.898 259.438 443.017 257.765 442.476L257.74 442.464ZM263.665 441.482C262.897 441.092 260.457 441.659 258.633 442.237C260.935 442.942 262.696 443.08 263.426 442.589C263.556 442.51 263.664 442.397 263.737 442.262C263.81 442.127 263.846 441.975 263.841 441.822C263.85 441.767 263.843 441.71 263.821 441.659C263.798 441.607 263.762 441.564 263.715 441.533L263.665 441.482Z" fill="#407BFF"/>
<path d="M259.815 438.312C260.027 438.171 260.267 438.075 260.518 438.032C260.769 437.989 261.027 437.998 261.274 438.061C261.954 438.224 262.105 438.602 262.105 438.891C262.105 440.149 259.274 442.086 257.915 442.489C257.888 442.501 257.858 442.507 257.827 442.507C257.797 442.507 257.767 442.501 257.739 442.489C257.709 442.458 257.686 442.42 257.673 442.379C257.66 442.337 257.657 442.293 257.664 442.25C257.626 442.061 258.305 439.231 259.815 438.312ZM261.601 438.904C261.601 438.904 261.601 438.74 261.4 438.652L261.149 438.551H261.035C260.703 438.5 260.363 438.572 260.079 438.753C259.157 439.57 258.508 440.65 258.217 441.847C259.639 441.218 261.664 439.646 261.664 438.904H261.601Z" fill="#407BFF"/>
<path d="M247.638 443.42L258.356 443.256L257.689 418.323L246.958 418.499L247.638 443.42Z" fill="#FF8B7B"/>
<path d="M258.482 442.011L246.77 442.2C246.563 442.196 246.363 442.27 246.209 442.408C246.054 442.545 245.958 442.736 245.939 442.942L244.92 452.528C244.901 452.77 244.932 453.013 245.012 453.243C245.093 453.472 245.219 453.682 245.385 453.859C245.551 454.037 245.752 454.178 245.975 454.274C246.198 454.369 246.439 454.417 246.681 454.415C250.896 454.277 256.972 453.924 262.281 453.849C268.495 453.748 267.891 454 275.175 453.849C279.578 453.786 280.283 449.307 278.396 448.93C269.791 447.219 268.923 447.131 261.161 442.766C260.347 442.289 259.425 442.029 258.482 442.011Z" fill="#263238"/>
<path opacity="0.2" d="M257.689 418.336L258.029 431.18L247.31 431.356L246.958 418.499L257.689 418.336Z" fill="black"/>
<path d="M232.869 79.6316C232.454 87.6702 233.171 103.458 227.321 108.566C231.334 112.906 237.976 116.365 247.311 116.944C256.645 117.523 254.519 112.302 252.267 108.868C243.612 106.54 245.159 98.8035 247.084 92.8154L232.869 79.6316Z" fill="#FF8B7B"/>
<path d="M223.245 107.27C223.471 105.018 224.88 100.502 230.944 102.062C237.007 103.622 244.165 103.068 249.613 103.383C255.06 103.697 255.362 110.528 255.362 110.528L223.245 107.27Z" fill="#407BFF"/>
<path d="M225.434 105.76C238.354 105.622 254.469 107.194 263.174 109.949C264.299 110.301 265.29 110.989 266.014 111.919C266.738 112.85 267.161 113.98 267.225 115.157C267.741 124.894 269.15 156.948 270.37 206.916L212.892 207.847C213.271 180.234 211.762 152.628 208.376 125.221C208.076 122.796 208.292 120.335 209.01 117.999C209.729 115.663 210.933 113.506 212.544 111.668C214.155 109.83 216.136 108.354 218.357 107.336C220.579 106.318 222.99 105.781 225.434 105.76Z" fill="#263238"/>
<path d="M358.525 131.364L278.881 120.905L272.514 169.389L352.159 179.848L358.525 131.364Z" fill="#407BFF"/>
<path opacity="0.7" d="M358.525 131.364L278.881 120.905L272.514 169.389L352.159 179.848L358.525 131.364Z" fill="white"/>
<path opacity="0.4" d="M359.525 131.028L305.453 124.044L299.179 172.615L353.251 179.599L359.525 131.028Z" fill="#407BFF"/>
<path d="M343.112 153.608C343.972 146.945 339.395 140.863 332.89 140.024C326.386 139.185 320.416 143.906 319.556 150.569C318.697 157.233 323.273 163.315 329.778 164.154C336.283 164.993 342.253 160.271 343.112 153.608Z" fill="white"/>
<path d="M334.544 144.959L330.115 144.387L328.198 159.222L332.627 159.794L334.544 144.959Z" fill="#407BFF"/>
<path d="M339.535 155.145L340.039 151.24L323.208 149.066L322.704 152.971L339.535 155.145Z" fill="#407BFF"/>
<path opacity="0.7" d="M294.413 122.615L289.822 122.022L287.685 138.566L292.276 139.159L294.413 122.615Z" fill="white"/>
<path opacity="0.7" d="M289.594 159.927L285.002 159.334L283.547 170.6L288.138 171.193L289.594 159.927Z" fill="white"/>
<path d="M270.949 124.052C271.225 125.31 271.603 126.844 271.942 128.253L273.024 132.581C273.792 135.462 274.572 138.33 275.44 141.16C276.308 143.991 277.188 146.796 278.207 149.539C279.226 152.281 280.245 154.973 281.44 157.539C282.032 158.797 282.635 160.055 283.277 161.313C283.591 161.942 283.931 162.571 284.258 163.125L284.774 163.993L285.026 164.421V164.358L284.887 164.194C284.793 164.083 284.692 163.978 284.585 163.88C284.225 163.535 283.796 163.27 283.327 163.1C283.143 163.01 282.941 162.963 282.736 162.961C282.585 162.961 282.837 163.112 283.201 163.15C284.293 163.186 285.385 163.106 286.46 162.911C292.173 161.713 297.807 160.163 303.329 158.269L307.305 165.289C304.77 167.409 302.088 169.347 299.279 171.088C296.354 172.91 293.262 174.447 290.045 175.68C288.139 176.405 286.155 176.903 284.132 177.164C282.747 177.358 281.341 177.358 279.956 177.164C278.99 176.999 278.048 176.716 277.15 176.321C276.002 175.8 274.955 175.08 274.056 174.195C273.812 173.956 273.581 173.704 273.364 173.441L273.049 173.038L272.873 172.786L272.483 172.245L271.728 171.088C271.25 170.358 270.747 169.629 270.294 168.899C269.363 167.427 268.495 165.943 267.703 164.446C264.6 158.57 261.999 152.443 259.928 146.129C258.897 143.022 257.966 139.915 257.136 136.757C256.721 135.197 256.331 133.612 255.966 132.015C255.601 130.417 255.299 128.882 254.972 127.108L270.949 124.052Z" fill="#FF8B7B"/>
<path d="M250.066 115.812C244.933 124.844 258.695 154.973 258.695 154.973L280.081 146.834C280.081 146.834 279.264 131.587 273.64 119.799C267.803 107.71 255.689 105.911 250.066 115.812Z" fill="#263238"/>
<path d="M318.06 153.778L314.186 154.118C311.962 154.304 309.785 154.861 307.745 155.766L301.946 158.282C301.576 158.445 301.281 158.741 301.118 159.111C300.955 159.481 300.936 159.899 301.065 160.282L303.329 167.138C303.446 167.492 303.68 167.796 303.994 167.998C304.308 168.199 304.682 168.287 305.053 168.245C308.123 168.014 311.142 167.327 314.01 166.207L318.941 164.207C319.321 164.02 319.641 163.729 319.863 163.369C320.086 163.008 320.202 162.592 320.199 162.169L320.438 156.508C320.467 156.171 320.428 155.832 320.324 155.511C320.219 155.19 320.051 154.893 319.829 154.638C319.607 154.383 319.336 154.176 319.032 154.028C318.728 153.88 318.398 153.795 318.06 153.778Z" fill="#407BFF"/>
<path d="M305.38 159.489C306.537 158.143 307.896 152.533 307.103 151.086C306.311 149.639 304.977 153.325 304.147 154.306C301.845 157.024 299.92 159.779 301.556 160.596C303.191 161.414 303.342 161.842 305.38 159.489Z" fill="#407BFF"/>
<path d="M259.01 73.0772C259.085 73.9452 259.601 74.5994 260.167 74.5491C260.733 74.4988 261.123 73.7565 261.06 72.8885C260.997 72.0205 260.469 71.3663 259.903 71.4292C259.337 71.4921 258.934 72.2218 259.01 73.0772Z" fill="#263238"/>
<path d="M257.966 73.0271C259.212 75.5694 260.804 77.9273 262.696 80.0342C262.144 80.5083 261.497 80.8574 260.797 81.0572C260.098 81.257 259.364 81.3028 258.645 81.1915L257.966 73.0271Z" fill="#FF5652"/>
<path d="M256.079 68.649C255.992 68.6374 255.907 68.6119 255.827 68.5735C255.771 68.5378 255.722 68.491 255.683 68.436C255.645 68.3809 255.618 68.3188 255.603 68.2531C255.589 68.1875 255.589 68.1197 255.601 68.0537C255.614 67.9878 255.639 67.925 255.676 67.8691C256.082 67.1609 256.653 66.5618 257.341 66.1235C258.029 65.6852 258.814 65.4208 259.627 65.3531C259.693 65.3496 259.76 65.3598 259.822 65.3829C259.885 65.4061 259.942 65.4417 259.99 65.4876C260.038 65.5335 260.077 65.5887 260.103 65.6499C260.129 65.7112 260.142 65.7771 260.142 65.8437C260.144 65.9114 260.132 65.9788 260.108 66.042C260.084 66.1053 260.047 66.1631 260 66.2121C259.953 66.2612 259.898 66.3006 259.836 66.328C259.774 66.3555 259.707 66.3704 259.639 66.372C259.001 66.4338 258.386 66.6461 257.846 66.9917C257.306 67.3372 256.856 67.8061 256.532 68.3597C256.49 68.4449 256.426 68.517 256.346 68.568C256.266 68.619 256.174 68.6471 256.079 68.649Z" fill="#263238"/>
<path d="M229.51 71.8066C231.032 82.3486 231.397 88.6009 237.196 93.5574C245.927 101.005 258.582 94.9538 260.281 84.135C261.778 74.4107 259.023 58.7989 248.305 55.5281C245.928 54.8029 243.407 54.6927 240.976 55.2076C238.546 55.7226 236.286 56.846 234.408 58.4725C232.53 60.0991 231.096 62.1757 230.239 64.5077C229.382 66.8398 229.131 69.3512 229.51 71.8066Z" fill="#FF8B7B"/>
<path d="M254.846 77.1406C255.469 76.7655 256.004 76.2599 256.413 75.6584C256.822 75.0569 257.095 74.374 257.215 73.6565C257.334 72.9391 257.297 72.2043 257.105 71.5027C256.914 70.8012 256.572 70.1495 256.104 69.5926C254.393 67.5672 251.362 64.07 253.073 62.5855C254.783 61.1011 263.589 58.0819 260.344 52.0058C257.098 45.9296 250.28 42.2059 245.751 46.7222C241.222 51.2384 239.838 48.8985 232.529 47.9802C225.22 47.0618 221.95 54.5092 224.44 57.4655C226.931 60.4218 217.911 61.9062 220.868 65.7935C215.345 68.6617 220.704 77.6941 225.069 81.5813C229.435 85.4686 226.466 91.9976 233.875 94.413C241.285 96.8283 258.193 85.544 254.846 77.1406Z" fill="#263238"/>
<path d="M254.204 91.2552C254.081 91.2554 253.961 91.2228 253.855 91.1609C253.749 91.099 253.661 91.01 253.6 90.9029C253.361 90.513 247.839 81.1157 251.676 75.8069C252.997 73.9954 254.368 73.14 255.777 73.2909C258.104 73.4671 259.765 76.1717 260.96 78.499C261.045 78.6659 261.06 78.8597 261.002 79.0378C260.945 79.2159 260.818 79.3638 260.652 79.4488C260.485 79.5339 260.291 79.5492 260.113 79.4914C259.935 79.4336 259.787 79.3075 259.702 79.1406C259.148 78.0713 257.488 74.8257 255.651 74.6873C254.758 74.6873 253.802 75.2786 252.795 76.6624C249.499 81.2038 254.733 90.1104 254.796 90.1984C254.888 90.3608 254.914 90.553 254.867 90.7339C254.82 90.9149 254.704 91.0703 254.544 91.1671C254.439 91.2227 254.323 91.2529 254.204 91.2552Z" fill="#407BFF"/>
<path d="M186.7 438.816C186.656 438.8 186.618 438.771 186.591 438.733C186.564 438.695 186.549 438.649 186.549 438.602C186.545 438.549 186.557 438.497 186.584 438.452C186.611 438.407 186.652 438.371 186.7 438.35C187.203 438.124 191.632 436.187 192.89 436.992C193.011 437.065 193.11 437.168 193.179 437.292C193.247 437.415 193.282 437.555 193.279 437.696C193.301 437.936 193.262 438.177 193.165 438.397C193.068 438.617 192.917 438.808 192.726 438.954C191.468 439.923 188.449 439.319 186.738 438.879L186.7 438.816ZM192.537 437.369C191.745 437.042 189.355 437.809 187.606 438.514C189.946 439.042 191.72 439.042 192.411 438.514C192.535 438.421 192.632 438.299 192.693 438.158C192.755 438.017 192.779 437.862 192.764 437.709C192.769 437.654 192.759 437.599 192.735 437.55C192.71 437.501 192.672 437.46 192.625 437.432L192.537 437.369Z" fill="#407BFF"/>
<path d="M188.449 434.501C188.863 434.201 189.377 434.074 189.883 434.148C190.575 434.261 190.764 434.639 190.789 434.916C190.914 436.174 188.273 438.312 186.889 438.828C186.832 438.847 186.77 438.847 186.713 438.828H186.637C186.605 438.795 186.58 438.756 186.565 438.712C186.55 438.669 186.545 438.622 186.549 438.576C186.562 438.425 187.015 435.545 188.449 434.501ZM190.285 434.966C190.285 434.966 190.285 434.815 190.059 434.727L189.795 434.651H189.581C189.278 434.654 188.984 434.751 188.738 434.928C187.888 435.816 187.334 436.946 187.153 438.161C188.512 437.432 190.361 435.708 190.285 434.966Z" fill="#407BFF"/>
<path d="M175.894 437.734L186.247 440.439L193.242 416.423L182.889 413.731L175.894 437.734Z" fill="#FF8B7B"/>
<path d="M186.989 438.363L175.667 435.407C175.469 435.352 175.257 435.374 175.074 435.467C174.89 435.56 174.747 435.718 174.674 435.91L171.088 444.867C171.006 445.099 170.973 445.347 170.993 445.593C171.013 445.839 171.085 446.077 171.204 446.294C171.322 446.51 171.486 446.699 171.683 446.847C171.88 446.996 172.106 447.101 172.346 447.156C176.447 448.15 177.819 448.175 182.964 449.521C188.964 451.081 190.009 454.352 197.292 454.415C201.695 454.415 202.513 450.012 200.639 449.572C194.701 448.175 191.317 443.005 189.405 439.847C188.823 439.057 187.957 438.525 186.989 438.363Z" fill="#263238"/>
<path opacity="0.2" d="M193.242 416.423L189.631 428.802L179.278 426.11L182.889 413.731L193.242 416.423Z" fill="black"/>
<path d="M200.714 310.424C206.904 270.08 204.262 230.805 212.942 207.847L250.921 207.23C250.921 207.23 234.441 280.786 227.019 312.902C219.32 346.353 194.864 423.959 194.864 423.959L178.108 419.568C178.108 419.568 190.864 339.522 200.714 310.424Z" fill="#407BFF"/>
<path opacity="0.2" d="M228.139 276.269C228.139 284.245 228.73 292.875 229.535 302.084C234.429 280.559 241.285 250.116 245.889 229.56C231.95 239.976 228.139 255.99 228.139 276.269Z" fill="black"/>
<path d="M249.361 78.2098C249.673 79.29 250.196 80.2976 250.9 81.1743C251.604 82.051 252.475 82.7794 253.462 83.3173C256.116 84.7514 258.129 82.5373 257.953 79.6817C257.802 77.1657 256.242 73.3036 253.299 73.052C252.657 73.0079 252.015 73.1235 251.429 73.3887C250.843 73.6538 250.332 74.0602 249.942 74.5713C249.552 75.0824 249.294 75.6824 249.193 76.3174C249.092 76.9524 249.149 77.6026 249.361 78.2098Z" fill="#FF8B7B"/>
<path d="M259.4 75.2662C262.696 75.8575 263.174 79.2289 263.174 80.7134C263.174 82.1978 260.205 93.4695 254.166 95.6081C248.128 97.7467 248.128 96.3 249.021 94.7652C249.914 93.2305 258.041 85.607 259.4 75.2662Z" fill="#407BFF"/>
<path d="M240.102 310.726C234.932 268.47 227.963 229.9 233.359 207.457L270.382 206.866C270.382 206.866 268.231 282.119 266.445 314.802C264.583 348.768 261.979 428.588 261.979 428.588L243.788 428.865C243.788 428.865 237.586 353.423 240.102 310.726Z" fill="#407BFF"/>
<path d="M263.111 429.028L241.486 429.368L240.266 422.361L264.369 421.606L263.111 429.028Z" fill="#263238"/>
<path d="M196.223 428.098L175.303 422.65L175.995 415.568L199.431 421.292L196.223 428.098Z" fill="#263238"/>
<path d="M437.356 75.5807C424.135 86.2611 420.776 103.508 425.531 111.32C432.299 122.429 459.497 125.372 472.392 118.692C478.392 115.573 483.814 80.273 466.404 73.5302C459.824 64.0323 444.829 69.5297 437.356 75.5807Z" fill="#263238"/>
<path d="M484.77 414.008L475.172 420.839L448.25 395.238L459.849 382.684L484.77 414.008Z" fill="#FFC3BD"/>
<path d="M473.775 418.398L483.5 409.403C483.657 409.228 483.876 409.121 484.111 409.105C484.346 409.088 484.578 409.164 484.758 409.315L492.394 415.505C492.579 415.682 492.726 415.896 492.823 416.134C492.92 416.371 492.966 416.627 492.957 416.883C492.949 417.139 492.887 417.391 492.774 417.622C492.662 417.853 492.502 418.057 492.306 418.222C488.871 421.304 487.073 422.625 482.795 426.588C480.166 429.016 474.958 434.299 471.322 437.658C467.687 441.017 464.454 437.834 465.687 436.136C471.234 428.487 472.19 424.135 472.845 420.235C472.952 419.539 473.278 418.896 473.775 418.398Z" fill="#263238"/>
<path d="M471.813 422.814C471.15 423.552 470.268 424.059 469.297 424.26C469.053 424.286 468.807 424.244 468.586 424.14C468.364 424.035 468.175 423.873 468.039 423.669C467.948 423.551 467.889 423.411 467.867 423.264C467.845 423.117 467.861 422.966 467.913 422.826C468.479 421.304 473.436 419.769 473.989 419.593C474.042 419.58 474.098 419.582 474.149 419.6C474.201 419.618 474.246 419.65 474.279 419.694C474.309 419.741 474.325 419.795 474.325 419.851C474.325 419.907 474.309 419.961 474.279 420.008C473.539 421.012 472.714 421.951 471.813 422.814ZM468.756 422.562C468.615 422.677 468.503 422.824 468.429 422.99C468.408 423.045 468.402 423.105 468.414 423.162C468.425 423.22 468.452 423.274 468.492 423.317C468.575 423.449 468.693 423.556 468.833 423.627C468.972 423.698 469.128 423.73 469.284 423.719C470.203 423.719 471.7 422.461 473.348 420.361C471.709 420.844 470.159 421.587 468.756 422.562Z" fill="#407BFF"/>
<path d="M474.266 420.046L474.165 420.109C472.731 420.625 469.133 420.763 468.442 419.694C468.278 419.442 468.202 419.027 468.718 418.436C469.084 418.016 469.598 417.755 470.152 417.706C472.014 417.555 474.191 419.555 474.279 419.644C474.312 419.675 474.337 419.715 474.35 419.759C474.363 419.803 474.365 419.85 474.354 419.895C474.334 419.95 474.304 420.001 474.266 420.046ZM469.234 418.662L469.121 418.788C468.781 419.166 468.882 419.329 468.907 419.379C469.322 420.021 471.951 420.122 473.536 419.744C472.605 418.894 471.421 418.372 470.165 418.26C469.819 418.287 469.491 418.429 469.234 418.662Z" fill="#407BFF"/>
<path d="M462.881 444.715L451.509 445.105L449.32 405.378L465.12 405.604L462.881 444.715Z" fill="#FFC3BD"/>
<path d="M450.729 441.482L463.497 441.394C463.712 441.384 463.922 441.459 464.083 441.602C464.243 441.746 464.34 441.947 464.353 442.162L465.12 452.226C465.125 452.488 465.078 452.75 464.982 452.994C464.887 453.239 464.743 453.462 464.561 453.651C464.379 453.841 464.161 453.992 463.92 454.097C463.68 454.202 463.42 454.259 463.158 454.264C458.717 454.264 456.591 453.974 450.98 454.012C447.521 454.012 442.451 454.427 437.683 454.465C432.915 454.503 432.978 449.785 434.991 449.345C444.024 447.37 445.609 444.715 448.829 442.174C449.371 441.744 450.037 441.501 450.729 441.482Z" fill="#263238"/>
<path d="M431.142 143.412C430.462 146.092 429.707 148.658 428.94 151.262C428.173 153.866 427.38 156.445 426.512 159.024C424.789 164.182 422.952 169.302 420.65 174.472C420.059 175.73 419.455 177.064 418.763 178.397C418.023 179.846 417.182 181.242 416.247 182.574C415.536 183.586 414.689 184.496 413.731 185.278C412.703 186.055 411.496 186.562 410.221 186.75C409.488 186.859 408.745 186.884 408.007 186.826C407.011 186.711 406.029 186.496 405.076 186.184C404.29 185.958 403.518 185.689 402.761 185.379C400.088 184.251 397.516 182.895 395.075 181.328C392.715 179.83 390.451 178.187 388.294 176.409C387.723 175.932 387.334 175.272 387.194 174.54C387.055 173.809 387.173 173.052 387.529 172.398C387.885 171.744 388.457 171.233 389.147 170.953C389.837 170.673 390.602 170.641 391.313 170.862H391.414L398.861 173.239C401.195 174.018 403.568 174.677 405.969 175.214C406.474 175.334 406.987 175.418 407.504 175.466C407.829 175.52 408.16 175.52 408.485 175.466C408.485 175.466 408.485 175.466 408.271 175.466C407.653 175.55 407.07 175.802 406.585 176.196L406.447 176.309C406.447 176.309 406.573 176.133 406.686 175.919C407.22 175.028 407.686 174.099 408.082 173.139C408.561 172.082 409.026 170.95 409.479 169.78C411.253 165.1 412.838 160.118 414.372 155.124L416.649 147.576L418.851 140.028C419.331 138.429 420.416 137.081 421.876 136.271C423.335 135.461 425.053 135.252 426.664 135.69C428.274 136.128 429.65 137.178 430.499 138.616C431.347 140.053 431.6 141.765 431.204 143.387L431.142 143.412Z" fill="#407BFF"/>
<path d="M382.86 161.288L378.658 160.269C378.367 160.2 378.066 160.19 377.771 160.239C377.476 160.288 377.194 160.396 376.941 160.555C376.688 160.714 376.469 160.922 376.298 161.167C376.126 161.412 376.005 161.688 375.941 161.98L374.683 167.591C374.576 168.09 374.642 168.612 374.871 169.069C375.099 169.526 375.477 169.892 375.941 170.107L382.47 173.277C383.949 175.059 385.997 176.276 388.269 176.724C388.972 176.784 389.674 176.607 390.265 176.222C390.855 175.837 391.3 175.265 391.527 174.598L392.005 173.277C392.18 172.783 392.233 172.254 392.161 171.735C392.089 171.217 391.893 170.723 391.59 170.295L387.187 164.181C386.138 162.729 384.602 161.703 382.86 161.288Z" fill="#263238"/>
<path d="M387.3 170.295C386.835 168.547 387.98 162.408 389.275 161.288C390.571 160.168 390.471 163.955 390.735 165.414C391.389 168.974 392.861 171.704 391.678 174.082C390.848 175.73 388.093 173.34 387.3 170.295Z" fill="#263238"/>
<path d="M417.819 144.431C417.253 154.42 417.228 170.849 418.7 198.034L464.491 199.531C465.611 182.473 466.705 171.34 476.53 140.997C476.969 139.668 477.114 138.26 476.955 136.871C476.797 135.481 476.339 134.142 475.613 132.946C474.887 131.75 473.911 130.726 472.751 129.944C471.591 129.162 470.275 128.641 468.894 128.417C466.378 128.014 463.598 127.649 460.78 127.423C453.874 126.694 446.924 126.467 439.985 126.744C438.098 126.857 436.149 127.02 434.249 127.209C429.907 127.65 425.865 129.627 422.853 132.785C419.84 135.943 418.055 140.073 417.819 144.431Z" fill="#407BFF"/>
<path d="M439.985 126.781C439.985 126.781 433.469 127.838 438.614 141.751C446.827 138.408 454.344 133.561 460.78 127.461L439.985 126.781Z" fill="white"/>
<path d="M456.775 154.204C457.433 150.786 455.499 147.541 452.456 146.955C449.413 146.37 446.413 148.666 445.756 152.084C445.098 155.503 447.032 158.748 450.075 159.333C453.117 159.919 456.117 157.623 456.775 154.204Z" fill="white"/>
<path opacity="0.2" d="M467.46 145.928C466.882 152.859 466.416 164.735 467.85 172.182C468.882 167.226 470.266 161.678 472.19 155.023L467.46 145.928Z" fill="black"/>
<path d="M461.233 103.722C459.208 110.44 456.579 122.793 460.78 127.461C460.78 127.461 453.798 133.235 439.646 139.172C434.274 128.329 439.986 126.781 439.986 126.781C447.647 125.221 448.049 119.623 447.307 114.327L461.233 103.722Z" fill="#FFC3BD"/>
<path opacity="0.2" d="M457.384 108.943L447.32 114.314C447.51 115.563 447.594 116.826 447.571 118.088C449.735 118.088 455.232 116.214 457.157 112.616C457.665 111.457 457.745 110.155 457.384 108.943Z" fill="black"/>
<path d="M468.454 89.6953C467.196 100.904 466.957 105.672 461.007 111.169C452.062 119.434 438.564 115.484 436.413 104.15C434.476 93.9348 436.803 77.3292 448.012 73.3791C450.479 72.4959 453.131 72.2582 455.716 72.6885C458.301 73.1188 460.734 74.2029 462.782 75.8377C464.83 77.4725 466.427 79.6039 467.419 82.0292C468.412 84.4546 468.768 87.0935 468.454 89.6953Z" fill="#FFC3BD"/>
<path d="M453.069 74.4861C445.345 78.9394 461.963 96.2117 466.164 95.9853C473.297 91.7836 473.411 83.1663 469.435 79.0526C465.46 74.939 462.567 69.0389 453.069 74.4861Z" fill="#263238"/>
<path d="M460.277 106.54C460.099 106.538 459.928 106.47 459.798 106.349C459.667 106.228 459.586 106.063 459.57 105.886C459.555 105.709 459.606 105.532 459.713 105.39C459.82 105.248 459.976 105.152 460.151 105.118C465.183 104.25 468.303 102.602 469.033 100.552C469.198 99.7941 469.162 99.0064 468.928 98.267C468.694 97.5276 468.27 96.8624 467.699 96.3376C467.48 96.0773 467.21 95.8656 466.904 95.7161C466.599 95.5666 466.265 95.4826 465.925 95.4695C462.931 95.2682 458.692 99.0674 457.119 100.502L456.792 100.791C456.648 100.913 456.462 100.974 456.274 100.96C456.085 100.946 455.91 100.858 455.786 100.715C455.726 100.645 455.68 100.564 455.651 100.476C455.622 100.388 455.611 100.295 455.618 100.203C455.625 100.111 455.65 100.021 455.692 99.9379C455.734 99.8554 455.791 99.7819 455.861 99.7216L456.176 99.4322C458.063 97.7591 462.466 93.809 466.051 94.048C466.578 94.0716 467.095 94.2033 467.569 94.4349C468.042 94.6664 468.464 94.9929 468.806 95.3941C470.454 97.2685 471.02 99.2687 470.404 101.03C469.473 103.672 466.127 105.521 460.441 106.527L460.277 106.54Z" fill="#407BFF"/>
<path d="M461.422 73.6307C466.907 76.1467 441.709 76.2725 436.513 82.9022C440.841 76.3103 447.282 67.0514 461.422 73.6307Z" fill="#263238"/>
<path d="M418.7 198.034C418.7 198.034 395.087 298.498 397.188 324.25C399.704 354.354 448.188 397.566 448.188 397.566L462.026 382.47C462.026 382.47 432.752 349.397 421.581 323.507C425.204 297.63 457.61 223.924 456.239 199.267L418.7 198.034Z" fill="#407BFF"/>
<path opacity="0.4" d="M418.7 198.034C418.7 198.034 395.087 298.498 397.188 324.25C399.704 354.354 448.188 397.566 448.188 397.566L462.026 382.47C462.026 382.47 432.752 349.397 421.581 323.507C425.204 297.63 457.61 223.924 456.239 199.267L418.7 198.034Z" fill="white"/>
<path d="M464.944 384.294L448.376 399.201L443.495 396.144L461.598 378.947L464.944 384.294Z" fill="#407BFF"/>
<path opacity="0.3" d="M436.991 241.372C423.72 259.752 423.078 293.554 423.908 312.538C428.462 295.089 438.212 269.539 445.81 246.077C445.634 237.058 443.193 232.73 436.991 241.372Z" fill="#407BFF"/>
<path d="M427.254 197.644C427.254 197.644 436.538 284.673 439.495 314.412C442.992 349.724 448.125 406.334 448.125 406.334L465.12 405.629C465.12 405.629 468.894 357.637 466.076 326.011C466.579 284.044 473.914 225.484 464.491 199.556L427.254 197.644Z" fill="#407BFF"/>
<path opacity="0.4" d="M427.254 197.644C427.254 197.644 436.538 284.673 439.495 314.412C442.992 349.724 448.125 406.334 448.125 406.334L465.12 405.629C465.12 405.629 468.894 357.637 466.076 326.011C466.579 284.044 473.914 225.484 464.491 199.556L427.254 197.644Z" fill="white"/>
<path d="M466.403 408.712L446.917 408.158L445.558 402.032L467.599 401.415L466.403 408.712Z" fill="#407BFF"/>
<path d="M450.125 92.2742C450.125 93.1925 449.559 93.9096 448.968 93.8844C448.376 93.8593 447.911 93.0919 447.961 92.1736C448.012 91.2552 448.527 90.5381 449.119 90.5759C449.71 90.6136 450.163 91.3684 450.125 92.2742Z" fill="#263238"/>
<path d="M439.784 91.834C439.784 92.7397 439.218 93.4568 438.627 93.4316C438.036 93.4065 437.57 92.6391 437.621 91.7208C437.671 90.8024 438.187 90.0979 438.778 90.1231C439.369 90.1482 439.822 90.8779 439.784 91.834Z" fill="#263238"/>
<path d="M439.042 90.1484L436.878 89.4061C436.878 89.4061 437.922 91.1799 439.042 90.1484Z" fill="#263238"/>
<path d="M442.892 93.3309C441.979 95.3791 440.79 97.2924 439.357 99.0171C439.808 99.3722 440.33 99.6248 440.889 99.7573C441.447 99.8898 442.027 99.8991 442.59 99.7845L442.892 93.3309Z" fill="#ED847E"/>
<path d="M447.848 103.395C447.337 103.446 446.823 103.446 446.313 103.395C446.278 103.395 446.244 103.388 446.212 103.375C446.18 103.361 446.151 103.342 446.126 103.317C446.102 103.293 446.082 103.264 446.069 103.232C446.056 103.2 446.049 103.165 446.049 103.131C446.049 103.096 446.056 103.062 446.069 103.03C446.082 102.997 446.102 102.968 446.126 102.944C446.151 102.919 446.18 102.9 446.212 102.887C446.244 102.873 446.278 102.866 446.313 102.866C447.446 102.949 448.583 102.764 449.632 102.327C450.68 101.89 451.612 101.213 452.351 100.35C452.371 100.321 452.397 100.296 452.427 100.276C452.458 100.257 452.491 100.244 452.527 100.238C452.562 100.232 452.598 100.234 452.633 100.242C452.668 100.251 452.7 100.266 452.729 100.288C452.777 100.339 452.803 100.406 452.803 100.476C452.803 100.546 452.777 100.614 452.729 100.665C451.511 102.166 449.764 103.143 447.848 103.395Z" fill="#263238"/>
<path d="M470.492 99.9355C469.318 101.774 467.464 103.073 465.334 103.546C462.516 104.15 461.283 101.583 462.214 99.0046C463.045 96.6899 465.523 93.5826 468.29 94.1361C468.893 94.2666 469.453 94.5455 469.92 94.9476C470.387 95.3496 470.747 95.862 470.965 96.4383C471.184 97.0145 471.255 97.6362 471.173 98.247C471.09 98.8578 470.856 99.4382 470.492 99.9355Z" fill="#FFC3BD"/>
<path d="M453.082 89.0661C452.952 89.0005 452.853 88.888 452.805 88.7516C452.633 88.0986 452.308 87.4958 451.858 86.9927C451.407 86.4897 450.843 86.1009 450.213 85.8582C450.077 85.8174 449.962 85.7245 449.894 85.5997C449.826 85.4749 449.809 85.3283 449.848 85.1915C449.867 85.1231 449.9 85.0591 449.943 85.0035C449.987 84.9479 450.042 84.9016 450.104 84.8676C450.167 84.8335 450.235 84.8124 450.306 84.8053C450.376 84.7983 450.447 84.8056 450.515 84.8267C451.318 85.117 452.04 85.5967 452.618 86.2253C453.196 86.8538 453.614 87.6126 453.836 88.4371C453.857 88.5048 453.865 88.5761 453.858 88.6467C453.851 88.7172 453.829 88.7857 453.795 88.8479C453.761 88.9101 453.715 88.9648 453.659 89.0088C453.604 89.0528 453.54 89.0851 453.471 89.1039C453.408 89.1263 453.34 89.1345 453.272 89.128C453.205 89.1215 453.14 89.1004 453.082 89.0661Z" fill="#263238"/>
<path d="M436.224 87.0533C436.086 87.0687 435.947 87.0329 435.834 86.9527C435.719 86.8674 435.643 86.7401 435.622 86.5986C435.6 86.4572 435.636 86.3131 435.721 86.1979C436.214 85.5003 436.866 84.93 437.622 84.5341C438.379 84.1382 439.22 83.928 440.074 83.9209C440.144 83.9241 440.213 83.9414 440.277 83.9717C440.341 84.0021 440.398 84.0449 440.445 84.0977C440.492 84.1505 440.528 84.2121 440.55 84.279C440.573 84.3458 440.582 84.4166 440.577 84.487C440.574 84.5581 440.556 84.6278 440.526 84.6922C440.496 84.7566 440.453 84.8144 440.401 84.8623C440.348 84.9102 440.287 84.9473 440.22 84.9714C440.153 84.9955 440.082 85.0062 440.011 85.0028C439.335 85.0121 438.671 85.1838 438.076 85.5035C437.48 85.8231 436.97 86.2814 436.589 86.8395C436.5 86.9562 436.369 87.0331 436.224 87.0533Z" fill="#263238"/>
<path d="M444.477 442.816C444.343 442.639 444.252 442.433 444.21 442.215C444.169 441.997 444.178 441.772 444.237 441.558C444.261 441.391 444.327 441.234 444.428 441.099C444.529 440.965 444.663 440.859 444.816 440.79C446.187 440.187 449.483 442.388 449.848 442.64C449.889 442.669 449.921 442.709 449.939 442.756C449.957 442.803 449.96 442.855 449.949 442.904C449.937 442.957 449.911 443.007 449.873 443.047C449.836 443.087 449.788 443.116 449.735 443.13C448.238 443.483 445.584 443.948 444.577 442.979C444.533 442.932 444.499 442.876 444.477 442.816ZM448.993 442.715C447.647 441.872 445.722 440.929 445.005 441.243C444.937 441.272 444.879 441.319 444.836 441.379C444.794 441.439 444.77 441.51 444.766 441.583C444.71 441.746 444.7 441.92 444.735 442.089C444.771 442.257 444.851 442.413 444.967 442.539C445.508 443.03 446.993 443.093 448.993 442.69V442.715Z" fill="#407BFF"/>
<path d="M448.2 441.784C447.391 440.968 446.938 439.864 446.942 438.715C446.999 438.503 447.123 438.315 447.295 438.179C447.467 438.043 447.679 437.966 447.898 437.96C448.099 437.923 448.307 437.936 448.502 437.998C448.697 438.059 448.874 438.167 449.018 438.312C450.163 439.394 449.974 442.665 449.961 442.803C449.955 442.85 449.938 442.895 449.912 442.934C449.886 442.973 449.851 443.006 449.81 443.03C449.77 443.052 449.724 443.063 449.678 443.063C449.632 443.063 449.587 443.052 449.546 443.03C449.033 442.69 448.579 442.269 448.2 441.784ZM448.741 438.841L448.628 438.715C448.537 438.623 448.426 438.555 448.303 438.516C448.181 438.476 448.05 438.467 447.923 438.488C447.584 438.488 447.496 438.69 447.458 438.815C447.257 439.595 448.414 441.432 449.446 442.288C449.529 441.096 449.286 439.904 448.741 438.841Z" fill="#407BFF"/>
<path d="M465.46 196.839L466.19 201.016C466.315 201.343 465.9 201.657 465.372 201.645L418.247 200.11C417.832 200.11 417.518 199.871 417.518 199.619V195.455C417.518 195.166 417.895 194.94 418.348 194.952L464.73 196.462C464.875 196.449 465.021 196.478 465.15 196.545C465.279 196.611 465.387 196.714 465.46 196.839Z" fill="white"/>
<path d="M458.692 201.871H459.95C460.202 201.871 460.403 201.745 460.403 201.594V196.248C460.403 196.097 460.202 195.959 459.95 195.946H458.692C458.441 195.946 458.239 196.059 458.239 196.223V201.62C458.239 201.733 458.441 201.871 458.692 201.871Z" fill="#407BFF"/>
<path opacity="0.4" d="M458.692 201.871H459.95C460.202 201.871 460.403 201.745 460.403 201.594V196.248C460.403 196.097 460.202 195.959 459.95 195.946H458.692C458.441 195.946 458.239 196.059 458.239 196.223V201.62C458.239 201.733 458.441 201.871 458.692 201.871Z" fill="white"/>
<path d="M421.707 200.664H422.965C423.216 200.664 423.418 200.538 423.418 200.387V194.99C423.418 194.826 423.216 194.688 422.965 194.688H421.707C421.455 194.688 421.254 194.801 421.254 194.965V200.362C421.254 200.525 421.43 200.664 421.707 200.664Z" fill="#407BFF"/>
<path opacity="0.4" d="M421.707 200.664H422.965C423.216 200.664 423.418 200.538 423.418 200.387V194.99C423.418 194.826 423.216 194.688 422.965 194.688H421.707C421.455 194.688 421.254 194.801 421.254 194.965V200.362C421.254 200.525 421.43 200.664 421.707 200.664Z" fill="white"/>
<path d="M440.199 201.28H441.457C441.709 201.28 441.91 201.154 441.91 201.003V195.606C441.91 195.443 441.709 195.304 441.457 195.304H440.199C439.948 195.304 439.746 195.418 439.746 195.581V200.978C439.746 201.129 439.948 201.28 440.199 201.28Z" fill="#407BFF"/>
<path opacity="0.4" d="M440.199 201.28H441.457C441.709 201.28 441.91 201.154 441.91 201.003V195.606C441.91 195.443 441.709 195.304 441.457 195.304H440.199C439.948 195.304 439.746 195.418 439.746 195.581V200.978C439.746 201.129 439.948 201.28 440.199 201.28Z" fill="white"/>
<path d="M476.631 135.398C478.355 142.733 479.726 149.954 480.795 157.376C481.324 161.15 481.827 164.81 482.129 168.61C482.498 172.532 482.599 176.474 482.431 180.41C482.355 181.466 482.254 182.536 482.078 183.68C482.003 184.247 481.864 184.863 481.751 185.454L481.487 186.448C481.373 186.877 481.23 187.297 481.059 187.706C480.572 188.904 479.824 189.978 478.87 190.851C478.091 191.556 477.209 192.137 476.254 192.575C474.889 193.177 473.436 193.555 471.951 193.694C469.73 193.891 467.493 193.836 465.284 193.531C463.308 193.274 461.347 192.913 459.409 192.449C452.052 190.635 444.889 188.107 438.023 184.901C437.307 184.578 436.736 184.001 436.42 183.282C436.103 182.563 436.064 181.753 436.309 181.007C436.554 180.261 437.066 179.631 437.747 179.24C438.428 178.849 439.23 178.723 439.998 178.888H440.099C447.081 180.372 454.251 181.793 461.107 182.561C462.806 182.75 464.504 182.863 466.139 182.901C467.567 182.963 468.997 182.87 470.404 182.624C470.744 182.575 471.07 182.455 471.36 182.272C471.36 182.272 471.234 182.272 471.02 182.473C470.732 182.714 470.503 183.02 470.354 183.366C470.241 183.68 470.354 183.366 470.354 183.366V183.026L470.467 182.108C470.467 181.429 470.542 180.686 470.555 179.906C470.494 176.54 470.237 173.18 469.788 169.842C469.335 166.358 468.844 162.848 468.228 159.326C466.97 152.306 465.599 145.161 464.139 138.216V138.141C463.84 136.511 464.184 134.829 465.099 133.447C466.014 132.066 467.428 131.093 469.046 130.733C470.663 130.373 472.357 130.654 473.772 131.517C475.186 132.38 476.211 133.758 476.631 135.361V135.398Z" fill="#407BFF"/>
<path d="M430.852 169.994L427.016 169.339C426.721 169.291 426.42 169.302 426.13 169.371C425.84 169.44 425.566 169.566 425.325 169.741C425.084 169.917 424.88 170.138 424.726 170.393C424.571 170.648 424.468 170.932 424.424 171.226L423.581 176.913C423.508 177.41 423.605 177.918 423.856 178.354C424.107 178.79 424.498 179.128 424.965 179.315L431.695 182.033C431.695 182.033 437.23 186.36 441.621 184.31V179.617L436.111 173C434.769 171.408 432.906 170.342 430.852 169.994Z" fill="#263238"/>
<path d="M449.383 90.639L447.219 89.8967C447.219 89.8967 448.263 91.6705 449.383 90.639Z" fill="#263238"/>
<path d="M458.478 100.401L460.579 104.817C460.727 105.107 460.784 105.436 460.743 105.76C460.491 108.15 464.592 117.397 442.061 116.365C435.444 116.05 434.652 103.42 435.331 99.4449C435.379 99.1152 435.524 98.8073 435.749 98.5608C435.973 98.3143 436.265 98.1403 436.589 98.0611L441.445 97.0044C441.645 96.973 441.849 96.973 442.049 97.0044L457.22 99.5204C457.486 99.554 457.739 99.6517 457.958 99.8052C458.177 99.9586 458.356 100.163 458.478 100.401Z" fill="#407BFF"/>
</svg>
